<svg width="643" height="780" viewBox="0 0 643 780" xmlns="http://www.w3.org/2000/svg"><title>logo-oogway</title><path d="M441.406 62.61c-1.347 1.568-2.472 2.633-3.31 3.89-11.715 17.55-28.175 29.27-46.783 38.47-31.606 15.62-65.002 17.637-99.02 12.16-33.845-5.45-62.724-20.447-83.403-48.62-4.308-5.872-7.472-5.91-13.1-2.34-26.022 16.512-48.732 36.78-68.682 60.133-53.583 62.727-79.97 136.55-87.19 217.738-4.62 51.94.59 103.225 15.454 153.247 20.84 70.126 56.85 130.91 115.34 176.078 70.64 54.552 149.056 70.048 233.993 39.27C464.31 691.034 509 649.87 542.877 597.287c53.705-83.356 70.12-175.2 58.626-272.803-5.643-47.9-19.892-93.166-42.5-135.7-27.765-52.227-65.693-95.15-117.597-126.176M219.75 27.39c12.91 34.45 38.373 54.368 72.863 60.9 36.653 6.94 72.565 4.056 103.922-19.833 12.526-9.542 20.39-22.443 26.943-36.363 1.177-2.503 2.34-5.013 3.778-8.094 2.55 1.073 4.65 1.834 6.64 2.812 75.357 36.995 127.137 96.344 161.813 171.592 17.13 37.178 28.857 76.152 32.788 116.98 2.642 27.433 5.57 55.157 4.378 82.577-3.903 89.804-29.944 172.493-86.746 243.458-42.312 52.865-95.04 91.012-161.96 107.27-29.048 7.06-58.337 8.98-88.113 5.88-68.226-7.11-125.093-37.216-172.994-85.216C70.107 616.282 38.8 551.485 21.568 479.237c-10.005-41.945-13.41-84.653-10.643-127.417 5.79-89.42 33.852-170.944 91.423-240.92 24.857-30.216 54.072-55.45 88.177-74.845 8.802-5.004 18.012-8.622 29.224-8.665zm276.403 577.834l-74.086-96.848c20.14-28.878 39.9-57.3 59.836-85.604 1.146-1.627 3.692-3.208 5.6-3.222 27.13-.207 54.263-.14 81.637-.14-8.072 68.086-29.52 130.28-72.987 185.814zm-350.564-.107C102.13 549.904 80.366 487.98 72.57 419.29h8.245c23.288 0 46.58.126 69.865-.11 4.577-.046 7.45 1.11 10.147 5.022 18.04 26.18 36.348 52.174 54.6 78.21 2.245 3.205 4.46 5.872 1.155 10.143-23.41 30.26-46.597 60.693-70.996 92.562zm73.21-310.66c-21.857 31.097-43.087 61.358-64.447 91.528-1.02 1.442-3.16 2.963-4.788 2.973-26.35.185-52.7.13-78.94.13-8.11-50.65 25.098-169.527 59.253-211.24L218.8 294.455zm100.722-20.247c-24.34 0-47.787-1.347-72.124-1.676-3.03-.042-7.084-1.79-8.88-4.122-28.418-36.898-56.45-74.092-84.85-111.004-3.785-4.923-3.84-8.19.654-12.337 11.597-10.7 23.222-21.394 34.31-32.61 4.902-4.958 8.26-4.06 12.89-.016 20.787 18.147 44.484 31.224 71.465 37.117 56.958 12.442 110.888 6.257 159.62-28.35 1.684-1.195 3.292-2.513 4.86-3.864 10.434-9.003 10.724-9.343 21.28.14 10.385 9.323 20.03 19.464 30.1 29.14 3.426 3.29 3.515 5.954.483 9.883-28.93 37.49-57.7 75.102-86.37 112.79-2.778 3.652-5.666 5.078-10.312 5.028-24.075-.255-48.155-.118-72.233-.118h-.893zm253.024 114.634c-28.34 0-53.945.1-79.544-.168-2.342-.025-5.495-1.834-6.86-3.796-19.767-28.427-39.32-57.008-58.842-85.602-2.122-3.11-4.068-5.902-.732-10.208 25.01-32.293 49.702-64.833 74.498-97.293.628-.82 1.32-1.593 1.996-2.376 9.347-10.876 11.146-10.466 18.222 1.998 22.364 39.393 37.536 81.415 44.47 126.08 3.62 23.312 4.566 47.04 6.792 71.366zm-252.3 109.075c-21.746 0-43.496-1.27-65.237-1.642-2.964-.052-6.955-2.056-8.652-4.447-20.217-28.46-40.004-57.228-60.145-85.744-3.035-4.3-3.062-7.248.03-11.598 20.082-28.244 39.75-56.785 59.9-84.98 1.856-2.597 6.125-4.886 9.293-4.91 43.752-.347 87.507-.35 131.26-.12 2.707.013 6.375 1.944 7.952 4.155 19.96 28.013 39.504 56.324 59.46 84.34 3.55 4.982 3.83 8.793.334 13.807-20.258 29.063-40.215 58.338-60.592 87.318-1.517 2.157-5.507 3.59-8.373 3.628-21.74.297-43.485.162-65.23.162-5.336 0 9.623.03 0 .03zM166.542 628.853c12.73-16.715 25.233-33.155 37.76-49.58 11.45-15.015 23.092-29.895 34.294-45.096 3.286-4.457 6.85-6.017 12.317-6.003 46.598.13 93.2.083 139.797-.24 5.553-.037 8.808 1.707 12.064 6.086 21.92 29.474 44.14 58.726 66.23 88.073 1.533 2.033 2.832 4.24 4.18 6.28-71.016 77.493-203.55 99.915-306.64.48z" fill="#000" fill-rule="evenodd"/></svg>