<svg viewBox="0 0 1000 104" xmlns="http://www.w3.org/2000/svg"><title>logo-uncommon</title><path d="M12.43 30.07c0-6.88-2.318-10.32-6.953-10.32-1.123 0-2.387.14-3.792.42-.56.14-1.123.21-1.685.21L1.264 7.953c4.494-.702 9.023-1.44 13.587-2.212a565.36 565.36 0 0 0 12.325-2.212L39.815 1l2.106 3.58c-.84 1.686-1.58 4.565-2.21 8.638-.633 4.073-1.23 8.848-1.79 14.325-.563 5.477-.984 11.376-1.265 17.695-.28 6.32-.422 12.57-.422 18.75 0 11.375 4.354 17.063 13.06 17.063 3.09 0 6.146-.842 9.165-2.527 3.02-1.686 5.934-3.44 8.742-5.267V30.282c0-4.073-.597-6.777-1.79-8.11-1.194-1.335-3.617-2.072-7.268-2.213-.562 0-1.264.034-2.107.105-.842.07-1.334.105-1.474.105l1.686-12.218c4.494-.702 9.093-1.405 13.798-2.107A372.652 372.652 0 0 0 82.79 3.74a266.75 266.75 0 0 0 12.85-2.32l2.106 3.583c-.843 1.685-1.58 4.67-2.212 8.953-.632 4.283-1.23 9.48-1.79 15.588-.562 6.11-.984 12.886-1.265 20.33-.28 7.442-.422 15.096-.422 22.96 0 2.67.632 4.776 1.896 6.32 1.264 1.545 3.09 2.318 5.477 2.318a11.94 11.94 0 0 0 3.582-.527 33.044 33.044 0 0 0 3.16-1.158 23.526 23.526 0 0 0 3.16-1.896l3.37 4.425c-2.246 3.65-4.634 6.88-7.162 9.69a52.415 52.415 0 0 1-7.162 7.057c-2.668 2.177-5.267 3.616-7.794 4.318-12.78 0-19.943-5.406-21.488-16.22l-1.685-.843c-5.336 5.056-10.18 9.13-14.534 12.218-4.354 3.09-7.303 4.635-8.848 4.635-10.814 0-19.03-2.247-24.647-6.74-5.617-4.495-8.426-11.096-8.426-19.803L12.43 30.07zm166.63 59.196c3.37-.842 5.794-2.14 7.268-3.897 1.475-1.756 2.282-4.39 2.423-7.9l.633-36.023c0-12.22-4.494-18.328-13.482-18.328-3.51 0-6.95.982-10.322 2.948-3.37 1.967-5.968 3.582-7.794 4.846-.28 3.792-.527 8.11-.737 12.955-.21 4.844-.422 9.55-.632 14.113a1492 1492 0 0 0-.527 12.43c-.14 3.72-.21 6.284-.21 7.688 0 3.653.456 6.146 1.37 7.48.91 1.334 2.562 2 4.95 2h1.474c.56 0 1.193-.07 1.896-.21.56 0 1.264-.07 2.106-.21l.632 1.053-2.317 13.272c-2.81 0-5.478-.07-8.006-.21-2.388-.142-4.845-.247-7.373-.317-2.527-.07-4.844-.105-6.95-.105-2.81 0-5.69.07-8.638.21-2.95.14-5.618.28-8.005.422-2.81.28-5.618.49-8.426.63l1.686-13.48c4.073-.422 6.916-1.475 8.532-3.16 1.615-1.686 2.422-4.495 2.422-8.427V32.81c0-4.916-.702-8.25-2.106-10.007-1.405-1.755-4.143-2.633-8.216-2.633h-2.74l-.84-1.053 1.263-11.165a461.568 461.568 0 0 0 14.22-2.317c4.705-.843 8.883-1.616 12.534-2.318A247.41 247.41 0 0 0 157.574 1l1.684 2.107a55.004 55.004 0 0 0-1.053 4.634c-.562 2.67-.983 5.97-1.264 9.902l.844.843a505.29 505.29 0 0 1 6.32-5.16 146.796 146.796 0 0 1 7.69-5.795c2.597-1.825 5.09-3.37 7.477-4.634C181.66 1.632 183.556 1 184.96 1c10.11 0 17.94 2.387 23.487 7.162 5.548 4.775 8.32 11.516 8.32 20.224 0 2.106-.21 5.372-.63 9.795-.422 4.425-.843 9.165-1.264 14.22-.422 5.057-.843 9.937-1.264 14.642-.423 4.704-.633 8.32-.633 10.85 0 3.65.49 6.213 1.474 7.688.984 1.474 2.67 2.212 5.057 2.212h4.003c.702 0 1.474-.07 2.317-.21l.42.842-1.895 13.06c-2.95 0-5.758-.07-8.426-.21a234.46 234.46 0 0 0-7.584-.316 268.92 268.92 0 0 0-6.952-.105c-2.106 0-4.53.07-7.267.21-2.74.14-5.302.35-7.69.632-2.808.28-5.687.562-8.636.843l1.263-13.272zm133.348-12.64l3.37 10.955c-3.792 2.95-7.513 5.62-11.165 8.006a89.288 89.288 0 0 1-10.322 5.372c-3.65 1.615-7.09 2.422-10.32 2.422-7.164 0-13.624-1.123-19.382-3.37-5.758-2.247-10.638-5.477-14.64-9.69-4.003-4.214-7.093-9.305-9.27-15.273-2.177-5.97-3.265-12.745-3.265-20.33 0-7.864 1.264-15.096 3.792-21.697 2.528-6.6 6.074-12.253 10.638-16.958 4.565-4.705 9.97-8.39 16.22-11.06C274.314 2.335 281.23 1 288.814 1c3.933 0 7.55.246 10.85.737 3.3.492 6.144 1.018 8.532 1.58 2.668.562 5.126 1.264 7.373 2.107l.842 1.896c-.702 2.95-1.334 6.18-1.896 9.69-.56 2.95-1.088 6.39-1.58 10.322a205.54 205.54 0 0 0-1.158 12.64l-13.693.843v-6.952c0-9.97-4.354-14.957-13.06-14.957-6.46 0-11.34 2.352-14.642 7.057-3.3 4.705-4.95 11.62-4.95 20.75 0 11.516 1.967 20.294 5.9 26.333 3.932 6.038 9.62 9.058 17.063 9.058 2.808 0 5.582-.316 8.32-.948 2.74-.632 5.162-1.3 7.268-2 2.53-.844 4.776-1.897 6.743-3.16l1.685.63zm57.93 26.754c-6.74 0-12.85-1.158-18.326-3.475-5.477-2.318-10.182-5.583-14.114-9.796-3.933-4.214-6.952-9.27-9.06-15.17-2.105-5.897-3.16-12.498-3.16-19.8 0-8.006 1.23-15.344 3.688-22.014s5.933-12.394 10.428-17.17c4.494-4.774 9.865-8.46 16.115-11.06C362.16 2.3 369.074 1 376.66 1c6.88 0 13.06 1.124 18.537 3.37 5.477 2.248 10.147 5.443 14.01 9.586 3.86 4.143 6.81 9.198 8.847 15.167 2.036 5.97 3.054 12.675 3.054 20.118 0 8.006-1.23 15.344-3.686 22.015-2.458 6.67-5.9 12.394-10.323 17.17-4.425 4.774-9.76 8.46-16.01 11.058-6.25 2.598-13.167 3.897-20.75 3.897zm4.214-16.22c12.078 0 18.117-9.41 18.117-28.23 0-13.48-1.792-23.487-5.373-30.018-3.58-6.53-8.742-9.795-15.483-9.795-12.078 0-18.117 9.41-18.117 28.228 0 13.482 1.79 23.49 5.372 30.02 3.58 6.53 8.74 9.795 15.482 9.795zm118.812 2.106c3.37-.842 5.793-2.14 7.268-3.897 1.475-1.756 2.282-4.39 2.423-7.9l.632-36.023c0-12.22-4.494-18.328-13.483-18.328-3.51 0-6.95.982-10.322 2.948-3.37 1.967-5.97 3.652-7.794 5.056-.28 3.792-.527 8.11-.738 12.956-.21 4.845-.42 9.515-.632 14.01-.21 4.493-.386 8.6-.526 12.322-.14 3.722-.21 6.285-.21 7.69 0 3.65.455 6.144 1.368 7.478.913 1.334 2.563 2 4.95 2h1.475c.562 0 1.194-.07 1.896-.21.563 0 1.265-.07 2.108-.21l.632 1.053-2.317 13.272c-2.81 0-5.477-.07-8.005-.21-2.388-.142-4.846-.247-7.373-.317-2.528-.07-4.846-.105-6.952-.105-2.81 0-5.688.035-8.637.105-2.95.07-5.618.175-8.005.316-2.808.14-5.617.21-8.426.21l1.686-13.27c4.072-.282 6.916-1.23 8.53-2.845 1.616-1.616 2.424-4.39 2.424-8.322V32.81c0-4.916-.702-8.25-2.107-10.007-1.404-1.755-4.143-2.633-8.215-2.633h-2.74l-.842-1.053 1.264-11.165a461.567 461.567 0 0 0 14.22-2.317 1010.58 1010.58 0 0 0 12.534-2.318A247.41 247.41 0 0 0 471.878 1l1.684 2.107a55.004 55.004 0 0 0-1.053 4.634c-.563 2.67-.984 5.97-1.265 9.902l.632.632a948.657 948.657 0 0 0 6.636-5.16 136.8 136.8 0 0 1 7.794-5.69c2.598-1.754 5.09-3.264 7.48-4.528C496.172 1.632 497.998 1 499.262 1c16.29 0 26.262 5.898 29.913 17.695 1.545-1.404 3.617-3.09 6.215-5.055a233.797 233.797 0 0 1 8.006-5.794c2.738-1.896 5.337-3.51 7.794-4.845 2.458-1.333 4.39-2 5.793-2 10.112 0 17.94 2.387 23.49 7.162 5.546 4.775 8.32 11.516 8.32 20.224 0 2.106-.21 5.372-.632 9.795-.42 4.425-.842 9.165-1.263 14.22-.42 5.057-.843 9.937-1.264 14.642-.42 4.704-.632 8.32-.632 10.85 0 3.65.528 6.213 1.58 7.688 1.054 1.474 2.775 2.212 5.162 2.212h4.003c.702 0 1.474-.07 2.317-.21l.42.842-2.105 13.06c-2.81 0-5.618-.07-8.427-.21a233.15 233.15 0 0 0-7.69-.316c-2.737-.07-5.09-.105-7.056-.105-2.106 0-4.46.07-7.057.21-2.598.14-5.09.28-7.478.422-2.67.14-5.408.28-8.217.42l1.264-13.48c3.23-.423 5.512-1.44 6.846-3.056 1.334-1.616 2.072-4.25 2.212-7.9l.632-36.023c0-12.22-4.494-18.328-13.482-18.328-3.37 0-6.706.912-10.006 2.738-3.302 1.826-5.865 3.44-7.69 4.845l-2.74 47.188c0 3.652.457 6.215 1.37 7.69.913 1.474 2.563 2.212 4.95 2.212h3.793c.702 0 1.404-.07 2.106-.21l.42.842-2.106 13.06c-2.81 0-5.547-.07-8.216-.21-2.387-.14-4.845-.246-7.373-.316-2.528-.07-4.775-.105-6.74-.105-2.107 0-4.53.07-7.27.21-2.737.14-5.3.35-7.688.632-2.808.28-5.687.562-8.637.843l1.264-13.272zm176.743 0c3.37-.842 5.794-2.14 7.268-3.897 1.475-1.756 2.282-4.39 2.423-7.9l.632-36.023c0-12.22-4.494-18.328-13.482-18.328-3.51 0-6.952.982-10.323 2.948-3.37 1.967-5.968 3.652-7.794 5.056a430.36 430.36 0 0 0-.736 12.956c-.21 4.845-.422 9.515-.632 14.01-.21 4.493-.387 8.6-.527 12.322-.14 3.722-.21 6.285-.21 7.69 0 3.65.456 6.144 1.37 7.478.91 1.334 2.562 2 4.95 2h1.474c.56 0 1.192-.07 1.895-.21.56 0 1.264-.07 2.106-.21l.633 1.053-2.317 13.272c-2.81 0-5.477-.07-8.005-.21-2.387-.142-4.844-.247-7.372-.317-2.528-.07-4.845-.105-6.952-.105-2.81 0-5.688.035-8.637.105-2.95.07-5.62.175-8.006.316-2.81.14-5.618.21-8.426.21l1.685-13.27c4.073-.282 6.916-1.23 8.532-2.845 1.615-1.616 2.422-4.39 2.422-8.322V32.81c0-4.916-.702-8.25-2.106-10.007-1.404-1.755-4.142-2.633-8.215-2.633h-2.74l-.84-1.053 1.263-11.165a461.568 461.568 0 0 0 14.22-2.317c4.704-.843 8.882-1.616 12.533-2.318A247.41 247.41 0 0 0 648.62 1l1.685 2.107a55.004 55.004 0 0 0-1.053 4.634c-.562 2.67-.983 5.97-1.264 9.902l.632.632a948.657 948.657 0 0 0 6.636-5.16 136.8 136.8 0 0 1 7.794-5.69c2.598-1.754 5.09-3.264 7.48-4.528C672.915 1.632 674.74 1 676.005 1c16.29 0 26.262 5.898 29.914 17.695 1.544-1.404 3.616-3.09 6.214-5.055a233.797 233.797 0 0 1 8.005-5.794c2.738-1.896 5.336-3.51 7.793-4.845 2.458-1.333 4.39-2 5.794-2 10.11 0 17.94 2.387 23.488 7.162 5.547 4.775 8.32 11.516 8.32 20.224 0 2.106-.21 5.372-.63 9.795-.422 4.425-.843 9.165-1.265 14.22-.42 5.057-.842 9.937-1.264 14.642-.42 4.704-.632 8.32-.632 10.85 0 3.65.527 6.213 1.58 7.688 1.054 1.474 2.774 2.212 5.16 2.212h4.004c.702 0 1.474-.07 2.317-.21l.42.842-2.105 13.06c-2.81 0-5.618-.07-8.427-.21a233.15 233.15 0 0 0-7.69-.316c-2.737-.07-5.09-.105-7.056-.105-2.106 0-4.46.07-7.057.21-2.598.14-5.09.28-7.478.422-2.67.14-5.407.28-8.216.42l1.264-13.48c3.23-.423 5.512-1.44 6.847-3.056 1.334-1.616 2.07-4.25 2.21-7.9l.633-36.023c0-12.22-4.494-18.328-13.482-18.328-3.37 0-6.706.912-10.006 2.738s-5.863 3.44-7.69 4.845l-2.738 47.188c0 3.652.457 6.215 1.37 7.69.912 1.474 2.563 2.212 4.95 2.212h3.792c.702 0 1.404-.07 2.106-.21l.422.842-2.107 13.06c-2.81 0-5.547-.07-8.215-.21-2.388-.14-4.846-.246-7.374-.316-2.527-.07-4.775-.105-6.74-.105-2.107 0-4.53.07-7.268.21-2.74.14-5.302.35-7.69.632-2.808.28-5.687.562-8.637.843l1.264-13.272zm159.68 14.114c-6.74 0-12.85-1.158-18.327-3.475-5.477-2.318-10.182-5.583-14.114-9.796-3.933-4.214-6.952-9.27-9.06-15.17-2.105-5.897-3.16-12.498-3.16-19.8 0-8.006 1.23-15.344 3.688-22.014s5.934-12.394 10.428-17.17c4.494-4.774 9.865-8.46 16.115-11.06C821.607 2.3 828.523 1 836.107 1c6.882 0 13.06 1.124 18.538 3.37 5.477 2.248 10.147 5.443 14.01 9.586 3.86 4.143 6.81 9.198 8.847 15.167 2.036 5.97 3.054 12.675 3.054 20.118 0 8.006-1.23 15.344-3.686 22.015-2.458 6.67-5.9 12.394-10.323 17.17-4.424 4.774-9.76 8.46-16.01 11.058-6.25 2.598-13.166 3.897-20.75 3.897zM834 87.16c12.078 0 18.117-9.41 18.117-28.23 0-13.48-1.79-23.487-5.372-30.018-3.58-6.53-8.742-9.795-15.483-9.795-12.078 0-18.117 9.41-18.117 28.228 0 13.482 1.79 23.49 5.372 30.02 3.58 6.53 8.742 9.795 15.483 9.795zm118.812 2.106c3.37-.842 5.793-2.14 7.268-3.897 1.475-1.756 2.282-4.39 2.423-7.9l.632-36.023c0-12.22-4.494-18.328-13.483-18.328-3.51 0-6.95.982-10.322 2.948-3.37 1.967-5.97 3.582-7.794 4.846a430.36 430.36 0 0 0-.738 12.955c-.21 4.844-.42 9.55-.632 14.113-.21 4.565-.386 8.708-.526 12.43-.14 3.72-.21 6.284-.21 7.688 0 3.653.456 6.146 1.368 7.48.913 1.334 2.563 2 4.95 2h1.476c.56 0 1.193-.07 1.895-.21.56 0 1.263-.07 2.106-.21l.632 1.053-2.317 13.272c-2.808 0-5.476-.07-8.004-.21-2.388-.142-4.845-.247-7.373-.317-2.528-.07-4.846-.105-6.952-.105-2.808 0-5.687.07-8.636.21-2.95.14-5.618.28-8.005.422-2.81.28-5.62.49-8.428.63l1.686-13.48c4.072-.422 6.916-1.475 8.53-3.16 1.616-1.686 2.424-4.495 2.424-8.427V32.81c0-4.916-.702-8.25-2.107-10.007-1.404-1.755-4.143-2.633-8.215-2.633h-2.74l-.842-1.053 1.264-11.165a461.568 461.568 0 0 0 14.22-2.317c4.705-.843 8.883-1.616 12.534-2.318A247.41 247.41 0 0 0 931.326 1l1.684 2.107a55.004 55.004 0 0 0-1.053 4.634c-.562 2.67-.983 5.97-1.264 9.902l.843.843a505.283 505.283 0 0 1 6.32-5.16 146.796 146.796 0 0 1 7.69-5.795c2.597-1.825 5.09-3.37 7.477-4.634C955.41 1.632 957.306 1 958.71 1c10.112 0 17.942 2.387 23.49 7.162 5.547 4.775 8.32 11.516 8.32 20.224 0 2.106-.21 5.372-.632 9.795-.42 4.425-.842 9.165-1.264 14.22-.42 5.057-.842 9.937-1.264 14.642-.42 4.704-.632 8.32-.632 10.85 0 3.65.492 6.213 1.475 7.688.983 1.474 2.668 2.212 5.056 2.212h4c.704 0 1.476-.07 2.32-.21l.42.842-1.896 13.06c-2.95 0-5.758-.07-8.426-.21a234.46 234.46 0 0 0-7.584-.316 268.92 268.92 0 0 0-6.952-.105c-2.106 0-4.53.07-7.268.21-2.738.14-5.3.35-7.69.632-2.807.28-5.686.562-8.636.843l1.264-13.272z" fill="#000" fill-rule="evenodd"/></svg>
