<svg width="2808" height="780" viewBox="0 0 2808 780" xmlns="http://www.w3.org/2000/svg"><title>logo-activesphere</title><path d="M167.665 472.584L10 564.258l63.37-146.605 94.295 54.946v-.015zm22.697-254.655L339.71 564.258 76.173 410.752l83.174-192.823c5.18-5.134 10.359-7.267 15.462-6.398 5.18-.945 10.359 1.188 15.569 6.398h-.016zM519.707 544.5c-9.963 7.312-22.089 12.827-36.408 16.498-13.954 4.022-28.425 6.032-43.415 6.032-19.956 0-36.895-3.168-50.88-9.505a87.561 87.561 0 0 1-33.421-26.476c-8.637-11.684-14.929-25.683-18.95-41.998-3.656-16.345-5.484-34.351-5.484-54.002 0-42.349 9.475-74.841 28.425-97.493 18.965-23.002 46.568-34.504 82.823-34.504 18.28 0 32.904 1.493 43.903 4.494a147.763 147.763 0 0 1 30.406 11.501l-15.462 53.012a128.6 128.6 0 0 0-22.942-8.53c-7.312-1.98-15.797-2.986-25.44-2.986-17.975 0-31.608 6.002-40.916 17.975-9.323 11.7-13.984 30.528-13.984 56.516 0 10.663 1.173 20.504 3.504 29.507 2.33 8.987 5.819 16.848 10.465 23.505s10.633 11.988 17.945 15.995c7.662 3.656 16.452 5.484 26.445 5.484 10.968 0 20.29-1.326 27.953-3.991 7.647-3.001 14.471-6.505 20.458-10.511l14.975 49.508h.045l-.045-.03zM533.493 310h34.427v-46.98l64.863-18.523v65.503h60.857v54.992h-60.857v96.016c0 17.32 1.676 29.811 4.982 37.474 3.656 7.342 10.313 11.013 19.955 11.013 6.657 0 12.309-.655 16.97-1.98a113.336 113.336 0 0 0 16.452-6.017l11.486 49.995c-8.988 4.342-19.468 8.013-31.441 11.014A149.56 149.56 0 0 1 634.779 567c-22.957 0-39.911-5.834-50.88-17.518-10.663-11.989-15.994-31.488-15.994-58.496v-125.98h-34.428v-54.992l.016-.015zm206.35 0h64.864v249.978h-64.833V310h-.03zm-9.475-70.5c0-9.673 3.504-17.823 10.51-24.495 7.313-7.007 17.306-10.511 29.934-10.511 12.644 0 22.774 3.504 30.421 10.51 7.998 6.658 11.989 14.823 11.989 24.496 0 9.673-4.006 17.823-11.989 24.495-7.616 6.337-17.777 9.506-30.405 9.506-12.644 0-22.622-3.169-29.934-9.506a32.493 32.493 0 0 1-10.51-24.495h-.016zm224.28 201.506l8.485 38.495h2.498l6.977-39.454 42.41-130.017h69.844L980.636 562.506h-39.424L832.903 310h75.33l46.4 131.006h.045-.03zm347.121 97.493c-9.977 7.998-23.611 14.838-40.916 20.504A180.362 180.362 0 0 1 1206.47 567c-40.247 0-69.677-11.669-88.308-35.006-18.63-23.658-27.938-55.998-27.938-96.99 0-44.025 10.481-77.005 31.442-99.017 20.946-21.982 50.377-32.98 88.292-32.98 12.644 0 24.952 1.675 36.926 4.996 11.988 3.352 22.621 8.836 31.929 16.498 9.292 7.662 16.802 18.006 22.454 31 5.636 13.009 8.485 29.187 8.485 48.533 0 7.007-.503 14.502-1.524 22.5-.655 7.997-1.828 16.33-3.473 24.982h-149.667c1.02 21.022 6.352 36.865 15.995 47.528 9.947 10.663 25.896 15.995 47.878 15.995 13.634 0 25.775-1.98 36.408-6.002 10.968-4.357 19.3-8.683 24.952-13.024l21.479 42.5-.03-.015zm-92.786-183.5c-16.954 0-29.598 5.18-37.93 15.507-7.968 9.994-12.797 23.49-14.472 40.49h92.816c1.371-17.975-1.462-31.837-8.454-41.495-6.657-9.673-17.29-14.502-31.93-14.502h-.03zm298.756 111.005c0-10.663-3.991-19.346-11.989-26.003-7.647-6.657-17.457-12.644-29.43-18.006a620.48 620.48 0 0 0-38.388-17 226.977 226.977 0 0 1-38.388-21.48 117.662 117.662 0 0 1-29.462-32.02c-7.647-12.643-11.47-28.821-11.47-48.487 0-17 2.833-31.686 8.485-44.025 5.636-12.643 13.603-23.124 23.916-31.456 10.663-8.333 23.155-14.472 37.428-18.494 14.304-4.021 30.238-6.032 47.863-6.032 20.306 0 39.455 1.828 57.4 5.484 17.975 3.351 32.751 8.378 44.39 15.02l-21.45 57.49c-7.311-4.676-18.28-8.835-32.903-12.49-14.655-4.007-30.467-6.003-47.421-6.003-15.934 0-28.228 3.169-36.865 9.506-8.348 6.322-12.491 14.822-12.491 25.485 0 10.009 3.808 18.341 11.47 25.013 7.983 6.657 17.793 12.827 29.431 18.494a1703.308 1703.308 0 0 0 38.419 17.472 187.979 187.979 0 0 1 38.418 21.997 101.987 101.987 0 0 1 29.4 31.533c7.998 12.309 11.989 27.816 11.989 46.462 0 18.706-3.153 34.884-9.475 48.518a88.704 88.704 0 0 1-25.943 33.513c-10.968 8.988-24.434 15.66-40.398 19.986-15.645 4.342-32.935 6.505-51.885 6.505-24.937 0-46.888-2.331-65.854-7.008-18.95-4.676-32.934-9.338-41.891-14.014l21.936-58.496c3.656 2.01 8.302 4.189 13.969 6.52 5.986 2.33 12.643 4.509 19.955 6.504a234.25 234.25 0 0 0 22.957 4.982c8.302 1.325 16.787 1.98 25.44 1.98 20.29 0 35.752-3.32 46.4-9.978 10.968-7.007 16.452-17.518 16.452-31.502l-.015.03zm111.889-155.989h47.406l7.464 30.01h2.01c8.623-12.69 18.738-22.028 30.406-28.03 11.99-6.002 26.46-8.987 43.415-8.987 31.26 0 54.688 9.993 70.333 30.01 15.644 19.65 23.459 51.488 23.459 95.512 0 21.327-2.498 40.643-7.495 57.978-4.966 17.016-12.446 31.533-22.439 43.522a94.37 94.37 0 0 1-35.92 27.496c-13.984 6.352-30.116 9.52-48.411 9.52-10.313 0-18.783-.837-25.44-2.498a78.116 78.116 0 0 1-19.955-7.007V660h-64.864V309.998l.03.015zm111.264 47.985c-12.674 0-22.652 3.153-29.964 9.506-7.008 6.306-12.492 15.796-16.452 28.486v103.982c4.646 3.656 9.597 6.657 14.928 8.988 5.667 1.98 12.994 3.001 21.982 3.001 18.63 0 32.6-6.505 41.892-19.499 9.323-13.329 13.984-35.189 13.984-65.503 0-21.997-3.656-38.997-10.968-50.986-7.312-12.004-19.118-18.006-35.433-18.006l.03.03zM2042.2 559.993V418.018c0-20.336-2.834-35.036-8.485-44.024-5.682-8.988-15.995-13.497-30.97-13.497-10.968 0-21.113 3.809-30.42 11.47a52.6 52.6 0 0 0-17.945 28.487v159.493h-64.864v-349.94h64.864v127.99h1.98a90.486 90.486 0 0 1 29.446-25.5c11.638-6.322 26.445-9.49 44.405-9.49 12.644 0 23.764 1.675 33.422 4.996 9.643 3.352 17.625 8.836 23.947 16.498 6.657 7.662 11.47 18.173 14.471 31.502 3.321 12.994 4.982 29.172 4.982 48.503v155.487h-64.849.016zm318.741-21.48c-9.977 7.983-23.611 14.823-40.901 20.49a180.362 180.362 0 0 1-54.383 7.997c-40.216 0-69.662-11.669-88.292-35.006-18.646-23.658-27.969-55.998-27.969-96.99 0-44.025 10.48-77.005 31.427-99.017 20.946-21.982 50.392-32.98 88.307-32.98 12.644 0 24.937 1.675 36.91 4.996 11.99 3.352 22.622 8.836 31.93 16.498 9.292 7.662 16.802 18.006 22.453 31 5.637 13.009 8.485 29.187 8.485 48.533 0 7.007-.502 14.502-1.492 22.5-.67 7.997-1.828 16.33-3.504 24.982H2214.26c1.005 21.022 6.337 36.865 15.995 47.528 9.962 10.663 25.927 15.995 47.878 15.995 13.634 0 25.775-1.98 36.408-6.002 10.968-4.357 19.316-8.683 24.982-13.024l21.434 42.5h-.016zm-92.77-183.515c-16.955 0-29.599 5.18-37.931 15.507-7.983 9.994-12.796 23.49-14.472 40.49h92.801c1.326-17.975-1.523-31.837-8.485-41.495-6.657-9.673-17.29-14.502-31.929-14.502h.016zm284.253 15.995c-10.298-3.656-19.605-5.484-27.923-5.484-11.638 0-21.448 3.168-29.43 9.49a43.872 43.872 0 0 0-15.477 23.536v161.473H2414.7V310.014h50.422l7.464 32.995h1.98c5.667-12.308 13.315-21.814 22.957-28.486 9.643-6.657 20.961-9.993 33.925-9.993 8.652 0 18.463 1.828 29.446 5.484l-8.485 61.01v-.031h.015zm237.274 167.505c-9.978 7.998-23.612 14.838-40.917 20.504A180.362 180.362 0 0 1 2694.4 567c-40.216 0-69.662-11.669-88.293-35.006-18.63-23.658-27.938-55.998-27.938-96.99 0-44.025 10.48-77.005 31.427-99.017 20.946-21.982 50.391-32.98 88.307-32.98 12.644 0 24.937 1.675 36.91 4.996 11.99 3.352 22.622 8.836 31.93 16.498 9.292 7.662 16.756 18.006 22.423 31 5.636 13.009 8.485 29.187 8.485 48.533 0 7.007-.518 14.502-1.523 22.5-.655 7.997-1.828 16.33-3.504 24.982H2642.97c1.02 21.022 6.337 36.865 15.964 47.528 9.978 10.663 25.943 15.995 47.894 15.995 13.634 0 25.744-1.98 36.408-6.002 10.967-4.357 19.285-8.683 24.952-13.024l21.448 42.5h.03l.031-.015zm-92.801-183.5c-16.955 0-29.599 5.18-37.931 15.507-7.967 9.994-12.796 23.49-14.441 40.49h92.77c1.341-17.975-1.477-31.837-8.47-41.495-6.656-9.673-17.289-14.502-31.928-14.502z" fill="#000" fill-rule="evenodd"/></svg>