<svg viewBox="0 0 2468 771" xmlns="http://www.w3.org/2000/svg"><title>Nilenso</title><g fill="#000" fill-rule="evenodd"><path d="M380.41 110.945c15.97-6.678-48.424 34.48-32.377 27.86 4.987-2.05 11.825-3.915 16.497-6.87-1.872.335-10.663 2.597-12.516 2.932 2.484-2.726 5.848-4.08 8.872-5.34 2.385-.986 5.835-.67 5.638-4.867-.04-.532 1.577-1.478 2.523-1.636 3.37-.53 6.762-.768 10.133-1.24.848-.12 1.597-.868 2.444-1.163 2.03-.67 4.1-1.634 6.17-1.713 11.79-.414 23.578-.965 35.386-.75 13.504.238 26.653 3.31 39.664 6.916 5.283 1.458 10.763 2.167 16.066 3.527 4.16 1.044 8.34 2.206 12.262 3.9 12.104 5.36 24.327 10.62 36.115 16.687 9.56 4.926 18.61 10.875 27.717 16.648 4.515 2.876 8.556 6.5 12.873 9.712 11.907 8.807 21.606 19.918 31.838 30.438 1.202 1.242 2.09 2.778 3.154 4.197.314.413.53 1.182.945 1.28 7.176 1.675 7.432 9.004 11.178 13.495.473.61.828 1.4 1.28 2.01.257.276.652.414 2.05 1.202-.984-2.287-1.418-3.744-2.187-4.986-8.3-12.983-16.6-25.966-25.076-38.83-1.655-2.522-4.08-4.61-6.387-6.6-1.734-1.497-12.577 2.673-10.96-.598.138-.275-12.744-4.785-13.237-5.238-4.534-4.492-58.993-38.133-63.132-43.492-3.785-4.905 32.677 10.4 27.06 6.953-4.89-3.035-15.423-18.545-20.134-21.795-2.8-1.93 26.014 19.842 23.53 17.26.158-.078-31.394-33.174-31.06-32.958 2.524 1.754 16.23 8.1 18.656 9.99-2.637-15.126 30.95 15.24 31.285 15.4 4.81 1.95 16.296 4.762 20.988 6.93 3.35 1.555 7.467 4.573 10.7 6.307 4.18 2.226 2.633 3.058 6.85 5.225 1.165.63 12.203 10.692 13.03 11.716 2.05 2.502-15.31 6.27-12.43 4.085.965.808 1.95 1.636 2.916 2.444-.355-6.324-6.347-8.058-9.265-12.45a629.9 629.9 0 0 1 6.347 3.82c-.67-1.753-1.045-2.62-1.38-3.506.236-.217.493-.434.73-.67.768 1.024 2.306 2.147 2.168 3.034-.592 4 11.834 5.488 14.378 6.75 3.47 1.713-2.47 2.706 1.688 4.48-.157.137.514-.414 1.834-1.44.257.553.65 1.045.69 1.538.414 5.694 5.205 8.156 8.477 11.76 8.675 9.537 17.172 19.15 23.48 30.518 1.912 3.487 4.91 6.403 6.8 9.91 5.304 9.732 10.292 19.622 15.358 29.512 4.2 8.196 8.398 16.41 10.862 25.395 3.292 12.116 7.334 24.035 10.093 36.27 2.88 12.844 4.515 25.926 6.703 38.928.04.12.06.256.06.394.788 12.432.71 25 2.542 37.255 1.814 12.096-1.005 23.602-2.365 35.265-1.006 8.49-4.416 16.667-6.427 25.04-1.99 8.215-3.51 16.568-5.342 24.882-.454 2.107-1.242 4.195-1.913 6.264.356.158.69.276 1.046.414.375-.71.65-1.438 1.084-2.108.355-.63.77-1.202 2.05-1.438-.55 1.812-1.005 3.684-1.714 5.398-3.983 9.515-7.984 18.99-12.144 28.408-.453 1.104-1.912 1.754-2.7 2.76-.986 1.24-2.72 3.446-2.347 3.9 3.667 5.003-1.4 8.215-2.82 11.603-3.015 7.212-7.312 13.99-11.787 20.47-9.088 13.28-18.748 26.144-30.458 37.354-.335.374-.532.827-1.202 1.91 1.656-.393 2.66-.61 4.71-1.103-6.07 5.498-11.354 10.266-16.637 15.152-.945.827-1.596 1.97-2.345 2.974-1.222 1.675-1.912 3.31-5.027 2.76-2.365-.415-6.15.255-6.15 4.628 0 .71-.75 1.655-1.4 2.148-3.332 2.54-6.565 5.18-10.152 7.31-2.78 1.693-6.033 2.56-8.95 4.037-1.085.57-2.445 1.89-2.484 2.856-.158 4.118-3.35 4.472-6.033 5.26-3.174.966-5.796 2.01-7.433 5.418-.75 1.596-3.587 2.463-5.677 3.132-4.87 1.636-9.916 2.857-14.765 4.55-.986.356-1.4 2.11-2.524 2.366-2.62 1.182-5.164 2.54-7.825 3.546-2.563 1.004-5.342 1.438-7.807 2.54-8.457 3.725-17.387 5.655-26.376 7.547-6.506 1.398-12.972 2.876-19.753 3.526 31.127-9.75 62.294-19.188 89.005-38.73a7.523 7.523 0 0 1-.493-1.183c-2.68 1.22-5.342 2.502-8.634 4.04.572-1.36.946-2.15 1.262-2.937a8.298 8.298 0 0 0-.73-.71c-2.326 3.232-7.61 2.62-8.634 7.724-.158.788-2.01 1.418-3.194 1.832-2.82.985-5.874 1.438-8.575 2.68-9.62 4.393-19.142 9.042-28.762 13.494-1.222.572-2.74.532-4.16.788l-.394-1.004c6.23-3.25 12.618-6.285 18.71-9.772 4.395-2.54 8.436-5.595 12.635-8.452.65-.453 1.223-1.32 1.932-1.438 10.567-1.93 17.762-9.81 26.22-15.268 7.59-4.925 13.897-11.9 20.738-17.987.493-.453.71-1.24.532-2.502l-12.952 9.515c-.256-.295-.492-.532-.768-.827 22.217-19.11 44.414-38.26 59.89-63.496-.435-.414-.947-.808-1.4-1.222-2.19 2.876-4.397 5.753-6.565 8.63-4.337 5.772-8.3 11.9-13.09 17.297-3.016 3.447-7.195 5.87-10.862 8.727-2.918 2.304-4.77 5.575-8.89 6.934-2.88.946-4.77 4.905-7.157 7.467-2.543 2.72-5.48 4.69-9.127 5.22-.355-.412-.69-.826-1.065-1.22 2.426-1.675 4.83-3.31 7.256-4.965-.493-.57-1.025-1.182-1.498-1.793-22.06 18.185-45.657 33.886-71.836 45.352-.217-.354-.395-.63-.552-.965 4.948-2.8 9.896-5.517 14.864-8.354 5.283-2.975 10.724-5.733 15.672-9.2 4.613-3.25 10.724-4.985 12.774-11.33-18.136 10.66-36.746 20.234-56.696 27.208 7.018-3.704 14.017-7.388 21.054-11.13-.08-.257-.098-.493-.138-.75-1.163 0-2.484-.413-3.45.04-5.125 2.344-10.073 5.18-15.238 7.31-7.905 3.29-16.007 6.126-24.11 9.08-.63.238-1.537-.156-3.49-.353 7.71-3.605 14.254-6.658 20.858-9.712a20.092 20.092 0 0 0-.394-1.162c-1.163.118-2.346.275-4.357.472 1.22-.886 1.832-1.438 2.503-1.812 1.32-.67 2.976-.946 3.962-1.91 9.758-9.38 22.71-13.752 33.434-21.593 8.12-5.95 16.42-11.742 24.503-17.73 1.518-1.124 2.523-2.878 3.706-4.414-.316-.376-.573-.73-.888-1.085-1.262.67-2.602 1.24-3.765 2.07-2.07 1.437-4.337 2.836-6.033 4.668-5.58 6.206-13.247 9.12-20.206 13.1-2.622 1.498-5.638 2.247-8.477 3.39-2.956 1.2-6.15 2.108-8.85 3.743-3.864 2.344-8.22.69-12.124 2.147-1.577.572-3.272.926-5.323.69.73-.61 1.36-1.4 2.17-1.892 9.205-5.534 19.26-10.026 27.4-16.823 8.872-7.368 18.71-13.298 27.66-20.37 1.004-.79 1.733-1.892 2.266-3.173-21.647 12.234-41.912 26.754-65.154 36.15.63-.57 1.222-1.358 1.97-1.713 4.476-2.067 7.374-6.106 12.007-8.47 9.6-4.945 18.097-12.155 26.87-18.736 2.286-1.714 5.913-2.876 5.538-7.565-1.18.827-1.99 1.24-2.62 1.89-5.974 5.832-13.01 9.004-21.31 10.52-3.39.612-6.31 4-9.365 6.285-3.272 2.463-6.367 5.103-9.58 7.704a14.263 14.263 0 0 0-.828-.71c1.616-1.774 3.233-3.567 5.48-5.99-5.855 2.857-10.96 5.34-16.027 7.802-.335-.414-.59-.906-.907-1.36 19.043-9.752 36.253-22.006 51.906-36.368-.277-.394-.514-.768-.79-1.142-3.627 2.167-7.235 4.432-10.882 6.62a14.353 14.353 0 0 0-.414-.572c3.47-2.463 6.88-4.906 10.27-7.388 1.322-1.064 2.662-2.147 3.865-3.33 8.85-8.45 18.195-16.45 26.356-25.552 10.566-11.76 20.127-24.33 27.993-38.26 6.583-11.662 12.616-23.502 16.854-36.09 2.898-8.69 4.317-17.93 5.954-27.01 1.557-8.69 3.173-17.476 3.568-26.263.473-12.214.04-24.527-.375-36.762-.216-6.58-.728-13.18-1.89-19.66-1.44-8.158-3.136-16.373-5.7-24.234-4.868-14.893-10.388-29.55-15.77-44.286-.73-1.95-2.306-3.606-3.213-5.517-.867-1.753-1.202-3.802-2.13-5.536-2.07-3.86-4.12-7.8-6.642-11.366-4.22-5.87-8.516-11.703-13.287-17.1-4.633-5.26-9.896-9.93-14.943-14.796-1.242-1.222-2.582-2.423-4.04-3.35-1.204-.768-2.05-3.408-4.2-1.103-.138.158-1.183-.315-1.695-.69-2.918-2.048-5.934-4.077-8.734-6.343-15.297-12.59-33.73-17.75-52.615-21.612-9.343-1.91-18.865-3.88-28.327-3.802-12.577.098-25.155 1.89-37.673 3.546-6.604.867-13.148 2.68-19.555 4.61-4.554 1.36-8.832 3.704-13.228 5.576-2.84 1.182-5.756 2.186-8.516 3.565-8.555 4.315-16.973 8.767-25.528 12.983-1.637.808-3.608.966-5.402 1.458-.473.118-1.025.315-1.4.63-3.844 3.173-7.668 6.403-11.887 9.91-.71-1.674-1.143-2.797-1.636-3.9-.374-.217-.73-.434-1.084-.65.118 7.604-6.052 9.77-10.27 13.632-2.78 2.562-5.58 5.123-8.143 7.92-6.032 6.56-11.926 13.28-17.94 19.957 0 0-.55-.906-1.694-2.7-1.636 3.587-2.878 6.58-4.357 9.458-.592 1.123-1.893 1.89-2.564 2.994-1.794 3.034-3.647 6.068-5.027 9.26-1.597 3.704-2.7 7.604-4.042 11.407-1.38 3.98-2.64 7.998-4.258 11.88-.887 2.127-2.82 3.88-3.548 6.048-1.42 4.432-2.13 9.082-3.55 13.495-1.142 3.526-2.897 6.836-4.83 11.25-.61-2.365-1.004-3.92-1.398-5.478.414.117.867.236 1.28.354.928-2.148 2.09-4.256 2.702-6.502 2.287-8.353 1.557-17.317 6.446-25.296 3.687-6.028 4.416-13.85 8.043-19.898 6.092-10.205 12.893-20.095 20.345-29.374 9.837-12.214 21.487-22.695 34.676-31.344 2.82-1.852 5.717-3.586 8.457-5.536 1.932-1.38 3.686-3.133 4.613.433 10.073-5.477 19.772-10.737 29.49-16.017 8.872-4.807 17.605-10.047 26.733-14.342 5.203-2.423 11.117-3.35 16.716-4.807 2.582-.67 5.263-.964 7.885-1.516 1.34-.295 2.682-.768 4.634-1.36-1.065-.827-1.48-1.437-1.853-1.418-4.534.335-9.127.414-13.582 1.24-4.672.868-3.336 3.68-7.95 4.863-1.91.472-2.783 1.453-4.715 1.73-.394.058-5.07 1.333-5.227 1.59-2.11 3.427-8.015 4.31-11.15 5.274-1.95.59-71.618 40.595-74.594 40.595-2.11-3.862 37.453-24.08 38.143-28.906-6.683 2.423-31.248 21.763-37.4 22.452-7.273.77 40.42-35.226 34.093-33.65-.276-.434-.532-.907-.828-1.34 5.204-3.113 10.39-6.226 15.613-9.3.907-.53 2.425-.63 2.8-1.358 3.252-5.832 9.52-5.22 14.587-7.132 5.047-1.93 10.113-3.9 14.943-6.462-5.894-2.266-48.14 23.478-53.72 23.32 1.754-1.22 7.592-6.072 9.347-7.294-.158-.276 2.512-2.258 2.354-2.534-2.07.69-3.197.574-5.248 1.264-.216-.394-6.54 3.116-6.776 2.722 2.13-1.24 3.12-4.307 5.288-5.47 2.09-1.142 41.836-18.746 44.004-19.83a43.586 43.586 0 0 1-.57-1.437c-2.702.748-5.502 1.26-8.123 2.265-6.21 2.345-12.5 4.53-18.434 7.506-8.595 4.275-16.855 9.18-25.292 13.83-4.002 2.207-8.043 4.315-12.005 6.56-7.69 4.237-13.348 10.58-18.848 17.357-5.184 6.384-11.374 11.88-16.855 17.968-4.573 5.064 31.24-35.234 26.784-30.073-2.64 3.034 6.93-4.292 4.268-1.238-.966 1.102 3.566-3.11 2.778-1.85.315.237 8.778-5.06 9.074-4.804 1.912-2.187-62.005 62.69-60.053 60.503-5.776 10.598 67.93-75.246 61.492-56.99 10.126-7.41 15.84-4.358-2.768 8.79.473-1.063-75.028 78.144-74.417 77.2 4.08-6.365 8.26-12.67 12.262-19.052 2.464-3.96 4.415-8.216 6.978-12.097 2.504-3.762 35.322-45 38.318-48.407 4.318-4.945-21.226 27.88-16.594 23.23 3.705-3.723 7.806-7.112 12.044-10.953-.236 1.556-.394 2.777-.57 4 .413.255.846.472 1.26.748 1.676-2.522 3.37-5.044 5.047-7.566-.807 8.157 28.85-20.302 23.626-14.806.217.434 1.89 1.398 2.088 1.832 1.104-.394 13.43-9.366 4.985-.848-4.743 9.77-5.59 3.32-.248 2.255-1.222 1.95-.055 9.386-1.06 10.234-3.983 3.505-36.98 24.914-38.006 30.49-.158.71-1.143 1.753-1.754 1.773-7.176.177-8.36 5.595-9.818 10.875-4.04-.768-4.652-.02-4.534 6.048-.847-.61-1.478-1.044-2.13-1.517-6.7 12.312-13.424 24.606-20.54 37.667-1.124-2.285-1.834-3.723-2.878-5.91-1.893 4.61-5.56 7.546-4.93 12.747.277 2.108-1.576 4.452-2.6 7.033-.514-.374-1.085-.768-1.992-1.4-.67 2.05-1.3 4.02-1.932 6.03-.158-.178-.296-.316-.434-.493-1.084 1.025-2.838 1.872-3.114 3.074-1.518 6.52-2.72 13.12-3.943 19.72-.887 4.985-1.814 10.008-2.445 15.032-.335 2.837-.04 5.753-.04 8.63-.53.04-1.083.058-1.596.078-.138-1.95-.276-3.92-.394-5.89-.237-.02-.473-.02-.75-.04-.748 2.778-1.497 5.536-2.207 8.235 1.597.768 2.878 1.38 4.534 2.147.728-1.773 1.438-3.546 2.128-5.26 3.667.138-1.814 6.58 4.1 4.965-.276 1.93-.788 3.782-.788 5.615.217 11.525 1.025 23.03 2.168 34.536.414 4.255.907 8.53 1.735 12.707.454 2.305 1.952 4.373 2.543 6.678.513 2.11.434 4.414.63 6.64-.512.06-1.044.138-1.576.237-2.82-11.486-5.658-22.912-8.497-34.378-.394-.02-.768-.02-1.163-.02 0 3.427-.433 6.953.1 10.303 1.438 8.786 2.62 17.71 5.184 26.182 4.89 15.997 11 31.482 23.557 43.382 1.026.946 4.082 2.423.967 4.69-.098.078.79 1.83 1.46 2.52 2.266 2.266 4.632 4.413 6.978 6.58-.395.414-.75.828-1.124 1.222-1.42-1.282-2.838-2.582-4.1-3.705-6.9 1.28-9.403-3.9-12.32-8.47-.296.196-.572.373-.868.55.986 1.95 1.755 4.04 2.957 5.812 6.15 9.063 14.015 16.628 22.078 23.957.868.788 2.13 1.162 3.095 1.91 4.396 3.37 8.753 6.758 13.13 10.127-.257.395-.474.75-.75 1.104-4.573-2.226-9.147-4.53-13.8-6.66-1.793-.806-3.784-1.14-5.696-1.673-8.142-2.304-12.873-8.648-17.565-14.992-5.323-7.112-10.37-14.362-15.81-21.986-4.81 5.063 2.7 6.718 2.523 10.54-.966-.256-1.853-.552-3.39-1.024 4.02 8.944 9.896 15.82 16.243 22.4-.394.354-.75.63-1.143.965-2.957-3.113-6.328-5.97-8.773-9.437-4.317-6.127-7.964-12.727-12.123-18.952-1.125-1.695-3.096-2.837-4.634-4.275-.513-.454-1.104-1.046-1.32-1.676-1.105-3.054-2.09-6.206-3.313-9.81-2.878 6.008 9.995 36.663 16.855 40.425-.453-2.128-.828-3.803-1.183-5.477.276-.197.552-.375.828-.532 6.585 13.437 12.42 27.405 25.115 36.723.434-.374 1.223-.965 2.208-1.714 1.5 2.935 2.88 5.614 4.258 8.293 9.483-1.497 16.087 4.59 23.44 8.748a3516.84 3516.84 0 0 0 11.73 6.6c.295-.394.55-.788.827-1.162a1013.57 1013.57 0 0 0-9.993-8.668 5.37 5.37 0 0 0 .57-.59c4.81 2.185 9.68 4.254 14.392 6.638 3.232 1.615 5.677 3.92 10.152 3.448 3.844-.454 8.043 2.127 13.267 3.782-1.164-2.54-1.933-4.176-3.175-6.875 4.573 2.64 8.34 4.767 12.104 6.934 1.734.985 3.547 2.09 3.843-.67 3.686.867 8.063.946 11.434 2.818 5.224 2.915 10.093 6.718 14.568 10.737 7.708 6.934 13.346 15.445 17.407 24.98.256.572.67 1.143 1.144 1.93.808-.708 1.4-1.22 2.148-1.93 1.144 7.842 3.233 15.308.414 22.952-2.05 5.635-4.317 10.934-8.89 15.012-.79.69-1.834 1.537-1.992 2.443-1.143 6.284-6.702 8.392-10.566 12.253-4.692 4.748-10.626 5.044-16.027 7.27-1.124.473-2.898-.374-4.278-.867-1.084-.374-8.24.65-9.226 1.34-1.5 1.083-3.076 2.482-4.77 2.7-9.82 1.16-19.774 3.13-29.453-.257-5.875-2.05-11.69-4.77-17.013-8-8.635-5.24-17.29-10.6-25.095-16.903-6.96-5.635-15.693-8.984-21.134-16.51-10.232-14.125-24.977-23.542-37.022-35.796-10.31-10.44-21.232-20.33-29.275-32.802-5.402-8.353-11.592-16.233-16.58-24.843-4.77-8.175-8.496-17.02-12.557-25.63-2.267-4.946-4.475-9.87-6.31-14.954-3.074-8.55-5.814-17.217-9.027-26.753 1.892 1.478 2.838 2.227 3.824 2.995.296-.197.552-.355.828-.512-1.636-3.27-3.272-6.56-4.89-9.85-.433-.946-1.123-1.912-1.28-2.877-3.55-19.366-3.49-38.95-3.39-58.532 0-.235.216-.452.71-1.457.59 1.36 1.22 2.266 1.36 3.27 1.694 11.605.63 23.425 3.567 34.93 1.36 5.38 1.143 11.17 2.287 16.668 1.597 7.723 3.49 15.446 5.874 22.952 1.32 4.157 4.18 7.822 5.914 11.9 1.34 3.112 2.05 6.5 3.056 9.79.355-.038.69-.078 1.025-.117.198-.65.652-1.4.514-1.95-2.662-9.693-5.264-19.445-8.103-29.1-2.187-7.426-5.085-14.637-6.898-22.103-1.42-5.99-2.287-12.195-2.307-18.342-.118-17.238 0-34.497.71-51.715.355-8.02 2.11-15.997 3.548-23.917.395-2.167 2.15-4.04 2.74-6.186 1.578-5.792 2.84-11.703 4.26-17.554.452-1.91 1.714-3.33 2.76-4.886 2.64-3.96 5.637-8.314 4.12-13.948-.474-1.793.51-4.216 1.3-6.147 4.692-11.742 9.462-23.444 14.154-35.127.848-2.108 1.538-4.275 2.287-6.422.493.138 1.025.256 1.498.394-.394 2.344-.473 4.787-1.28 6.954-1.184 3.113 49.1-68.3 47.603-65.265-1.183 2.385 70.443-66.482 45.917-37.758 22.223-3.37 28.255-23.1 59.73-32.35 99.613-7.25 49.785 12.598 64.77 9.423zm175.836 76.05c.296-.297.572-.573.868-.85-1.025-1.456-1.794-3.17-3.075-4.293-3.924-3.35-8.3-6.226-12.007-9.772-8.694-8.196-18.452-14.795-29.255-19.76-2.227-1.025-5.342-2.502-7.057-1.694-2.444 1.162-4 .55-5.894-.296-6.525-2.896-12.794-6.265-19.516-8.61-7.688-2.698-15.712-4.452-23.518-6.717-9.896-2.877-19.99-3.94-30.26-3.428-3.785.177-7.55.57-11.316.867.493 1.004 1.045 1.438 1.577 1.477 6.052.433 12.144.492 18.156 1.28 3.745.492 8.102 1.103 10.94 3.31 3.706 2.856 7.452 3.92 11.77 4.314 5.558.532 11.492.276 16.637 2.088 11.434 4.06 23.874 5.22 34.282 12.294 7.51 5.083 15.553 9.377 23.32 14.066 4.83 2.896 9.64 5.812 14.37 8.846 3.333 2.187 6.625 4.57 9.976 6.876zm-241.41-29.435c.176.473.393.985.55 1.458 9.247-4.787 18.473-9.555 27.698-14.342-10.9 1.162-19.536 7.132-28.25 12.884zM518.18 554.2c4.554-1.122 19.34-16.588 20.01-20.488-9.365 4.53-11.947 15.19-20.01 20.49zM217.55 269.09c.55.315 1.103.61 1.655.906 4.08-8 10.212-14.835 12.99-23.543-.393-.215-.787-.412-1.142-.65-4.515 7.783-8.99 15.526-13.504 23.288zm317.918-68.974c-.394.434-.828.867-1.222 1.32 5.855 5.635 11.71 11.25 17.585 16.884.316-.335.612-.65.907-.985-5.263-6.225-10.704-12.293-17.27-17.22zM227.208 423.78c-.55.256-1.143.473-1.714.73 1.655 3.96 3.292 7.938 4.948 11.918.61-.276 1.222-.512 1.833-.768-1.676-3.96-3.37-7.94-5.066-11.88zm22.04-169.744c.355.118.69.276 1.045.414 2.01-3.92 4.04-7.86 6.052-11.78-3.213 3.368-7.038 6.382-7.097 11.366zm298.758 290.688c.414.414.828.828 1.222 1.242 3.076-2.975 6.19-5.97 9.285-8.964-.394-.394-.71-.75-1.084-1.123-3.135 2.974-6.29 5.89-9.424 8.844zm23.38-22.95c-.414-.316-.768-.573-1.182-.888a1915.813 1915.813 0 0 1-9.58 12.53c.334.276.61.493.925.75 3.292-4.14 6.544-8.276 9.836-12.393zm-394.013-215.57c-.513-.236-1.025-.472-1.538-.69a1743.29 1743.29 0 0 0-2.82 9.536c.494.158 1.026.315 1.52.473.945-3.113 1.872-6.226 2.838-9.32zM538.17 552.9c.393.434.71.887 1.064 1.3 2.543-2.265 5.027-4.53 7.57-6.816-.276-.295-.513-.59-.77-.886-2.64 2.127-5.243 4.275-7.865 6.402zm32.645-356.154l-1.913 1.91a784.56 784.56 0 0 1 6.605 5.34c.335-.335.69-.67 1.064-.985a586.002 586.002 0 0 0-5.755-6.264zm-8.26 33.235a42.647 42.647 0 0 1 1.695-1.14c-1.774-2.326-3.49-4.67-5.244-6.995-.394.276-.828.57-1.222.827 1.597 2.443 3.174 4.866 4.77 7.31z"/><path d="M539.253 511.055c-.69-.63-1.222-1.142-2.424-2.167a7692.18 7692.18 0 0 0-4.417 4.71c-.118-.12-.217-.198-.316-.316 1.932-2.76 3.647-5.714 5.875-8.216 12.676-14.204 21.803-30.635 29.827-47.696 3.25-6.915 6.543-13.928 8.396-21.277 6.447-25.434 9.936-51.3 6.94-77.582-1.538-13.337-3.805-26.615-5.717-39.894-.198-1.32-.16-2.66-.238-3.98.355-.06.65-.098.986-.157.65 3.466 1.143 6.973 1.912 10.42.848 3.645 1.893 7.25 2.918 11.15.828.08 1.97.218 4.2.455-1.125 2.462-1.992 4.472-2.88 6.442-.414-.138-.867-.276-1.28-.414a1407.09 1407.09 0 0 1 3.232 16.332c.178.926 0 1.89.118 2.817.395 3.566 1.045 7.053 1.183 10.64.1 2.698-.492 5.436-.63 8.175-.414 6.915-.75 13.81-1.084 20.725 0 .394.355.808.296 1.163-1.34 6.66-2.72 13.357-4.2 20.016-1.576 7.172-2.818 14.422-5.026 21.396-2.03 6.462-4.968 12.668-7.767 18.834-2.643 5.812-5.462 11.545-8.517 17.14-1.854 3.39-4.298 6.423-6.506 9.634-4.08 5.99-8.102 11.978-12.203 18.007-.828 1.163-1.734 2.325-2.68 3.645zM350.32 106.812c6.8-5.536 31.356-26.53 56.236-24.783-23.243 8.86 18.42-3.62 22.5-2.81-5.328 2.016 5.182 4.145 13.858 3.063 19.73-.47-.762 2.665 6.63 4.064 1.736.63 23.53-.273 55.278 16.62-24.31-5.993-29.424-8.61-42.895-7.704-9.114.445-45.94-5.663-53.952-4.605-9.824 1.127 1.448.1-6.042 1.157-5.652 1.068-47.947 14.544-51.614 14.997zM220.15 188.63a766.026 766.026 0 0 0 3.47-5.025c-.275-.256-.57-.473-.847-.73-3.568 3.94-7.116 7.882-10.665 11.84-.197-.117-.414-.255-.63-.373.433-.886.67-1.91 1.3-2.6 3.884-4.354 7.827-8.65 11.77-12.905 4.277-4.57 8.535-9.1 12.97-13.514 2.9-2.877 6.15-5.438 9.128-8.255 1.814-1.675 3.332-3.704 5.204-5.32 2.7-2.364 5.46-4.708 8.477-6.678 8.103-5.36 16.323-10.62 24.642-15.682 2.05-1.26 4.652-1.616 7.372-1.773-4.75 2.955-9.6 5.772-14.233 8.885-6.88 4.63-13.92 9.102-20.365 14.362-4.77 3.92-8.674 8.964-12.972 13.515-6.9 7.27-13.78 14.5-20.7 21.73-1.024 1.064-2.226 1.91-3.39 2.837a2.91 2.91 0 0 0-.532-.315z"/><path d="M394.204 123.392c-3.9-1.832-48.595 15.348-47.63 16.668-4.1-.985 30.778-32.218 4.874-31.653 36.4-17.72 101.305-30.53 147.536-5.38-6.486 6.56-68.648 2.505-83.933 14.155-1.93-6.5-18.145 7.372-20.846 6.21zM210.748 178.01c.098-1.24.217-2.502.355-3.98-1.085-.295-2.01-.55-4.002-1.083 2.978-4 5.64-7.565 8.26-11.13.415.215.81.412 1.203.65.138 1.102.276 2.225.513 4.392 2.82-3.705 5.165-6.798 7.49-9.85.277.196.514.393.79.59-4.988 6.6-4.79 16.785-14.608 20.41z"/><path d="M380.052 126.624c30.088-18.954 78.552-37.674 117.31-23.516 30.768 11.24 52.815 48.723 73.217 83.97-46.59-3.763-115.496-41.197-190.528-60.454zM592.243 340.84c.73 10.145 1.42 20.25 2.15 30.397-.652.06-1.302.12-1.953.178-.768-10.107-1.557-20.214-2.306-30.32.71-.1 1.42-.177 2.11-.256zM368.673 87.444c-3.894.824-.414 7.81-5.175 11.186-9.9 7.018-25.983 11.82-55.818 14.732 11.382-15.794 35.018-25.01 60.993-25.918zM567.877 283.706c3.194 8.55 6.388 17.12 9.56 25.67-.472.178-.984.375-1.457.552-3.115-8.59-6.21-17.18-9.325-25.77.414-.157.808-.314 1.222-.452zM362.253 85.16c.414-2.955 1.242-4.275 4-4.058 2.11.158 4.26-.57 6.428-.69.79-.02 1.578.59 2.367.926-.414.75-.828 1.498-1.282 2.187-.138.177-.473.296-.73.335-3.45.414-6.92.828-10.782 1.3zM423.28 77.042c-4.338.65-8.695 1.26-13.032 1.91-.08-.432-.157-.885-.256-1.32 3.765-3.446 8.674-1.338 12.912-2.62.158.67.276 1.34.375 2.03zM206.57 205.12c-3.412 5.062-6.803 10.125-10.193 15.188-.414-.276-.848-.552-1.223-.808 3.39-5.083 6.742-10.165 10.153-15.268.394.296.808.61 1.262.887zM534.148 516.394c-4.377 3.822-8.753 7.664-13.11 11.486-.394-.433-.75-.867-1.143-1.3 4.416-3.822 8.83-7.664 13.247-11.466.316.414.65.867 1.006 1.28zM495.588 555.796c-4.652 3.015-9.344 6.01-13.997 8.984-.294-.414-.57-.867-.886-1.3 4.613-3.093 9.226-6.186 13.84-9.3.334.533.69 1.084 1.044 1.616zM226.4 199.878c3.864-4.53 7.728-9.082 11.592-13.633.394.335.808.67 1.202 1.024-3.844 4.57-7.708 9.12-11.552 13.692-.414-.355-.828-.71-1.242-1.084zM522.95 530.894c-3.745 2.522-7.51 5.024-11.374 7.625 1.084-3.784 3.016-5.38 10.586-8.57.296.314.512.65.788.944zM338.55 179.9c-3.213 2.01-6.406 4.02-9.62 6.03-.276-.178-.512-.335-.788-.493.473-1.615.985-3.23 1.636-5.437a350.938 350.938 0 0 1 2.07 2.305c1.892-1.3 3.745-2.62 5.638-3.94l1.064 1.536z"/><path d="M391.363 112.977c4.968-.61 9.916-1.222 14.903-1.832.06.354.08.73.138 1.064-4.987.59-9.955 1.2-14.943 1.79-.018-.334-.058-.688-.097-1.023zM451.607 612.476c-3.548 1.32-7.057 2.7-10.566 4.02a25.596 25.596 0 0 1-.59-1.577c3.49-1.262 6.998-2.562 10.487-3.803.217.453.434.906.67 1.36zM264.664 161.973a1879.534 1879.534 0 0 0-8.555 11.31c-.494-.415-.948-.79-1.44-1.203 2.68-3.9 6.998-6.403 10.053-10.008l-.06-.1zM561.273 268.18c1.735 3.764 3.49 7.508 5.185 11.27-.355.158-.71.355-1.065.513-1.833-3.665-3.627-7.35-5.42-11.033a27.92 27.92 0 0 1 1.3-.75zM569.494 140.44c2.84 1.91 5.697 3.783 8.536 5.674-.296.433-.572.906-.868 1.38-2.878-1.892-5.756-3.744-8.634-5.635.315-.494.63-.947.966-1.42zM221.985 227.46c0-5.044 1.064-6.443 5.638-8.02-2.01 2.838-3.845 5.42-5.638 8.02z"/><path d="M264.723 162.092c2.366-1.695 4.732-3.35 7.078-5.024-2.543 6.01-3.725 6.64-7.136 4.925 0-.02.06.1.06.1zM200.674 251.85c-1.616 3.092-3.213 6.205-4.83 9.298-.473-.217-.906-.433-1.36-.65 1.597-3.113 3.214-6.225 4.83-9.338.453.256.887.473 1.36.69zM422.057 70.66c3.016-.513 6.032-1.025 9.01-1.557.078.433.137.906.216 1.34-2.997.453-6.033.906-9.01 1.36-.078-.375-.137-.75-.216-1.144zM247.592 444.21c1.597 2.502 3.214 5.004 4.83 7.526-.414.276-.848.512-1.262.788a1637.11 1637.11 0 0 1-4.87-7.605c.415-.257.85-.454 1.302-.71zM185.18 255.18c1.695-3.055 3.39-6.11 5.105-9.123.276.158.552.296.828.414-1.537 3.114-3.075 6.207-4.613 9.32-.453-.178-.887-.414-1.32-.61zM492.414 552.408c2.8-2.03 5.6-4.078 8.378-6.107.336.414.592.867.907 1.242-2.86 1.95-5.737 3.822-8.596 5.772a9.994 9.994 0 0 1-.69-.906z"/><path d="M659.247 219.595c-.29-.008-9.71 8.337-20.94 18.55-11.23 10.21-21.087 18.84-21.907 19.18-.818.34-5.737 4.354-10.93 8.92-36.237 31.852-58.088 50.95-64.382 56.264-9.066 7.654-9.028 7.62-11.67 11.118-1.45 1.924-4.086 3.728-7.945 5.44-3.178 1.406-6.653 3.3-7.726 4.205-4.82 4.078 5.26-7.31 14.027-15.846 8.473-8.255 9.006-8.915 4.135-5.14-3.073 2.383-7.086 5.048-8.92 5.924-6.162 2.944-19.748 14.098-37.216 30.55-16.36 15.41-21.72 21.638-15.767 18.315 1.343-.75 2.682-1.106 2.975-.794.294.313 2.65-.978 5.234-2.87 7.424-5.433 10.557-4.814 6.783 1.342-2.214 3.61-93.797 89.258-143.716 134.405-52.137 47.152-66.622 60.608-69.843 64.88-5.37 7.126-25.292 26.735-33.582 33.06-6 4.574-8.262 6.87-11.67 11.844-6.107 8.91-66.083 65.376-81.075 76.325-5.622 4.11-13.223 9.894-16.887 12.857-3.667 2.96-9.704 6.776-13.417 8.478-3.713 1.702-9.297 4.827-12.404 6.95-3.11 2.12-6.895 4.368-8.412 4.996-2.74 1.128-23.24 12.688-27.302 15.394-1.167.778-3.557 2.2-5.313 3.155-6.31 3.447-.17-1.284 11.2-8.63 13.563-8.76 17.195-11.87 16.33-13.982-.335-.82.03-2.098.816-2.836.785-.74 1.77-2.053 2.19-2.92.66-1.37.42-1.527-1.833-1.2-2.167.315-2.74.803-3.47 2.984-.74 2.193-2.02 3.26-8.045 6.72-7.74 4.444-10.518 4.675-4.476.373 2.193-1.56 3.446-2.94 3.055-3.354-.63-.67-10.92 5.45-19.91 11.845-3.478 2.472-3.923 2.583-2.795.695.737-1.235 2.435-3.39 3.774-4.79 2.27-2.376 2.273-2.467.037-1.36-1.32.657-8.346 5.73-15.616 11.276-20.865 15.92-22.168 16.862-21.097 15.262.556-.832.534-1.64-.044-1.795-.58-.155-.386-.91.43-1.68 1.02-.956 1.028-1.616.03-2.097-1.664-.802.103-3.023 2-2.516.76.204 3.87-2.44 8.612-7.327 5.89-6.06 7.333-8.02 6.974-9.46-.25-1 .005-2.757.565-3.91.882-1.816.565-1.793-2.385.156-4.89 3.23-5.87 3.595-6.137 2.285-.13-.64-.772-.664-1.422-.05-.652.612-.672 1.252-.044 1.42.625.166.662.755.076 1.306-.585.552-1.718.685-2.517.3-.836-.4-2.523.216-3.962 1.45-2.19 1.875 0-.81 10.567-12.983 3.673-4.23 3.107-4.865-1.42-1.593-2.19 1.582-4.985 3.454-6.218 4.163-2.11 1.217-2.125 1.118-.24-1.72 1.1-1.657 2.57-3.265 3.265-3.577.697-.31.76-.7.138-.865-.62-.166-2.198.665-3.506 1.848-2.275 2.057-2.332 2.048-1.288-.2.603-1.292 1.78-2.683 2.614-3.088.835-.408 2.564-2.6 3.843-4.872l2.322-4.133-2.792 2.535c-2.883 2.617-4.787 2.37-3.142-.406.513-.87 3.048-3.95 5.637-6.847 6.096-6.827 7.506-8.893 6.68-9.77-.372-.396-1.458.017-2.415.918-3.346 3.15-7.34 5.216-6.924 3.58.218-.843 1.133-2.235 2.032-3.093.9-.858 1.364-1.852 1.027-2.21-.854-.908-5.583 2.176-10.052 6.552-6.26 6.128-5.48 2.837 1.247-5.277 3.468-4.18 6.873-8.977 7.57-10.658.696-1.68 2.262-4.64 3.477-6.574 2.644-4.204 1.792-9.324-1.274-7.653-.974.53-2.822 2.274-4.108 3.874l-2.338 2.91 1.002-3.135c.552-1.725 2.032-4.112 3.29-5.305 3.224-3.06 4.935-6.08 3.64-6.426-.683-.184.41-1.38 2.905-3.166 2.286-1.64 3.37-2.782 2.527-2.664-1.542.216 12.833-20.005 20.444-28.76 4.062-4.673 4.78-7.063 3.196-10.654-1.074-2.438-3.134-1.164-12.884 7.992-4.837 4.54-10.495 9.42-12.57 10.847l-3.773 2.59 4.98-6.445c2.736-3.544 5.85-7.83 6.914-9.52 3.214-5.11 15.533-18.042 28.12-29.527 34.43-31.4 60.604-53.96 81.554-70.285 5.983-4.663 11.353-9.48 12.724-11.414 3.948-5.572 67.704-66.588 69.708-66.713.95-.06 4.83-2.648 8.624-5.753 3.795-3.102 7.945-5.855 9.22-6.112 7.23-1.464 15.91-7.897 30.803-22.838 6.676-6.693 8.02-7.7 9.84-7.36 2.24.417 3.1-.28 32.5-26.28 6.838-6.046 17.298-15.065 23.245-20.038 9.82-8.215 22.805-20.305 36.048-33.565 5.364-5.37 11.022-9.566 15.04-11.153 1.382-.547 11.01-8.755 21.392-18.24 11.186-10.22 19.33-17.126 19.99-16.948 1.3.347 11.584-7.093 25.65-18.562 5.462-4.45 12.804-10.18 16.317-12.73 11.67-8.477 31.318-26.106 33.727-30.263 1.203-2.076 1.81-3.877 1.352-4-.46-.125-3.318 1.603-6.35 3.838-5.22 3.85-5.38 3.896-2.983.885l2.53-3.18-4.754 2.647c-2.613 1.454-4.84 2.202-4.953 1.66-.275-1.353-6.084 2.49-7.037 4.657-.67 1.528-.457 1.614 1.643.657 1.444-.66-1.25 2.072-6.715 6.8-6.733 5.832-9.59 7.82-10.91 7.59-1.1-.198-3.873 1.335-7.263 4.015-8.027 6.348-10.942 8.228-11.152 7.202-.317-1.555 8.017-9.24 26.546-24.48 9.78-8.047 17.907-15.09 18.06-15.657.507-1.885 6.032-6.618 7.862-6.73.998-.064 5.314-3.17 9.662-6.96 4.32-3.765 9.818-8.062 12.215-9.548 2.398-1.485 7.19-5.302 10.654-8.48 7.777-7.137 27.053-22.158 28.385-22.116.54.015-1.602 2.51-4.755 5.546-3.157 3.035-7.386 7.17-9.398 9.188-2.014 2.02-3.734 3.324-3.82 2.898-.317-1.56-8.94 4.605-13.21 9.444-3.833 4.343-4.114 4.952-2.206 4.75 3.248-.345 1.263 1.167-5.66 4.31-6.688 3.04-9.946 5.754-10.296 8.584-.157 1.256-1.995 3.305-5.514 6.14l-5.28 4.256 4.472-2.582c4.072-2.347 4.417-2.374 3.858-.298-.495 1.834 2.686-.94 16.297-14.217 9.302-9.075 21.666-21.348 27.475-27.276 28.365-28.938 61.455-59.693 60.697-56.414-.25 1.087 6.282-4.72 18.466-16.414 15.588-14.964 19.317-18.185 21.515-18.576 3.83-.686 4.774.97 2.118 3.72-1.25 1.293-11.91 11.583-23.685 22.867-11.776 11.286-22.558 21.937-23.963 23.675-1.402 1.736-6.67 7.36-11.704 12.498-18.944 19.336-24.78 25.71-23.778 25.98.564.15 1.833-.482 2.815-1.407.983-.925 2.035-1.418 2.337-1.097.302.322-.792 1.634-2.434 2.914-2.532 1.977-2.658 2.264-.815 1.893 1.576-.315 5.36-3.72 13.826-12.443 14.482-14.92 21.844-21.77 23.8-22.148.83-.162 6.89-5.464 13.467-11.787 10.53-10.123 11.908-11.212 11.535-9.12-.42 2.343.806 3.137 2.64 1.712.516-.403 2.386-2 4.154-3.548 2.125-1.86 3.45-2.446 3.894-1.728.397.637 1.203.43 1.95-.496.698-.87 3.697-3.953 6.662-6.852 3.383-3.313 5.41-5.974 5.446-7.153.048-1.56-.18-1.678-1.33-.685-.808.696-1.15.68-.818-.04.832-1.8-1.24-2.03-3.188-.358-1.558 1.336-1.584 1.275-.395-.873 3.42-6.17 11.35-10.772 11.35-6.587.002 1.45.664 1.004 3.558-2.393 3.64-4.275 5.168-8.526 1.99-5.537-2.796 2.63-2.224-.228.793-3.964 1.852-2.29 4.076-3.986 6.34-4.836 2.68-1.005 3.964-2.092 5.527-4.656 2-3.285 6.12-6.858 17.494-15.166 3.148-2.302 4.795-3.192 3.657-1.98-1.712 1.827-1.737 2.128-.147 1.76 1.264-.29 2.764-1.705 4.39-4.137 2.554-3.825 19.93-20.574 18.676-18.005-.39.794-.553 2.14-.362 2.987.19.846-.374 2.227-1.254 3.067-.88.84-1.798 2.288-2.04 3.22-.782 3.044 2.485.795 5.96-4.098 1.75-2.467 4.053-5.536 5.116-6.83C764.3 9.664 769.56 3.57 771.453 1.85c1.887-1.72 2.093-1.725 1.33-.054-5.17 11.337-18.004 28.827-22.568 30.753-2.848 1.205-8.82 6.898-12.866 12.27-1.918 2.547-4.32 4.717-6.405 5.79-2.646 1.364-3.578 2.405-4.507 5.044-.93 2.646-2.7 4.616-8.65 9.647-4.114 3.478-7.783 6.316-8.154 6.304-.37-.012-.757.615-.856 1.392-.097.774-1.178 2.778-2.4 4.45-2.048 2.8-2.305 2.89-3.265 1.126-1.002-1.84-1.316-1.662-7.974 4.46-3.814 3.505-10.677 9.652-15.255 13.666-14.886 13.04-20.396 18.21-20.728 19.45-.18.67-5.598 6.23-12.036 12.357-6.44 6.126-11.46 11.405-11.155 11.73 1.178 1.252 20.164-15.665 48.8-43.483 6.544-6.358 13.25-12.435 14.898-13.504 2.857-1.854 2.9-1.846.92.17-1.47 1.496-1.638 2.13-.57 2.16.834.026 5.29-3.315 9.904-7.424 4.615-4.112 8.794-7.46 9.285-7.445.49.013.1.78-.872 1.695-1.69 1.598-1.626 1.633 1.533.775 2.648-.72 4.632-2.307 10.072-8.05 4.255-4.49 6.86-6.74 7-6.043.126.613-1.477 2.726-3.564 4.7-4.308 4.078-5.873 7.47-2.88 6.246.98-.402 3.364-2.558 5.298-4.795 2.144-2.478 4.12-4.047 5.067-4.016 1.106.033 2.355-1.123 4.336-4 1.53-2.226 5.372-6.185 8.54-8.798l5.757-4.756-1.51 3.4c-.83 1.866-4.175 6.048-7.435 9.295-3.258 3.243-5.83 6.455-5.712 7.134.3 1.736-8.665 13.218-10.28 13.172-.778-.025-.427-1.226.878-3.016 1.194-1.637 1.807-3.074 1.36-3.193-1.285-.345-12.76 11.44-12.237 12.568.257.553 1.153.358 1.993-.43.838-.79 1.795-1.147 2.125-.796.33.35-5.775 6.643-13.564 13.985-14.204 13.383-19.764 19.54-18.686 20.686.777.826 8.552-4.93 15.376-11.386 13.505-12.777 25.812-25.285 24.64-25.046-1.864.382 5.447-7.288 9.846-10.324 3.272-2.26 12.456-12.335 24.375-26.734 2.67-3.23 3.61-3.92 4.043-2.983.764 1.654-3.512 10.233-6.62 13.277-1.38 1.354-2.906 3.366-3.387 4.468-1.28 2.945 4.997-2.92 6.557-6.127.663-1.36 1.902-2.758 2.76-3.11 1.224-.5 1.362.065.65 2.637-.497 1.802-1.662 4.392-2.59 5.76-.927 1.368-1.877 3.936-2.112 5.705l-.424 3.217 4-4.55c2.203-2.502 5.163-5.958 6.58-7.68 1.57-1.905 1.14-.833-1.1 2.746-6.414 10.242-5.333 9.892 7.832-2.542 11.53-10.89 8.476-6.05-4.655 7.373-6.666 6.816-12.455 13.39-12.868 14.613-.413 1.22-2.284 3.89-4.16 5.93-4.097 4.456-5.038 6.103-3.694 6.465 1.52.407-2.814 6.713-11.267 16.397-4.175 4.78-7.854 9.45-8.177 10.38-.324.93-3.853 5.43-7.843 10-4.778 5.473-7.32 9.097-7.443 10.62-.123 1.538-.99 2.76-2.575 3.646-2.26 1.264-3.697 3.542-6.758 10.722-.738 1.73-4.246 6.554-7.797 10.727-5.245 6.165-6.39 8.052-6.1 10.05.346 2.39-.24 3.01-18.83 20.017-10.556 9.657-18.958 17.804-18.673 18.107.285.303.914.177 1.398-.278.544-.512.844-.333.786.47-.083 1.293-7.96 10.588-8.94 10.56zm-615.53 509.91c-.726.285-1.334.905-1.348 1.377-.014.474.58.24 1.322-.52.82-.837.828-1.174.026-.857zm617.28-585.172c2.234-4.116 10.617-12.927 11.958-12.567 1.138.306 11.88-9.763 14.577-13.67 2.116-3.063 1.166-4.533-1.678-2.6-3.814 2.594 6.08-9.77 13.478-16.848 4.2-4.015 6.803-7.07 6.396-7.504-.884-.94-61.63 56.117-62.228 58.448-.31 1.205.47 1.054 2.91-.575 6.763-4.512 6.17-3.84-13.163 14.962-5.513 5.36-6.944 7.935-4.088 7.35 1.16-.237 1.315.1.666 1.44-1.896 3.924 2.356.65 15.597-12.007 8.053-7.698 14.562-14.567 15.573-16.43zm-28.04 23.522c1.088-1.65 2.657-3.172 3.487-3.38.855-.213-.002 1.088-1.98 3.004-3.34 3.24-3.404 3.253-1.508.375zm31.626-33.894c-1.486.7-.583-.288 2.382-2.6 2.628-2.05 5.026-3.735 5.332-3.75 1.072-.042-5.348 5.243-7.714 6.35zm51.055-44.55c-.51-1.247-1.513-.646-6.02 3.592-2.973 2.797-5.76 5.813-6.187 6.702-1.477 3.065 2.13 1.21 7.58-3.892 3.987-3.736 5.092-5.27 4.628-6.403zm-93.692 59.838c5.715-5.402 7.586-9.21 2.953-6.024-8.888 6.12-10.766 7.85-9.29 8.563 1.335.642.97 1.817-.946 3.046-.425.273-1.105 1.183-1.51 2.022-.624 1.29-.484 1.472.904 1.19.952-.195 1.906-1.123 2.274-2.215.35-1.03 2.874-3.994 5.614-6.582zm38.832-37.67l1.585-2.717-3.335 2.087c-3.655 2.285-12.38 11.348-12.943 13.443-.196.724.098 1.437.655 1.586 1.203.323 11.776-10.523 14.038-14.4zm4.695-6.012c-.38-.403-1.163-.286-1.744.26-.58.545-.95 1.513-.82 2.15.13.636.915.52 1.744-.26.83-.78 1.196-1.75.82-2.15zm-54.178 49.504c-.402-.427-.867-.263-1.036.366-.168.627-.17 1.286-.003 1.463.166.176.633.012 1.035-.366.403-.38.404-1.037.003-1.464zm35.75-35.83c1.61-2.11 1.87-3.006.816-2.802-3.103.6-13.814 12.25-11.763 12.8 1.155.31 7.504-5.49 10.95-10zm-120.59 80.265c-1.074.68-2.385 1.928-2.913 2.77-.528.84.352.282 1.956-1.24 1.603-1.524 2.032-2.213.957-1.53zM497.98 223.13c-.63-.168-2.162.714-3.41 1.965-2.165 2.167-2.16 2.217.114 1.135 3.423-1.632 4.607-2.747 3.295-3.1zM51.072 756.673c-2.416 1.502-2.008.887 1.976-2.97 3.32-3.22 4.878-4.298 4.59-3.188-.48 1.874-2.067 3.362-6.567 6.158zm-43.734 9.51c-2.517 1.903-5.05 3.448-5.635 3.43-.584-.017.542-1.245 2.502-2.728 1.964-1.48 5.83-4.507 8.593-6.73 2.764-2.22 5.36-4.028 5.77-4.013.913.027-5.066 5.373-11.23 10.042zM758.38 52.49c4.853-7.12 14.706-18.645 14.692-17.188-.012 1.26-11.097 15.328-14.382 18.25l-2.63 2.34 2.32-3.403zm-1.574-11.608c.014-.474.622-1.093 1.347-1.38.806-.314.794.023-.025.858-.74.76-1.335.992-1.322.522zm4.282-4.62c-.127-.616 1.784-3.012 4.243-5.325 5.588-5.256 5.664-4.55.18 1.678-2.63 2.986-4.283 4.347-4.423 3.647zm10.3-11.023c-.13-.64.326-1.678 1.012-2.312 1.077-.996 1.19-.913.82.59-.563 2.273-1.532 3.184-1.83 1.72zm-103.116 74.1c.012-.472.62-1.092 1.346-1.376.805-.316.793.02-.026.856-.74.76-1.335.992-1.32.52zm-8.088 2.805c-2.433 1.436-2.515 1.415-.92-.244.957-.997 3.28-3.65 5.153-5.89 2.928-3.502 3.573-3.905 4.57-2.843.953 1.012.504 1.794-2.488 4.32-2.008 1.7-4.852 3.795-6.316 4.658zm73.426-69.786c.014-.475.62-1.094 1.347-1.378.803-.316.792.02-.028.856-.742.76-1.335.994-1.32.52zm-32.597 19.63c.013-.473.62-1.093 1.347-1.378.805-.315.793.022-.026.857-.74.758-1.336.992-1.32.52zM688.7 57.87c-3.986 3.406-5.873 4.488-6.933 3.98-1.194-.578-.9-1.058 1.62-2.674 1.765-1.13 6.172-5.968 10.343-11.354 5.31-6.855 6.57-8.943 4.676-7.74-1.967 1.246-1.473.36 2.053-3.687 2.554-2.93 5.806-6.407 7.226-7.722 2.47-2.29 2.563-2.287 2.174.11-.254 1.572-1.395 3.183-3.063 4.324-1.745 1.19-4.336 5.01-7.518 11.08-2.672 5.095-4.913 9.206-4.98 9.135-.068-.072-2.588 1.972-5.6 4.548zM478.96 244.327c.014-.474.622-1.094 1.346-1.378.807-.318.795.02-.026.855-.74.76-1.335.994-1.32.522zm114.543-109.27c.742-1.03 2.225-2.425 3.294-3.1 1.07-.68.46.16-1.35 1.865s-2.684 2.26-1.944 1.234zm-122.925 113.96l-3.722 2.645 3.218-3.915c1.768-2.153 3.536-3.755 3.926-3.566.39.196 1.595-.763 2.677-2.126 1.36-1.722 2.05-2.08 2.234-1.172.28 1.376-2.11 3.71-8.332 8.135zm-51.2 45.7c.74-1.027 2.223-2.423 3.294-3.097 1.07-.68.46.16-1.35 1.864-1.812 1.704-2.685 2.26-1.944 1.234zm135.43-127.806c-2.255.414 9.85-10.974 12.814-12.052 1.36-.495-.166 1.366-4.496 5.488-3.6 3.434-7.344 6.386-8.317 6.565zM650.8 76.687c-1.334.26-1.38-.102-.227-1.71.806-1.118 2.692-3.04 4.188-4.27 1.5-1.233 3.77-3.108 5.05-4.167 1.81-1.503 2.233-1.542 1.897-.187-.547 2.208-8.663 9.9-10.907 10.333zm-47.315 42.207l-6.295 4.312 7.147-6.708c3.933-3.69 7.385-6.454 7.675-6.147.97 1.034-2.194 4.206-8.527 8.543zM633 90.39c-1.49.777-1.146.168 1.133-2.002 1.8-1.716 4.198-3.46 5.328-3.87 2.466-.902-2.992 4.06-6.46 5.872zM420.804 286c-1.912-3.506-.77-6.39 4.068-10.28 4.7-3.784 10.867-6.77 13.797-6.682 1.985.06 2.008.028-8.972 10.792-7.412 7.267-8.054 7.71-8.892 6.17zm88.528-81.277c.013-.473.622-1.093 1.347-1.378.805-.316.793.02-.027.855-.74.762-1.335.995-1.32.523zm8.336-7.98c.74-1.028 2.223-2.424 3.293-3.098 1.07-.68.46.16-1.35 1.864-1.812 1.703-2.687 2.26-1.944 1.233zm-75.39 69.133c-.38-.402.155-1.524 1.184-2.492 1.065-1 1.975-1.264 2.11-.607.127.636-.403 1.758-1.185 2.494-.783.738-1.733 1.008-2.11.606zm18.24-19.243c-2.12.25-2.168.018-.683-3.324 1.114-2.513 2.41-4.003 4.31-4.955 1.955-.978 2.327-.954 1.322.093-1.137 1.184-1.077 1.39.322 1.12 2.228-.432 2.098.28-.697 3.858-1.457 1.863-3.125 3.032-4.573 3.207z"/><text font-family="Junction-Regular, Junction" font-size="476"><tspan x="864" y="541">nilenso</tspan></text></g></svg>
