<svg xmlns="http://www.w3.org/2000/svg" viewBox="0 0 2415.857 235.736"><title>logo-uncommon</title><path d="M296.713,350.259c41.9-42.5,116.343-41,146.22,4.118,7.027-5.239,13.828-10.835,21.137-15.663,24.792-16.377,51.885-22.806,81.355-17.548,34.575,6.169,56.2,26.994,65.189,60.36a169.266,169.266,0,0,1,5.633,40.367c0.741,37.811.262,75.646,0.255,113.471,0,10.095-3.474,13.62-13.394,13.634q-13,.018-25.995,0c-9.287-.025-13.1-3.809-13.112-13-0.059-39.157.025-78.315-.3-117.47a73.1,73.1,0,0,0-3.049-19.155c-6.263-21.966-24.655-33.394-48.844-31.085-20.064,1.916-36.289,11.269-50.048,25.465a5.982,5.982,0,0,0-1.57,3.841c0.365,23.8,1.016,47.6,1.268,71.4,0.228,21.493.051,42.99,0.047,64.486,0,12.237-3.237,15.519-15.273,15.52q-11,0-22,0c-10.155-.013-13.729-3.6-13.734-13.919-0.02-36.992.081-73.985-.091-110.976a95.783,95.783,0,0,0-1.876-19.833c-6.125-28.1-25.7-37.754-50.614-35.886-19.551,1.466-34.847,11.211-46.61,26.746a18.761,18.761,0,0,0-3.881,12.01c0.132,42.157.08,84.315,0.076,126.473C307.5,545.785,304.277,549,292.1,549q-11.248,0-22.5,0c-11.326,0-14.767-3.486-14.768-15q-0.006-92.231,0-184.461c0-4-.054-8,0.015-12,0.145-8.422,4.276-12.478,12.712-12.534,4.166-.028,8.332-0.04,12.5,0,6.135,0.064,9.062,2.185,11.054,8.093C292.964,338.6,294.717,344.129,296.713,350.259Z" transform="translate(817.618 -319.277)"/><path d="M728.549,350.578c21.453-20.423,46.039-31.334,75.19-31.091,29.372,0.245,53.38,11.179,70.231,34.644,10.805-7.24,21-15.04,32.074-21.292,23.909-13.5,49.687-16.69,76.356-10.593,31.111,7.113,50.249,27.17,59.582,57.168a137.535,137.535,0,0,1,6.164,40.832q0.091,57.994.017,115.989c0,9.065-3.657,12.733-12.692,12.76-8.5.025-17,.009-25.5,0-10.833-.006-14.135-3.241-14.138-13.912-0.008-36.5.145-72.994-.122-109.489a109.234,109.234,0,0,0-2.632-23.231c-5.973-26.287-26.016-36.236-50.421-33.919-19.314,1.833-35.021,10.958-48.375,24.544a7.932,7.932,0,0,0-2.191,5.069c0.225,17.479.9,34.954,1.021,52.433,0.189,28.329.061,56.661,0.045,84.992-0.005,9.81-3.766,13.5-13.685,13.512q-12,.015-24,0c-9.421-.024-13.3-3.877-13.3-13.411-0.028-37.5.141-74.994-.139-112.489a90.931,90.931,0,0,0-2.853-22.676c-5.4-20.107-19.332-31.181-40.046-32.178-24.281-1.169-43.241,8.915-57.062,28.654a17.116,17.116,0,0,0-2.787,9.223c-0.178,43-.116,85.991-0.124,128.987,0,10.242-3.634,13.882-13.809,13.892-8.833.009-17.665,0.045-26.5-.012-7.592-.048-11.685-3.915-12.281-11.5-0.117-1.492-.08-3-0.08-4.5q-0.005-95.991.008-191.982a47.9,47.9,0,0,1,.28-5.981c0.77-6.1,4.875-9.836,11.076-10,4.663-.124,9.332-0.065,14-0.017,6.061,0.063,9.093,2.267,11.062,8.131C724.772,338.658,726.5,344.215,728.549,350.578Z" transform="translate(817.618 -319.277)"/><path d="M86.01,554.506C34.725,554.459-9.617,519.055-23.465,467.1-38.637,410.172-9.472,350.362,44.572,327.576c42.509-17.923,92.228-5.983,124.194,29.826,51.134,57.281,34.879,148.75-32.844,184.823A107.319,107.319,0,0,1,86.01,554.506ZM22.518,433.649c0.056,16.215,3.208,28.807,9.864,40.5,20.957,36.825,68.092,43.2,96.978,13.092C153.1,462.5,155.565,420.8,134.9,393.453c-20.955-27.729-57.673-33.679-85-13.238C31.311,394.123,23,413.5,22.518,433.649Z" transform="translate(817.618 -319.277)"/><path d="M1214.411,554.875c-46.1-.306-87.79-30.128-105.037-75.478-22.779-59.894,5.7-127.272,64.194-151.863,38.763-16.3,86.264-7.147,116.511,22.082,23.8,23,36.735,50.929,37.615,83.876,1.516,56.761-36.729,108.4-93.446,119.273C1227.74,554.012,1221.028,554.2,1214.411,554.875Zm-62.879-123.582c-0.074,18.615,3.229,31.185,9.8,42.9,21.241,37.865,70.716,43.272,99.031,10.825,21.247-24.348,23.5-62.528,5.251-89.166-19.832-28.956-56.6-36.5-85.116-16.748C1160.731,392.8,1152.014,412.714,1151.531,431.293Z" transform="translate(817.618 -319.277)"/><path d="M-495.616,350.471c16.791-15.142,35.54-24.807,56.954-28.862,21.729-4.115,43.239-3.081,63.721,5.766,26.278,11.351,40.579,32.773,46.691,59.779a178.256,178.256,0,0,1,4.225,36.567c0.531,37.319.2,74.65,0.191,111.976,0,9.6-3.674,13.281-13.264,13.3-9.165.017-18.33,0.042-27.495-.008-8.162-.045-12.218-4.133-12.234-12.35-0.074-39.158.032-78.317-.318-117.472a73.052,73.052,0,0,0-3.229-20.122c-6.51-21.614-24.776-33.045-48.152-30.786-19.871,1.92-36.677,10.159-50.592,24.442a21.2,21.2,0,0,0-6.528,15.984c0.3,42.157.155,84.316,0.149,126.475,0,11.063-2.755,13.807-13.891,13.836-8.832.023-17.664,0.056-26.495-.011-7.858-.06-12.107-4.275-12.109-12q-0.023-99.981,0-199.962c0-7.721,4.254-11.908,12.1-12.013,4-.054,8-0.015,12-0.009,7.627,0.012,9.772,1.55,12.4,8.911C-499.593,339.229-497.716,344.551-495.616,350.471Z" transform="translate(817.618 -319.277)"/><path d="M1426.569,350.231c18.1-16.254,38.763-26.549,62.514-29.57,27.233-3.465,53.326-.3,75.689,17.508,17.266,13.749,26.01,32.659,30.05,53.762a179.2,179.2,0,0,1,3.2,31.722c0.375,37.325.152,74.657,0.141,111.986,0,9.515-3.821,13.34-13.288,13.358q-13.248.025-26.5,0c-9.434-.018-13.36-3.881-13.366-13.333-0.027-38.329.108-76.658-.075-114.986-0.065-13.733-2.882-26.894-11.921-37.828-10.168-12.3-24.033-15.71-39.112-14.56-20.624,1.573-37.968,10.373-52.1,25.5a18.949,18.949,0,0,0-5.41,13.892c0.214,41.827.117,83.656,0.115,125.485,0,1.666.049,3.337-.059,5-0.484,7.442-3.375,10.438-10.912,10.751-5.989.249-12,.076-18,0.081-4.333,0-8.672.145-13-.049a10.794,10.794,0,0,1-10.643-10.47c-0.109-1.493-.064-3-0.064-4.5q0-96.989,0-193.977c0-11.833,3.223-15,15.221-15.006q4.25,0,8.5,0c8.356,0.008,10.2,1.34,13.06,9.387q2.585,7.286,5.188,14.565A10.227,10.227,0,0,0,1426.569,350.231Z" transform="translate(817.618 -319.277)"/><path d="M-652.382,525.542c-10.683,6.8-20.438,14.612-31.449,19.708-26.426,12.231-53.991,12.8-81.166,2.656-27.195-10.155-41.614-31.806-47.85-59.066a176.823,176.823,0,0,1-4.454-36.552c-0.559-37.813-.209-75.639-0.2-113.46,0-10.1,3.747-13.817,13.867-13.826q13-.012,25.991,0c9.134,0.019,13.411,4.19,13.455,13.449,0.083,17.494.025,34.988,0.025,52.483,0,20.826-.3,41.659.157,62.476a85.32,85.32,0,0,0,3.424,22.584c6.662,22.037,24.739,32.956,49.389,29.877,19.261-2.405,34.341-12.2,44.666-28.641a24.211,24.211,0,0,0,3.38-12.16c0.24-42.151.146-84.3,0.148-126.458,0-11.35,2.3-13.6,13.846-13.611,8.5-.006,16.995-0.032,25.492.008,8.415,0.039,12.653,4.22,12.655,12.505q0.017,99.467,0,198.935c0,8.315-4.221,12.482-12.62,12.546q-5.748.044-11.5,0c-6.85-.04-9.476-1.817-11.926-8.367C-649.017,535.369-650.8,530.039-652.382,525.542Z" transform="translate(817.618 -319.277)"/><path d="M-271.376,437.457c1.647-60.867,46.178-106.224,96.545-115.737,41.115-7.766,75.683,3.929,102.5,36.643,4.537,5.534,4.117,10.993-1.121,15.938q-9.082,8.574-18.414,16.884c-5.195,4.642-8.024,4.436-13.545.053-7.394-5.871-14.314-12.813-22.6-17-26.576-13.446-58.758-3.873-76.514,21.727-22.6,32.591-14.283,78.967,18.024,100.463,22.705,15.107,54.2,12.939,74.631-5.207,4.108-3.649,7.9-7.653,12.044-11.26,4.78-4.163,8.99-4.3,13.974-.449,5.4,4.176,10.737,8.46,15.854,12.976,6.352,5.607,6.826,9.976,2.071,16.956-22.6,33.171-54.437,47.3-93.915,44.663a115.3,115.3,0,0,1-104.409-85.73C-268.929,458.327-269.715,447.775-271.376,437.457Z" transform="translate(817.618 -319.277)"/></svg>