<svg width="643" height="780" viewBox="0 0 643 780" xmlns="http://www.w3.org/2000/svg"><title>logo-oogway</title><path d="M441.406 62.61c-1.347 1.568-2.472 2.633-3.311 3.889-11.714 17.55-28.174 29.272-46.782 38.47-31.606 15.62-65.002 17.638-99.021 12.161-33.844-5.45-62.723-20.447-83.402-48.621-4.308-5.87-7.472-5.91-13.1-2.34-26.022 16.513-48.732 36.78-68.682 60.134-53.583 62.727-79.97 136.551-87.19 217.738-4.619 51.94.589 103.224 15.454 153.246 20.839 70.126 56.85 130.909 115.341 176.078 70.64 54.552 149.055 70.048 233.992 39.269C464.31 691.036 509 649.87 542.877 597.288c53.705-83.356 70.12-175.201 58.626-272.803-5.643-47.899-19.892-93.166-42.501-135.7-27.764-52.227-65.692-95.15-117.596-126.176M219.75 27.39c12.91 34.45 38.374 54.369 72.864 60.9 36.653 6.941 72.565 4.057 103.922-19.832 12.526-9.542 20.391-22.443 26.943-36.363 1.177-2.503 2.34-5.013 3.778-8.094 2.55 1.073 4.65 1.834 6.64 2.812 75.357 36.995 127.137 96.344 161.813 171.592 17.132 37.178 28.858 76.152 32.79 116.98 2.641 27.433 5.569 55.157 4.377 82.577-3.903 89.803-29.944 172.492-86.746 243.457-42.312 52.865-95.041 91.012-161.96 107.27-29.048 7.06-58.337 8.98-88.113 5.879-68.226-7.11-125.093-37.215-172.994-85.215C70.107 616.282 38.8 551.485 21.568 479.237 11.563 437.292 8.159 394.584 10.925 351.82c5.79-89.421 33.852-170.944 91.423-240.92 24.857-30.216 54.072-55.45 88.177-74.845 8.802-5.004 18.012-8.622 29.224-8.665zm276.404 577.835l-74.086-96.848c20.139-28.878 39.9-57.301 59.836-85.604 1.146-1.627 3.692-3.208 5.599-3.222 27.13-.207 54.264-.141 81.638-.141-8.072 68.087-29.52 130.28-72.987 185.815zm-350.564-.107c-43.457-55.213-65.222-117.138-73.017-185.827h8.245c23.288 0 46.579.126 69.865-.11 4.577-.046 7.451 1.11 10.147 5.022 18.04 26.18 36.349 52.174 54.6 78.21 2.246 3.205 4.46 5.872 1.156 10.143-23.41 30.26-46.597 60.693-70.996 92.562zm73.21-310.66c-21.856 31.097-43.086 61.358-64.446 91.528-1.02 1.442-3.16 2.963-4.788 2.973-26.35.185-52.7.131-78.939.131-8.112-50.65 25.097-169.528 59.252-211.242l88.922 116.61zm100.723-20.247c-24.339 0-47.787-1.347-72.124-1.676-3.03-.042-7.084-1.79-8.88-4.122-28.418-36.898-56.45-74.092-84.85-111.004-3.785-4.923-3.839-8.189.654-12.337 11.597-10.7 23.222-21.395 34.31-32.61 4.902-4.96 8.259-4.06 12.89-.017 20.787 18.147 44.484 31.224 71.465 37.117 56.958 12.44 110.888 6.256 159.62-28.35 1.684-1.196 3.292-2.514 4.859-3.865 10.435-9.003 10.725-9.343 21.282.139 10.384 9.324 20.03 19.465 30.1 29.142 3.425 3.29 3.514 5.953.482 9.882-28.93 37.49-57.7 75.103-86.369 112.792-2.779 3.651-5.667 5.077-10.313 5.027-24.075-.255-48.155-.118-72.233-.118h-.893zm253.024 114.634c-28.34 0-53.945.101-79.544-.168-2.342-.025-5.495-1.834-6.859-3.796-19.768-28.427-39.32-57.008-58.843-85.602-2.122-3.109-4.068-5.902-.732-10.208 25.01-32.293 49.702-64.833 74.498-97.293.628-.82 1.32-1.593 1.996-2.376 9.347-10.877 11.146-10.467 18.222 1.997 22.364 39.393 37.536 81.415 44.47 126.08 3.62 23.312 4.566 47.04 6.792 71.366zM320.247 497.919c-21.747 0-43.497-1.27-65.238-1.641-2.963-.052-6.954-2.056-8.65-4.447-20.218-28.462-40.005-57.229-60.146-85.745-3.035-4.3-3.062-7.248.03-11.598 20.082-28.244 39.75-56.785 59.9-84.98 1.856-2.597 6.125-4.886 9.293-4.911 43.752-.346 87.507-.348 131.261-.118 2.706.012 6.374 1.943 7.95 4.154 19.961 28.013 39.505 56.324 59.462 84.34 3.55 4.982 3.83 8.793.334 13.807-20.26 29.063-40.216 58.338-60.593 87.318-1.517 2.157-5.507 3.589-8.373 3.628-21.739.297-43.485.162-65.23.162-5.336 0 9.623.031 0 .031zM166.541 628.854c12.729-16.715 25.232-33.155 37.758-49.579 11.452-15.016 23.093-29.896 34.295-45.097 3.286-4.457 6.85-6.017 12.317-6.003 46.597.13 93.199.083 139.796-.24 5.553-.037 8.808 1.707 12.064 6.086 21.918 29.473 44.138 58.725 66.23 88.072 1.532 2.033 2.83 4.241 4.18 6.28-71.017 77.493-203.55 99.915-306.64.481z" fill="#000" fill-rule="evenodd"/></svg>