<svg viewBox="0 0 183 30" xmlns="http://www.w3.org/2000/svg"><title>Combined Shape</title><path d="M10.35 17.697L0 23.715l4.16-9.624 6.19 3.607zM11.84.98l9.804 22.735L4.344 13.638 9.804.98c.34-.337.68-.477 1.015-.42.34-.062.68.078 1.022.42zm21.62 21.438c-.654.48-1.45.842-2.39 1.083-.916.264-1.866.396-2.85.396-1.31 0-2.422-.208-3.34-.624a5.748 5.748 0 0 1-2.194-1.738c-.567-.767-.98-1.686-1.244-2.757-.24-1.073-.36-2.255-.36-3.545 0-2.78.622-4.913 1.866-6.4 1.245-1.51 3.057-2.265 5.437-2.265 1.2 0 2.16.098 2.882.295a9.7 9.7 0 0 1 1.996.755l-1.015 3.48a8.442 8.442 0 0 0-1.506-.56c-.48-.13-1.037-.196-1.67-.196-1.18 0-2.075.394-2.686 1.18-.612.768-.918 2.004-.918 3.71 0 .7.077 1.346.23 1.937.153.59.382 1.106.687 1.543.305.437.698.787 1.178 1.05.503.24 1.08.36 1.736.36.72 0 1.332-.087 1.835-.262.502-.197.95-.427 1.343-.69l.983 3.25h.003zm.905-15.394h2.26V3.94l4.258-1.216v4.3h3.995v3.61h-3.995v6.303c0 1.137.11 1.957.327 2.46.24.482.677.723 1.31.723.437 0 .808-.043 1.114-.13a7.44 7.44 0 0 0 1.08-.395l.754 3.282c-.59.285-1.278.526-2.064.723a9.818 9.818 0 0 1-2.39.295c-1.507 0-2.62-.383-3.34-1.15-.7-.787-1.05-2.067-1.05-3.84v-8.27h-2.26v-3.61zm13.546 0h4.258v16.41h-4.256V7.024zm-.622-4.628c0-.635.23-1.17.69-1.608.48-.46 1.136-.69 1.965-.69.83 0 1.495.23 1.997.69.525.437.787.973.787 1.608 0 .635-.263 1.17-.787 1.608-.5.416-1.167.624-1.996.624-.83 0-1.485-.208-1.965-.624a2.133 2.133 0 0 1-.69-1.608zm14.723 13.228l.557 2.527h.164l.458-2.59 2.784-8.535h4.585L63.718 23.6H61.13L54.02 7.024h4.945l3.046 8.6h.003zm22.787 6.4c-.655.525-1.55.974-2.686 1.346a11.84 11.84 0 0 1-3.57.525c-2.642 0-4.574-.766-5.797-2.298-1.223-1.553-1.834-3.676-1.834-6.367 0-2.89.688-5.055 2.064-6.5 1.375-1.443 3.307-2.165 5.796-2.165.83 0 1.638.11 2.424.328.787.22 1.485.58 2.096 1.083.61.503 1.103 1.182 1.474 2.035.37.854.557 1.916.557 3.186 0 .46-.033.952-.1 1.477-.043.525-.12 1.072-.228 1.64H75.17c.067 1.38.417 2.42 1.05 3.12.653.7 1.7 1.05 3.143 1.05.895 0 1.692-.13 2.39-.394.72-.286 1.267-.57 1.638-.855l1.41 2.79zM78.708 9.978c-1.113 0-1.943.34-2.49 1.018-.523.656-.84 1.542-.95 2.658h6.093c.09-1.18-.096-2.09-.555-2.724-.437-.635-1.135-.952-2.096-.952h-.002zm19.612 7.287c0-.7-.262-1.27-.787-1.707-.502-.437-1.146-.83-1.932-1.182a40.732 40.732 0 0 0-2.52-1.116 14.9 14.9 0 0 1-2.52-1.41 7.724 7.724 0 0 1-1.934-2.102c-.502-.83-.753-1.892-.753-3.183 0-1.116.186-2.08.557-2.89.37-.83.893-1.518 1.57-2.065.7-.547 1.52-.95 2.457-1.214C93.397.132 94.443 0 95.6 0c1.333 0 2.59.12 3.768.36 1.18.22 2.15.55 2.914.986l-1.408 3.774c-.48-.307-1.2-.58-2.16-.82-.962-.263-2-.394-3.113-.394-1.046 0-1.853.208-2.42.624-.548.415-.82.973-.82 1.673 0 .657.25 1.204.753 1.642.524.437 1.168.842 1.932 1.214.787.37 1.627.753 2.522 1.147a12.34 12.34 0 0 1 2.522 1.444 6.695 6.695 0 0 1 1.93 2.07c.525.808.787 1.826.787 3.05 0 1.228-.207 2.29-.622 3.185a5.823 5.823 0 0 1-1.703 2.2c-.72.59-1.604 1.028-2.652 1.312-1.027.285-2.162.427-3.406.427-1.637 0-3.078-.153-4.323-.46-1.244-.307-2.162-.613-2.75-.92l1.44-3.84c.24.132.545.275.917.428.393.153.83.296 1.31.427.48.13.982.24 1.507.327.545.087 1.102.13 1.67.13 1.332 0 2.347-.218 3.046-.655.72-.46 1.08-1.15 1.08-2.068zm7.345-10.24h3.112l.49 1.97h.132c.566-.833 1.23-1.446 1.996-1.84.787-.394 1.737-.59 2.85-.59 2.052 0 3.59.656 4.617 1.97 1.027 1.29 1.54 3.38 1.54 6.27 0 1.4-.164 2.668-.492 3.806-.326 1.117-.817 2.07-1.473 2.857a6.195 6.195 0 0 1-2.358 1.805c-.918.417-1.977.625-3.178.625-.677 0-1.233-.055-1.67-.164a5.128 5.128 0 0 1-1.31-.46V30h-4.258V7.024zm7.304 3.15c-.832 0-1.487.207-1.967.624-.46.414-.82 1.037-1.08 1.87v6.826c.305.24.63.437.98.59.372.13.853.197 1.443.197 1.223 0 2.14-.427 2.75-1.28.612-.875.918-2.31.918-4.3 0-1.444-.24-2.56-.72-3.347-.48-.788-1.255-1.182-2.326-1.182zm20.436 13.26v-9.32c0-1.335-.186-2.3-.557-2.89-.373-.59-1.05-.886-2.033-.886-.72 0-1.386.25-1.997.753a3.453 3.453 0 0 0-1.178 1.87v10.47h-4.258V.46h4.258v8.402h.13a5.94 5.94 0 0 1 1.933-1.674c.764-.415 1.736-.623 2.915-.623.83 0 1.56.11 2.194.328.633.22 1.157.58 1.572 1.083.437.503.753 1.193.95 2.068.218.853.327 1.915.327 3.184v10.207h-4.257zm20.924-1.41c-.655.524-1.55.973-2.685 1.345a11.84 11.84 0 0 1-3.57.525c-2.64 0-4.573-.766-5.796-2.298-1.224-1.553-1.836-3.676-1.836-6.367 0-2.89.688-5.055 2.063-6.5 1.375-1.443 3.308-2.165 5.797-2.165.83 0 1.637.11 2.423.328.787.22 1.485.58 2.096 1.083.61.503 1.103 1.182 1.474 2.035.37.854.557 1.916.557 3.186 0 .46-.033.952-.098 1.477-.044.525-.12 1.072-.23 1.64H144.7c.066 1.38.416 2.42 1.05 3.12.654.7 1.702 1.05 3.143 1.05.895 0 1.692-.13 2.39-.394.72-.286 1.268-.57 1.64-.855l1.407 2.79zm-6.09-12.047c-1.113 0-1.943.34-2.49 1.018-.524.656-.84 1.542-.95 2.658h6.092c.087-1.18-.1-2.09-.557-2.724-.437-.635-1.135-.952-2.096-.952zm18.66 1.05c-.676-.24-1.287-.36-1.833-.36-.764 0-1.408.208-1.932.623a2.88 2.88 0 0 0-1.016 1.545v10.6h-4.26V7.025h3.31l.49 2.166h.13c.372-.808.874-1.432 1.507-1.87.633-.437 1.376-.656 2.227-.656.568 0 1.212.12 1.933.36l-.557 4.005v-.002zm15.576 10.996c-.655.525-1.55.974-2.686 1.346a11.84 11.84 0 0 1-3.57.525c-2.64 0-4.573-.766-5.796-2.298-1.223-1.553-1.834-3.676-1.834-6.367 0-2.89.688-5.055 2.063-6.5 1.375-1.443 3.308-2.165 5.797-2.165.83 0 1.637.11 2.423.328.787.22 1.485.58 2.096 1.083.61.503 1.1 1.182 1.472 2.035.37.854.557 1.916.557 3.186 0 .46-.034.952-.1 1.477-.043.525-.12 1.072-.23 1.64h-9.824c.067 1.38.416 2.42 1.048 3.12.655.7 1.703 1.05 3.144 1.05.895 0 1.69-.13 2.39-.394.72-.286 1.266-.57 1.638-.855l1.408 2.79h.002zm-6.092-12.046c-1.113 0-1.943.34-2.49 1.018-.523.656-.84 1.542-.948 2.658h6.09c.088-1.18-.097-2.09-.556-2.724-.437-.635-1.135-.952-2.096-.952z" fill="#000" fill-rule="evenodd"/></svg>
