<svg width="2356" height="780" viewBox="0 0 2356 780" xmlns="http://www.w3.org/2000/svg"><title>logo-nilenso</title><g fill="#000" fill-rule="evenodd"><path d="M369.252 152.05c15.122-6.323-45.85 32.65-30.657 26.38 4.722-1.94 11.197-3.707 15.62-6.505-1.772.318-10.096 2.46-11.85 2.777 2.352-2.582 5.537-3.864 8.4-5.057 2.26-.933 5.525-.634 5.34-4.608-.04-.504 1.492-1.4 2.388-1.55 3.19-.5 6.403-.726 9.595-1.173.802-.114 1.512-.822 2.314-1.102 1.922-.634 3.882-1.543 5.842-1.62 11.163-.39 22.325-.912 33.506-.71 12.786.227 25.237 3.135 37.557 6.55 5.002 1.38 10.19 2.052 15.212 3.34 3.938.99 7.896 2.09 11.61 3.692 11.46 5.075 23.034 10.056 34.196 15.802 9.052 4.665 17.62 10.298 26.244 15.765 4.275 2.723 8.102 6.156 12.19 9.195 11.274 8.34 20.457 18.862 30.146 28.823 1.138 1.174 1.98 2.63 2.986 3.973.294.392.502 1.12.892 1.213 6.795 1.586 7.037 8.525 10.584 12.778.45.578.786 1.326 1.212 1.904.244.262.618.393 1.94 1.14-.93-2.166-1.34-3.546-2.07-4.722-7.858-12.293-15.717-24.586-23.742-36.767-1.568-2.388-3.864-4.365-6.05-6.25-1.64-1.417-11.908 2.532-10.377-.565.132-.262-12.066-4.532-12.532-4.962-4.293-4.252-55.86-36.106-59.778-41.18-3.582-4.645 30.944 9.848 25.622 6.583-4.63-2.873-14.6-17.56-19.062-20.636-2.652-1.827 24.63 18.788 22.28 16.343.148-.074-29.727-31.41-29.41-31.207 2.39 1.66 15.367 7.67 17.664 9.46-2.497-14.324 29.305 14.43 29.622 14.58 4.555 1.848 15.43 4.508 19.873 6.563 3.17 1.47 7.07 4.33 10.13 5.97 3.96 2.11 2.494 2.896 6.487 4.948 1.103.598 11.555 10.123 12.338 11.095 1.94 2.37-14.497 5.937-11.77 3.868.914.765 1.847 1.55 2.76 2.314-.334-5.988-6.008-7.63-8.77-11.79a587.1 587.1 0 0 1 6.008 3.62c-.634-1.66-.99-2.482-1.306-3.32.223-.207.466-.412.69-.636.728.97 2.184 2.034 2.054 2.874-.56 3.788 11.206 5.198 13.615 6.392 3.285 1.623-2.34 2.564 1.598 4.242-.15.132.487-.39 1.737-1.364.243.526.615.99.653 1.458.392 5.392 4.928 7.723 8.027 11.135 8.214 9.03 16.26 18.133 22.232 28.897 1.81 3.302 4.65 6.063 6.44 9.384 5.02 9.214 9.744 18.58 14.543 27.944 3.977 7.76 7.95 15.538 10.283 24.044 3.117 11.473 6.944 22.758 9.556 34.343 2.727 12.16 4.277 24.548 6.348 36.86.038.113.057.242.057.372.745 11.772.67 23.672 2.406 35.276 1.716 11.455-.953 22.35-2.24 33.393-.954 8.04-4.183 15.783-6.087 23.71-1.885 7.78-3.324 15.69-5.06 23.56-.428 1.995-1.173 3.972-1.81 5.93.338.15.654.262.99.393.356-.672.617-1.363 1.028-1.998.336-.596.73-1.138 1.94-1.363-.52 1.717-.95 3.49-1.622 5.113-3.772 9.01-7.56 17.98-11.5 26.9-.428 1.044-1.81 1.66-2.556 2.612-.933 1.174-2.575 3.263-2.222 3.693 3.472 4.737-1.326 7.778-2.67 10.986-2.855 6.827-6.924 13.247-11.16 19.383-8.606 12.573-17.753 24.754-28.84 35.368-.318.354-.504.783-1.14 1.81 1.57-.374 2.52-.58 4.46-1.046-5.747 5.208-10.75 9.722-15.752 14.348-.896.783-1.512 1.865-2.222 2.816-1.157 1.586-1.81 3.134-4.76 2.613-2.238-.393-5.823.24-5.823 4.382 0 .672-.71 1.567-1.324 2.033-3.153 2.406-6.216 4.905-9.61 6.922-2.633 1.603-5.714 2.424-8.476 3.823-1.028.54-2.316 1.79-2.353 2.702-.15 3.9-3.172 4.234-5.712 4.98-3.006.915-5.49 1.904-7.04 5.13-.71 1.512-3.396 2.333-5.375 2.966-4.612 1.55-9.39 2.705-13.98 4.31-.935.336-1.327 1.996-2.39 2.24-2.482 1.12-4.89 2.404-7.41 3.357-2.427.95-5.058 1.362-7.392 2.405-8.007 3.528-16.463 5.355-24.974 7.146-6.16 1.324-12.283 2.724-18.704 3.34 29.473-9.233 58.984-18.17 84.276-36.673a7.123 7.123 0 0 1-.467-1.12c-2.54 1.155-5.057 2.37-8.174 3.825.54-1.288.895-2.036 1.194-2.78a8.123 8.123 0 0 0-.69-.673c-2.204 3.06-7.206 2.48-8.177 7.313-.15.747-1.903 1.343-3.024 1.735-2.67.933-5.56 1.362-8.12 2.538-9.108 4.16-18.125 8.562-27.234 12.778-1.157.54-2.594.504-3.94.746l-.372-.95c5.9-3.078 11.947-5.952 17.716-9.254 4.16-2.405 7.987-5.297 11.963-8.002.615-.43 1.158-1.25 1.83-1.362 10.005-1.828 16.818-9.29 24.826-14.457 7.186-4.664 13.158-11.27 19.636-17.032.466-.43.672-1.174.503-2.37l-12.265 9.01c-.242-.28-.465-.504-.727-.783 21.037-18.095 42.055-36.227 56.708-60.122-.412-.392-.896-.766-1.325-1.158-2.073 2.724-4.163 5.448-6.216 8.172-4.104 5.465-7.86 11.268-12.394 16.378-2.854 3.264-6.81 5.558-10.283 8.263-2.765 2.178-4.517 5.276-8.418 6.562-2.728.897-4.517 4.646-6.778 7.07-2.407 2.577-5.188 4.442-8.642 4.944-.337-.39-.653-.783-1.01-1.155 2.297-1.588 4.574-3.135 6.87-4.703-.466-.54-.97-1.12-1.418-1.698-20.888 17.218-43.23 32.085-68.02 42.94-.203-.334-.37-.595-.52-.912 4.685-2.652 9.37-5.225 14.074-7.91 5.003-2.818 10.155-5.43 14.84-8.713 4.368-3.077 10.154-4.72 12.095-10.728-17.172 10.094-34.794 19.16-53.684 25.763 6.645-3.506 13.273-6.995 19.936-10.54-.076-.24-.093-.465-.13-.71-1.104 0-2.355-.39-3.268.04-4.854 2.22-9.54 4.904-14.43 6.92-7.485 3.116-15.157 5.802-22.83 8.598-.596.227-1.454-.147-3.304-.333a5037.26 5037.26 0 0 1 19.752-9.196 17.5 17.5 0 0 0-.375-1.1c-1.1.11-2.22.26-4.125.445 1.155-.838 1.734-1.36 2.37-1.715 1.25-.635 2.818-.896 3.752-1.81 9.24-8.88 21.503-13.02 31.658-20.445 7.688-5.633 15.547-11.116 23.2-16.788 1.438-1.062 2.39-2.723 3.51-4.177-.298-.357-.542-.69-.84-1.03-1.197.636-2.466 1.176-3.567 1.962-1.96 1.36-4.106 2.686-5.712 4.42-5.284 5.877-12.542 8.637-19.132 12.405-2.482 1.418-5.34 2.127-8.026 3.21-2.8 1.137-5.824 1.995-8.38 3.543-3.66 2.22-7.783.654-11.48 2.033-1.493.54-3.098.877-5.04.654.69-.578 1.288-1.326 2.055-1.792 8.714-5.24 18.235-9.493 25.943-15.93 8.4-6.975 17.716-12.59 26.19-19.287.95-.748 1.64-1.79 2.146-3.004-20.497 11.585-39.685 25.333-61.693 34.23.597-.54 1.157-1.286 1.866-1.622 4.238-1.956 6.982-5.78 11.37-8.02 9.09-4.68 17.134-11.508 25.44-17.74 2.166-1.622 5.6-2.723 5.245-7.162-1.117.783-1.884 1.174-2.48 1.79-5.657 5.52-12.32 8.525-20.18 9.96-3.21.58-5.973 3.788-8.866 5.95-3.098 2.333-6.03 4.833-9.07 7.296a13.505 13.505 0 0 0-.785-.672c1.53-1.682 3.06-3.38 5.19-5.672a9667.5 9667.5 0 0 1-15.178 7.386c-.318-.392-.56-.858-.86-1.288 18.032-9.232 34.327-20.837 49.15-34.436-.263-.373-.487-.727-.75-1.08-3.433 2.05-6.85 4.196-10.3 6.267a13.77 13.77 0 0 0-.394-.54c3.258-2.307 6.5-4.64 9.724-6.996 1.254-1.007 2.523-2.032 3.662-3.153 8.38-8 17.228-15.575 24.955-24.192 10.005-11.135 19.058-23.037 26.506-36.227 6.233-11.042 11.945-22.253 15.958-34.172 2.744-8.228 4.088-16.977 5.638-25.575 1.474-8.228 3.004-16.548 3.378-24.868.45-11.565.038-23.224-.354-34.81-.205-6.23-.69-12.48-1.79-18.615-1.363-7.724-2.97-15.503-5.397-22.946-4.61-14.102-9.836-27.98-14.932-41.933-.69-1.845-2.184-3.414-3.042-5.223-.82-1.66-1.137-3.6-2.016-5.242-1.96-3.655-3.9-7.385-6.29-10.76-3.995-5.56-8.062-11.082-12.58-16.193-4.386-4.98-9.37-9.402-14.15-14.01-1.173-1.158-2.44-2.296-3.824-3.17-1.14-.73-1.94-3.23-3.977-1.048-.13.15-1.12-.298-1.604-.653-2.764-1.938-5.62-3.86-8.27-6.005-14.484-11.92-31.94-16.807-49.82-20.462-8.845-1.808-17.86-3.674-26.82-3.598-11.91.09-23.82 1.79-35.672 3.356-6.253.822-12.45 2.538-18.516 4.366-4.312 1.287-8.363 3.507-12.525 5.28-2.69 1.12-5.45 2.07-8.064 3.376-8.1 4.086-16.07 8.3-24.173 12.293-1.548.764-3.415.914-5.113 1.38-.448.112-.97.298-1.326.596-3.64 3.006-7.262 6.064-11.254 9.385-.673-1.585-1.083-2.65-1.55-3.693a58.89 58.89 0 0 1-1.027-.615c.113 7.2-5.73 9.25-9.725 12.907-2.633 2.424-5.284 4.848-7.71 7.5-5.71 6.21-11.292 12.574-16.987 18.894 0 0-.52-.858-1.604-2.556-1.55 3.396-2.725 6.23-4.125 8.955-.56 1.064-1.793 1.79-2.43 2.835-1.698 2.873-3.452 5.746-4.76 8.768-1.512 3.507-2.555 7.2-3.827 10.8-1.307 3.77-2.5 7.574-4.032 11.25-.84 2.014-2.67 3.674-3.36 5.727-1.345 4.197-2.017 8.6-3.36 12.78-1.083 3.337-2.745 6.47-4.575 10.65-.577-2.238-.95-3.71-1.326-5.186.393.112.823.224 1.21.336.882-2.034 1.98-4.03 2.562-6.156 2.165-7.91 1.474-16.397 6.103-23.952 3.49-5.708 4.18-13.115 7.615-18.84 5.768-9.664 12.208-19.03 19.264-27.815 9.315-11.565 20.346-21.49 32.834-29.678 2.67-1.754 5.413-3.396 8.008-5.242 1.83-1.307 3.49-2.967 4.367.41 9.538-5.186 18.722-10.167 27.924-15.166 8.4-4.552 16.67-9.513 25.312-13.58 4.925-2.295 10.525-3.172 15.826-4.552 2.447-.634 4.986-.912 7.468-1.434 1.27-.28 2.54-.727 4.388-1.287-1.007-.783-1.4-1.36-1.754-1.343-4.292.317-8.64.392-12.858 1.174-4.425.822-3.16 3.485-7.528 4.605-1.808.444-2.636 1.374-4.465 1.637-.372.054-4.8 1.26-4.948 1.506-2 3.244-7.59 4.08-10.56 4.992-1.845.56-67.812 38.44-70.63 38.44-1.998-3.66 35.463-22.802 36.117-27.373-6.328 2.297-29.588 20.61-35.413 21.26-6.887.73 38.272-33.353 32.28-31.86-.26-.412-.503-.86-.785-1.27 4.928-2.947 9.837-5.895 14.784-8.805.86-.502 2.296-.597 2.65-1.286 3.08-5.52 9.015-4.942 13.813-6.752 4.78-1.828 9.576-3.693 14.15-6.12-5.58-2.144-45.583 22.233-50.867 22.082 1.662-1.155 7.19-5.748 8.852-6.906-.148-.263 2.38-2.14 2.23-2.4-1.96.653-3.027.543-4.97 1.196-.203-.374-6.19 2.95-6.415 2.576 2.017-1.175 2.954-4.078 5.01-5.18 1.978-1.08 39.61-17.75 41.663-18.776-.187-.45-.37-.904-.54-1.36-2.558.708-5.21 1.193-7.69 2.145-5.88 2.22-11.837 4.29-17.455 7.106-8.14 4.05-15.96 8.693-23.95 13.096-3.788 2.09-7.614 4.086-11.366 6.212-7.282 4.012-12.642 10.018-17.85 16.434-4.908 6.044-10.77 11.25-15.96 17.013-4.33 4.795 29.58-33.362 25.362-28.475-2.5 2.872 6.562-4.064 4.04-1.173-.914 1.042 3.377-2.944 2.63-1.75.3.222 8.313-4.792 8.593-4.55 1.808-2.072-58.712 59.358-56.864 57.288-5.468 10.034 64.322-71.25 58.226-53.963 9.587-7.016 15-4.126-2.622 8.323.448-1.006-71.04 73.993-70.463 73.1 3.864-6.028 7.822-11.998 11.613-18.04 2.333-3.75 4.18-7.78 6.607-11.454 2.372-3.562 33.446-42.61 36.284-45.835 4.088-4.683-20.1 26.398-15.713 21.995 3.51-3.525 7.392-6.734 11.405-10.37-.225 1.472-.374 2.628-.54 3.787.39.24.8.445 1.193.707 1.586-2.39 3.19-4.777 4.778-7.165-.765 7.724 27.317-19.222 22.37-14.02.206.412 1.79 1.324 1.98 1.735 1.043-.373 12.715-8.868 4.718-.803-4.49 9.25-5.293 3.144-.235 2.135-1.16 1.846-.054 8.887-1.004 9.69-3.773 3.32-35.016 23.59-35.988 28.87-.15.672-1.082 1.66-1.66 1.68-6.797.167-7.917 5.297-9.3 10.297-3.825-.73-4.402-.02-4.29 5.725-.803-.58-1.4-.99-2.018-1.438-6.344 11.656-12.71 23.298-19.45 35.665-1.063-2.163-1.736-3.525-2.724-5.596-1.793 4.366-5.265 7.146-4.668 12.07.26 2-1.493 4.217-2.462 6.66-.488-.353-1.028-.726-1.887-1.324a527.63 527.63 0 0 0-1.83 5.71c-.15-.17-.28-.3-.41-.468-1.027.972-2.688 1.774-2.95 2.912-1.436 6.174-2.574 12.423-3.733 18.672-.838 4.72-1.716 9.476-2.314 14.232-.317 2.687-.038 5.448-.038 8.17-.5.04-1.025.058-1.51.077-.13-1.845-.262-3.71-.374-5.576-.223-.02-.447-.02-.71-.038-.707 2.63-1.416 5.24-2.09 7.797 1.427.69 2.857 1.366 4.293 2.033.69-1.678 1.362-3.357 2.015-4.98 3.474.132-1.716 6.23 3.883 4.7-.26 1.83-.745 3.582-.745 5.318.206 10.913.97 21.806 2.053 32.702.393 4.03.86 8.077 1.644 12.032.43 2.182 1.85 4.14 2.41 6.323.484 2 .41 4.18.595 6.288-.502.057-.998.133-1.493.225-2.67-10.877-5.357-21.696-8.045-32.554-.375-.02-.73-.02-1.103-.02 0 3.246-.41 6.585.095 9.757 1.362 8.32 2.48 16.77 4.91 24.79 4.63 15.148 10.414 29.81 22.307 41.078.97.895 3.862 2.293.914 4.44-.093.074.748 1.734 1.382 2.387 2.146 2.145 4.386 4.177 6.607 6.23-.374.39-.71.783-1.064 1.155-1.346-1.212-2.69-2.442-3.883-3.507-6.534 1.212-8.905-3.693-11.666-8.02-.28.187-.54.354-.822.52.934 1.847 1.662 3.826 2.8 5.505 5.824 8.58 13.27 15.744 20.905 22.683.822.747 2.017 1.1 2.93 1.81 4.165 3.19 8.29 6.398 12.433 9.588-.24.374-.447.71-.71 1.045-4.327-2.106-8.66-4.288-13.067-6.305-1.695-.762-3.582-1.08-5.392-1.583-7.71-2.182-12.19-8.19-16.632-14.196-5.04-6.734-9.82-13.598-14.97-20.817-4.554 4.793 2.557 6.36 2.39 9.98-.915-.244-1.755-.524-3.21-.97 3.807 8.468 9.37 14.978 15.38 21.21-.373.334-.71.595-1.082.913-2.8-2.947-5.992-5.653-8.307-8.935-4.087-5.802-7.54-12.052-11.478-17.946-1.066-1.605-2.932-2.686-4.39-4.048-.485-.43-1.044-.99-1.25-1.587-1.045-2.892-1.978-5.876-3.136-9.29-2.724 5.692 9.465 34.716 15.96 38.28-.428-2.015-.783-3.6-1.12-5.187.253-.18.514-.35.784-.504 6.235 12.724 11.76 25.95 23.78 34.773.41-.355 1.158-.915 2.09-1.624 1.42 2.78 2.728 5.315 4.033 7.852 8.982-1.418 15.236 4.346 22.196 8.282 3.698 2.09 7.4 4.174 11.106 6.25.282-.373.52-.746.786-1.1a986.912 986.912 0 0 0-9.463-8.208c.194-.172.375-.36.54-.56 4.554 2.07 9.166 4.03 13.627 6.287 3.06 1.528 5.376 3.71 9.613 3.263 3.64-.43 7.615 2.014 12.56 3.582-1.1-2.405-1.83-3.955-3.005-6.51 4.332 2.5 7.897 4.514 11.463 6.565 1.64.934 3.358 1.98 3.638-.634 3.49.822 7.635.897 10.827 2.67 4.946 2.76 9.557 6.36 13.794 10.166 7.3 6.564 12.64 14.623 16.484 23.653.243.54.635 1.08 1.083 1.827.767-.672 1.326-1.155 2.036-1.827 1.08 7.423 3.06 14.493.39 21.73-1.94 5.337-4.087 10.354-8.417 14.216-.748.654-1.737 1.455-1.887 2.313-1.082 5.95-6.345 7.946-10.004 11.602-4.443 4.496-10.062 4.776-15.176 6.884-1.064.447-2.744-.355-4.05-.822-1.027-.354-7.803.615-8.736 1.27-1.42 1.024-2.913 2.35-4.517 2.555-9.298 1.098-18.723 2.964-27.888-.243-5.562-1.94-11.07-4.517-16.107-7.575-8.178-4.962-16.372-10.037-23.763-16.005-6.59-5.336-14.86-8.507-20.01-15.633-9.69-13.375-23.652-22.29-35.057-33.894-9.762-9.885-20.104-19.25-27.72-31.058-5.115-7.91-10.976-15.37-15.7-23.524-4.516-7.738-8.044-16.114-11.89-24.267-2.145-4.682-4.236-9.345-5.974-14.158-2.91-8.096-5.506-16.303-8.548-25.332 1.792 1.4 2.69 2.11 3.622 2.836.28-.19.522-.338.784-.487a1525.82 1525.82 0 0 1-4.63-9.327c-.41-.896-1.064-1.81-1.212-2.725-3.362-18.336-3.305-36.88-3.21-55.42 0-.223.204-.43.672-1.38.56 1.287 1.155 2.146 1.288 3.096 1.604 10.99.596 22.18 3.377 33.074 1.288 5.094 1.083 10.576 2.166 15.784 1.51 7.312 3.303 14.625 5.56 21.73 1.25 3.938 3.96 7.408 5.6 11.27 1.27 2.946 1.942 6.153 2.895 9.27.337-.036.653-.074.972-.11.187-.617.617-1.327.486-1.848-2.52-9.178-4.984-18.412-7.672-27.554-2.07-7.03-4.814-13.86-6.53-20.928-1.345-5.672-2.167-11.546-2.186-17.366-.114-16.324 0-32.665.672-48.968.334-7.594 1.998-15.146 3.358-22.646.374-2.05 2.035-3.825 2.594-5.857 1.494-5.482 2.69-11.08 4.034-16.62.428-1.81 1.623-3.153 2.613-4.627 2.5-3.75 5.338-7.872 3.9-13.207-.448-1.698.484-3.993 1.232-5.82 4.443-11.12 8.96-22.2 13.402-33.262.804-1.997 1.457-4.048 2.166-6.08.466.13.97.242 1.418.372-.373 2.22-.448 4.533-1.212 6.585-1.12 2.948 46.49-64.67 45.074-61.797-1.12 2.257 66.698-62.95 43.476-35.754 21.043-3.19 26.754-21.873 56.557-30.632 94.32-6.864 47.14 11.93 61.328 8.924h.004l-.01.003zm166.494 72.01c.28-.28.542-.542.822-.805-.97-1.378-1.7-3-2.912-4.065-3.718-3.172-7.86-5.895-11.372-9.252-8.232-7.76-17.47-14.01-27.7-18.71-2.11-.97-5.058-2.37-6.682-1.605-2.315 1.1-3.788.52-5.582-.28-6.178-2.742-12.114-5.932-18.48-8.152-7.28-2.554-14.877-4.215-22.27-6.36-9.37-2.724-18.928-3.73-28.652-3.245-3.583.167-7.15.54-10.714.82.467.95.99 1.362 1.493 1.4 5.73.406 11.498.463 17.19 1.21 3.546.465 7.67 1.043 10.36 3.135 3.508 2.702 7.054 3.712 11.144 4.08 5.263.506 10.88.263 15.753 1.98 10.828 3.844 22.607 4.943 32.462 11.64 7.11 4.814 14.727 8.88 22.08 13.32 4.574 2.744 9.13 5.505 13.608 8.378 3.156 2.07 6.273 4.327 9.446 6.51v.002h.006zm-228.584-27.87c.167.447.372.932.52 1.38 8.757-4.533 17.492-9.048 26.227-13.58-10.322 1.1-18.5 6.753-26.75 12.2h.002zm192.54 375.566c4.313-1.063 18.313-15.707 18.947-19.4-8.868 4.29-11.313 14.383-18.947 19.402v-.002zM215.046 301.793c.52.3 1.044.578 1.567.858 3.863-7.574 9.67-14.046 12.3-22.29-.372-.204-.745-.39-1.082-.616-4.275 7.37-8.512 14.7-12.786 22.05zm301.027-65.31c-.373.412-.784.822-1.157 1.25 5.544 5.336 11.088 10.653 16.65 15.988.304-.316.583-.615.862-.932-4.983-5.894-10.135-11.64-16.352-16.305h-.003zM224.19 448.266c-.52.242-1.083.448-1.623.69 1.567 3.75 3.117 7.517 4.685 11.286.577-.26 1.157-.484 1.736-.726-1.587-3.75-3.19-7.518-4.797-11.25h-.003.003zm20.87-160.726c.335.11.652.26.988.39 1.903-3.71 3.826-7.44 5.73-11.153-3.042 3.19-6.663 6.043-6.72 10.762zm282.884 275.243c.392.392.784.784 1.157 1.176 2.914-2.818 5.862-5.654 8.793-8.49-.373-.372-.673-.71-1.027-1.062-2.97 2.812-5.956 5.577-8.926 8.37l.002.003.002.003zm22.138-21.73c-.392-.3-.727-.543-1.12-.84-3.007 3.966-6.03 7.92-9.07 11.863.316.26.577.467.875.71 3.116-3.92 6.193-7.836 9.31-11.734h.005zm-373.08-204.117c-.485-.224-.97-.447-1.456-.654-.9 3.008-1.79 6.018-2.67 9.03.468.15.97.298 1.44.447.894-2.948 1.772-5.896 2.686-8.825zm341.63 233.59c.37.41.67.84 1.006 1.23 2.408-2.145 4.76-4.29 7.168-6.454-.262-.28-.486-.56-.73-.84-2.5 2.015-4.964 4.05-7.446 6.063zm30.91-337.233l-1.812 1.81a742.87 742.87 0 0 1 6.254 5.055c.317-.317.653-.635 1.007-.933a554.86 554.86 0 0 0-5.445-5.927l-.002-.003-.002-.002zm-7.822 31.47c.527-.372 1.062-.732 1.605-1.08-1.68-2.2-3.305-4.422-4.965-6.62-.374.26-.784.54-1.158.782 1.513 2.314 3.006 4.608 4.517 6.922v-.005z"/><path d="M519.656 530.903c-.653-.597-1.157-1.08-2.295-2.052l-4.184 4.46c-.112-.113-.206-.187-.3-.298 1.83-2.614 3.454-5.41 5.563-7.78 12.002-13.45 20.644-29.007 28.242-45.162 3.077-6.547 6.195-13.188 7.95-20.146 6.104-24.083 9.408-48.575 6.57-73.46-1.456-12.626-3.602-25.2-5.412-37.77-.188-1.25-.152-2.52-.226-3.77.334-.056.616-.094.932-.15.615 3.284 1.082 6.604 1.81 9.867.803 3.453 1.793 6.866 2.763 10.56.783.074 1.865.207 3.976.43-1.065 2.332-1.886 4.235-2.727 6.1-.393-.13-.822-.26-1.213-.392 1.05 5.15 2.07 10.304 3.06 15.465.17.876 0 1.79.112 2.667.373 3.376.99 6.678 1.12 10.075.094 2.554-.467 5.147-.597 7.74-.392 6.548-.71 13.077-1.027 19.624 0 .372.337.764.282 1.1-1.27 6.306-2.576 12.648-3.977 18.953-1.492 6.792-2.67 13.657-4.76 20.26-1.92 6.117-4.703 11.995-7.354 17.833-2.502 5.505-5.17 10.933-8.064 16.23-1.756 3.21-4.072 6.083-6.16 9.123-3.865 5.67-7.674 11.34-11.557 17.048-.783 1.1-1.64 2.202-2.538 3.452h.003v-.004l.006-.003zM340.76 148.137c6.44-5.242 29.69-25.12 53.25-23.466-22.01 8.39 17.44-3.427 21.304-2.66-5.045 1.906 4.906 3.922 13.12 2.898 18.683-.445-.72 2.523 6.28 3.848 1.643.596 22.28-.26 52.34 15.737-23.018-5.675-27.86-8.153-40.616-7.295-8.63.422-43.5-5.36-51.085-4.36-9.302 1.068 1.37.095-5.72 1.096-5.353 1.01-45.4 13.77-48.873 14.2v.002zm-123.253 77.47a725.336 725.336 0 0 0 3.285-4.757c-.26-.242-.54-.448-.802-.69-3.378 3.73-6.738 7.462-10.098 11.21-.187-.11-.392-.242-.597-.353.41-.84.635-1.81 1.23-2.462a872.93 872.93 0 0 1 11.146-12.22c4.05-4.327 8.083-8.616 12.282-12.796 2.746-2.725 5.823-5.15 8.643-7.817 1.718-1.586 3.155-3.507 4.928-5.037 2.556-2.24 5.17-4.458 8.026-6.323 7.672-5.076 15.455-10.056 23.332-14.85 1.94-1.192 4.403-1.53 6.978-1.678-4.497 2.798-9.09 5.465-13.477 8.413-6.515 4.384-13.18 8.618-19.283 13.6-4.517 3.71-8.213 8.487-12.28 12.796a6757.032 6757.032 0 0 1-19.602 20.575c-.97 1.007-2.107 1.808-3.21 2.686a2.755 2.755 0 0 0-.5-.3v.002z"/><path d="M382.313 163.836c-3.692-1.734-46.013 14.533-45.1 15.783-3.88-.934 29.144-30.508 4.616-29.973 34.465-16.778 95.922-28.908 139.696-5.094-6.14 6.212-65 2.372-79.473 13.403-1.828-6.154-17.178 6.98-19.736 5.88h-.004zm-173.71 51.716c.094-1.174.207-2.37.337-3.768-1.027-.28-1.903-.52-3.79-1.026 2.823-3.787 5.34-7.163 7.822-10.538.396.203.767.39 1.142.615.13 1.044.26 2.107.486 4.16 2.67-3.512 4.89-6.44 7.092-9.328.26.183.486.37.748.56-4.725 6.248-4.536 15.89-13.834 19.325h-.002z"/><path d="M368.913 166.897c28.49-17.947 74.38-35.673 111.078-22.267 29.134 10.643 50.01 46.134 69.328 79.51-44.115-3.564-109.364-39.01-180.408-57.243h.003zM569.83 369.73c.69 9.607 1.344 19.176 2.035 28.783l-1.848.17c-.727-9.57-1.474-19.14-2.183-28.71.672-.095 1.344-.168 1.998-.243h-.002zM358.138 129.8c-3.685.78-.39 7.395-4.898 10.592-9.374 6.645-24.605 11.192-52.855 13.95 10.778-14.956 33.16-23.682 57.753-24.542zm188.624 185.835c3.024 8.096 6.05 16.21 9.052 24.306-.447.168-.932.354-1.38.522-2.948-8.134-5.88-16.268-8.828-24.4.39-.15.764-.298 1.155-.43h.002zM352.06 127.636c.392-2.798 1.176-4.048 3.787-3.843 1.998.15 4.034-.54 6.087-.653.748-.02 1.496.558 2.244.877-.392.71-.786 1.418-1.214 2.07-.13.168-.448.28-.69.318-3.268.392-6.554.784-10.21 1.23h-.004zm57.785-7.687c-4.108.614-8.233 1.192-12.34 1.807-.076-.41-.15-.838-.242-1.25 3.564-3.262 8.213-1.266 12.226-2.48.148.634.26 1.268.354 1.922zM204.648 241.22c-3.224 4.79-6.442 9.583-9.65 14.38-.393-.26-.804-.52-1.16-.764 3.21-4.813 6.385-9.625 9.614-14.457.373.282.765.58 1.195.84v.002zm310.174 294.736c-4.144 3.62-8.288 7.257-12.413 10.876-.374-.41-.71-.82-1.084-1.23 4.182-3.62 8.36-7.258 12.544-10.858.3.392.615.82.952 1.212zm-36.51 37.31c-4.406 2.854-8.85 5.69-13.254 8.506-.275-.392-.54-.82-.837-1.23a5200.67 5200.67 0 0 0 13.106-8.807c.316.504.653 1.026.99 1.53h-.005zm-254.887-337.01c3.658-4.29 7.317-8.6 10.976-12.908.374.317.766.634 1.14.97-3.64 4.327-7.3 8.635-10.94 12.962-.39-.337-.783-.672-1.175-1.027v.004zM504.22 549.69c-3.547 2.388-7.112 4.757-10.77 7.22 1.026-3.586 2.855-5.094 10.023-8.115.28.294.485.616.746.89v.005zM329.615 217.342c-3.042 1.903-6.065 3.806-9.11 5.71-.26-.17-.483-.318-.745-.467.45-1.53.934-3.06 1.55-5.148.657.724 1.31 1.452 1.96 2.182 1.792-1.232 3.546-2.482 5.34-3.73l1.006 1.453z"/><path d="M379.623 153.975c4.704-.578 9.39-1.157 14.11-1.735.058.335.077.69.132 1.007-4.722.56-9.426 1.137-14.15 1.695-.02-.324-.048-.648-.088-.97h-.002l-.002.003zm57.044 472.962c-3.36 1.25-6.683 2.556-10.005 3.806-.202-.492-.388-.99-.56-1.494 3.306-1.2 6.63-2.43 9.934-3.605.205.43.41.858.634 1.288l-.002.002v.002zm-177.01-426.57c-2.715 3.56-5.415 7.13-8.102 10.71-.47-.394-.9-.75-1.363-1.14 2.537-3.693 6.623-6.065 9.516-9.48l-.057-.093h.003l.003.003zm280.85 100.564c1.642 3.563 3.305 7.108 4.91 10.672-.338.148-.674.334-1.01.483a1087.94 1087.94 0 0 1-5.132-10.446c.404-.25.814-.487 1.23-.71h.002zm7.783-120.952c2.69 1.808 5.395 3.58 8.083 5.37-.28.41-.542.858-.822 1.307-2.724-1.792-5.45-3.545-8.174-5.336.298-.47.596-.898.914-1.345v.003zm-329.047 82.396c0-4.778 1.01-6.102 5.34-7.594-1.903 2.686-3.64 5.132-5.34 7.594z"/><path d="M259.712 200.48c2.24-1.605 4.48-3.172 6.702-4.757-2.406 5.69-3.525 6.287-6.755 4.663 0-.02.056.095.056.095h-.004zm-60.647 84.99c-1.53 2.927-3.042 5.875-4.574 8.803-.446-.205-.856-.41-1.287-.615 1.513-2.948 3.045-5.894 4.574-8.842.43.242.84.448 1.288.653zm209.622-171.564c2.856-.486 5.712-.97 8.532-1.474.073.41.128.857.203 1.268-2.837.43-5.712.858-8.53 1.288-.075-.355-.13-.71-.206-1.083zM243.49 467.61c1.513 2.368 3.044 4.738 4.574 7.126-.392.26-.803.484-1.195.746a1546.55 1546.55 0 0 1-4.612-7.2c.393-.247.805-.434 1.233-.674zM184.396 288.62a908.642 908.642 0 0 1 4.833-8.638c.262.15.523.28.784.392-1.455 2.952-2.91 5.88-4.367 8.825-.43-.165-.84-.387-1.25-.577zm290.91 281.437c2.652-1.923 5.303-3.862 7.933-5.784.32.395.56.824.86 1.18-2.71 1.846-5.436 3.618-8.144 5.465a9.463 9.463 0 0 1-.653-.857h.004l.002-.004z"/><path d="M633.275 254.928c-.275-.008-9.194 7.894-19.828 17.565-10.633 9.667-19.966 17.84-20.743 18.16-.774.322-5.432 4.123-10.35 8.447-34.31 30.16-55 48.243-60.96 53.274-8.585 7.244-8.55 7.215-11.05 10.525-1.373 1.82-3.87 3.53-7.523 5.15-3.01 1.33-6.3 3.124-7.315 3.98-4.564 3.865 4.98-6.92 13.282-15.002 8.023-7.816 8.527-8.44 3.915-4.867-2.912 2.258-6.713 4.78-8.446 5.61-5.837 2.786-18.7 13.348-35.242 28.927-15.49 14.592-20.566 20.487-14.93 17.34 1.273-.71 2.54-1.047 2.818-.75.28.295 2.51-.927 4.956-2.72 7.03-5.143 9.996-4.557 6.423 1.272-2.096 3.417-88.813 84.515-136.08 127.263-49.366 44.647-63.08 57.388-66.13 61.433-5.086 6.747-23.95 25.315-31.8 31.304-5.682 4.33-7.824 6.505-11.05 11.214-5.783 8.437-62.573 61.904-76.768 72.27-5.322 3.893-12.52 9.37-15.99 12.175-3.472 2.802-9.19 6.415-12.704 8.027-3.516 1.612-8.803 4.57-11.745 6.58-2.945 2.008-6.53 4.138-7.965 4.732-2.595 1.067-22.006 12.013-25.85 14.575-1.106.74-3.37 2.083-5.032 2.988-5.974 3.264-.16-1.215 10.605-8.17 12.844-8.296 16.283-11.24 15.464-13.24-.317-.777.028-1.987.772-2.686.744-.7 1.676-1.945 2.074-2.765.625-1.297.398-1.448-1.736-1.136-2.054.297-2.594.758-3.285 2.824-.702 2.076-1.914 3.087-7.62 6.363-7.33 4.208-9.96 4.426-4.24.353 2.077-1.477 3.263-2.784 2.893-3.176-.597-.634-10.34 5.16-18.852 11.216-3.292 2.34-3.713 2.446-2.645.658.697-1.17 2.305-3.21 3.573-4.536 2.15-2.248 2.15-2.335.034-1.287-1.25.624-7.903 5.426-14.787 10.678-19.755 15.075-20.99 15.967-19.975 14.452.527-.79.506-1.553-.04-1.702-.55-.147-.367-.862.406-1.59.966-.906.973-1.53.028-1.986-1.575-.76.098-2.863 1.894-2.383.72.194 3.664-2.31 8.154-6.937 5.577-5.738 6.944-7.594 6.604-8.958-.237-.947.004-2.61.534-3.702.835-1.72.535-1.698-2.258.148-4.63 3.06-5.56 3.406-5.812 2.165-.123-.606-.73-.628-1.347-.047-.617.58-.636 1.185-.04 1.344.592.158.627.715.072 1.237-.554.522-1.626.648-2.383.283-.79-.38-2.388.205-3.75 1.373-2.073 1.776 0-.767 10.005-12.293 3.478-4.005 2.942-4.61-1.344-1.51-2.074 1.497-4.72 3.27-5.888 3.94-1.998 1.152-2.012 1.058-.227-1.628 1.04-1.57 2.433-3.093 3.09-3.388.66-.294.72-.663.132-.82-.587-.157-2.08.63-3.32 1.75-2.154 1.948-2.208 1.94-1.22-.19.572-1.223 1.685-2.54 2.476-2.923.79-.387 2.427-2.462 3.638-4.614l2.198-3.913-2.643 2.4c-2.73 2.477-4.534 2.243-2.977-.385.486-.824 2.887-3.74 5.338-6.483 5.773-6.465 7.108-8.42 6.326-9.252-.352-.374-1.38.017-2.287.87-3.17 2.983-6.95 4.94-6.557 3.39.207-.798 1.073-2.116 1.924-2.928.852-.814 1.292-1.755.973-2.093-.81-.86-5.287 2.06-9.518 6.202-5.928 5.804-5.19 2.687 1.18-4.996 3.285-3.958 6.51-8.5 7.17-10.09.658-1.592 2.14-4.395 3.292-6.226 2.503-3.98 1.696-8.83-1.207-7.247-.92.503-2.67 2.153-3.89 3.668l-2.214 2.755.95-2.97c.52-1.632 1.923-3.892 3.114-5.022 3.052-2.897 4.673-5.756 3.446-6.085-.646-.174.39-1.306 2.75-2.997 2.166-1.553 3.192-2.633 2.394-2.522-1.46.205 12.15-18.942 19.357-27.232 3.846-4.425 4.526-6.688 3.026-10.088-1.018-2.307-2.97-1.1-12.2 7.568-4.582 4.3-9.94 8.92-11.903 10.27l-3.573 2.454 4.715-6.103c2.59-3.356 5.538-7.414 6.546-9.014 3.043-4.838 14.708-17.083 26.626-27.957 32.6-29.732 57.384-51.094 77.22-66.55 5.666-4.417 10.75-8.978 12.05-10.81 3.737-5.273 64.106-63.05 66.003-63.168.9-.057 4.574-2.508 8.166-5.448 3.595-2.937 7.524-5.544 8.73-5.787 6.847-1.385 15.066-7.477 29.168-21.624 6.32-6.337 7.594-7.29 9.317-6.97 2.12.396 2.935-.264 30.773-24.882 6.475-5.725 16.38-14.265 22.01-18.974 9.3-7.778 21.594-19.226 34.133-31.782 5.08-5.084 10.437-9.056 14.242-10.56 1.31-.518 10.425-8.29 20.255-17.27 10.592-9.677 18.303-16.217 18.928-16.05 1.23.33 10.97-6.715 24.288-17.573 5.17-4.214 12.123-9.64 15.45-12.054 11.05-8.027 29.656-24.72 31.936-28.655 1.138-1.966 1.713-3.67 1.28-3.788-.437-.118-3.143 1.518-6.014 3.635-4.942 3.645-5.094 3.69-2.824.837l2.395-3.012-4.5 2.506c-2.475 1.377-4.584 2.085-4.69 1.572-.26-1.28-5.762 2.357-6.664 4.41-.634 1.446-.433 1.527 1.556.62 1.365-.624-1.185 1.963-6.36 6.44-6.375 5.522-9.08 7.405-10.33 7.187-1.042-.188-3.667 1.264-6.877 3.8-7.6 6.012-10.36 7.792-10.56 6.82-.3-1.472 7.593-8.748 25.137-23.18 9.26-7.618 16.956-14.287 17.1-14.824.48-1.786 5.712-6.267 7.445-6.373.943-.06 5.03-3.002 9.147-6.59 4.09-3.565 9.298-7.634 11.566-9.04 2.272-1.41 6.808-5.023 10.09-8.03 7.363-6.76 25.615-20.983 26.876-20.943.512.014-1.516 2.376-4.502 5.25-2.987 2.874-6.992 6.79-8.897 8.7-1.907 1.912-3.535 3.147-3.617 2.744-.3-1.477-8.465 4.36-12.508 8.942-3.63 4.11-3.895 4.687-2.09 4.498 3.08-.328 1.198 1.104-5.358 4.08-6.332 2.88-9.417 5.448-9.748 8.128-.15 1.19-1.89 3.13-5.22 5.814l-5 4.03 4.234-2.446c3.856-2.223 4.183-2.248 3.655-.283-.47 1.737 2.543-.89 15.43-13.46 8.807-8.594 20.515-20.215 26.015-25.828 26.858-27.402 58.19-56.522 57.472-53.417-.236 1.03 5.947-4.47 17.485-15.54 14.76-14.17 18.29-17.22 20.372-17.59 3.627-.648 4.523.92 2.008 3.524-1.184 1.223-11.278 10.966-22.427 21.65-11.15 10.686-21.36 20.77-22.69 22.417-1.325 1.643-6.315 6.97-11.08 11.833-17.938 18.31-23.464 24.344-22.515 24.6.533.142 1.735-.457 2.665-1.333.93-.876 1.927-1.342 2.212-1.038.288.304-.748 1.547-2.302 2.76-2.396 1.87-2.516 2.142-.77 1.79 1.49-.296 5.074-3.52 13.09-11.78 13.71-14.127 20.683-20.613 22.536-20.97.786-.155 6.524-5.175 12.75-11.162 9.97-9.585 11.276-10.616 10.923-8.635-.398 2.218.764 2.97 2.5 1.62.49-.38 2.26-1.893 3.934-3.36 2.013-1.76 3.267-2.315 3.688-1.635.375.602 1.138.407 1.846-.47.66-.824 3.5-3.744 6.306-6.49 3.204-3.135 5.123-5.654 5.158-6.77.044-1.478-.17-1.59-1.26-.65-.766.66-1.088.645-.776-.037.786-1.703-1.174-1.92-3.02-.338-1.474 1.265-1.498 1.207-.373-.827 3.238-5.842 10.746-10.2 10.746-6.238.002 1.373.63.95 3.37-2.266 3.446-4.048 4.893-8.073 1.884-5.243-2.648 2.49-2.106-.216.75-3.754 1.754-2.168 3.86-3.774 6.004-4.58 2.537-.95 3.753-1.98 5.233-4.407 1.894-3.11 5.795-6.494 16.565-14.36 2.98-2.18 4.54-3.023 3.46-1.875-1.62 1.73-1.643 2.016-.138 1.667 1.196-.274 2.616-1.614 4.157-3.917 2.418-3.623 18.872-19.482 17.684-17.05-.37.752-.524 2.027-.343 2.83.18.8-.352 2.11-1.185 2.904-.834.795-1.705 2.166-1.932 3.05-.74 2.88 2.352.752 5.643-3.88 1.657-2.337 3.837-5.243 4.844-6.47 8.236-9.963 13.217-15.734 15.01-17.362 1.786-1.63 1.98-1.634 1.26-.05-4.897 10.733-17.05 27.294-21.37 29.118-2.697 1.138-8.352 6.528-12.183 11.618-1.818 2.41-4.09 4.463-6.067 5.482-2.506 1.288-3.388 2.275-4.268 4.772-.88 2.507-2.556 4.372-8.19 9.136-3.896 3.292-7.37 5.98-7.72 5.968-.35-.01-.717.583-.81 1.32-.092.732-1.116 2.63-2.273 4.213-1.94 2.65-2.184 2.735-3.093 1.065-.947-1.743-1.245-1.572-7.55 4.223-3.61 3.32-10.11 9.14-14.444 12.94-14.095 12.347-19.312 17.242-19.626 18.416-.17.635-5.3 5.9-11.397 11.7-6.098 5.8-10.85 10.8-10.563 11.108 1.115 1.185 19.093-14.833 46.207-41.173 6.197-6.02 12.546-11.775 14.107-12.787 2.706-1.755 2.747-1.748.872.16-1.392 1.418-1.55 2.018-.54 2.046.79.024 5.01-3.14 9.378-7.03 4.37-3.894 8.327-7.064 8.792-7.05.464.012.094.74-.824 1.604-1.6 1.513-1.544 1.547 1.45.734 2.508-.682 4.384-2.185 9.535-7.622 4.03-4.252 6.496-6.382 6.628-5.723.12.58-1.397 2.58-3.373 4.45-4.08 3.862-5.562 7.073-2.727 5.914.928-.382 3.184-2.424 5.015-4.542 2.03-2.346 3.902-3.832 4.798-3.802 1.047.032 2.23-1.063 4.106-3.788 1.448-2.107 5.086-5.855 8.085-8.33l5.452-4.502-1.43 3.22c-.785 1.766-3.953 5.726-7.04 8.8-3.084 3.07-5.52 6.113-5.406 6.756.285 1.642-8.203 12.514-9.733 12.47-.736-.023-.403-1.16.833-2.855 1.13-1.55 1.71-2.91 1.288-3.023-1.218-.328-12.082 10.832-11.588 11.9.244.523 1.092.338 1.887-.408.794-.748 1.7-1.086 2.012-.754.312.332-5.468 6.29-12.843 13.243-13.45 12.672-18.714 18.502-17.693 19.587.738.782 8.1-4.668 14.56-10.78 12.784-12.094 24.44-23.94 23.33-23.712-1.766.36 5.156-6.9 9.322-9.776 3.098-2.14 11.794-11.68 23.08-25.314 2.528-3.058 3.418-3.71 3.828-2.824.723 1.562-3.326 9.686-6.268 12.57-1.307 1.28-2.752 3.186-3.208 4.23-1.21 2.788 4.732-2.766 6.21-5.802.627-1.288 1.8-2.612 2.612-2.945 1.16-.473 1.29.062.616 2.497-.47 1.706-1.574 4.16-2.452 5.454-.878 1.295-1.778 3.727-2 5.402l-.402 3.045 3.788-4.308c2.086-2.37 4.888-5.642 6.23-7.272 1.487-1.804 1.08-.79-1.04 2.6-6.075 9.696-5.05 9.364 7.415-2.408 10.917-10.312 8.025-5.73-4.408 6.98-6.31 6.456-11.79 12.68-12.182 13.84-.39 1.154-2.162 3.682-3.94 5.614-3.878 4.22-4.77 5.78-3.496 6.122 1.438.385-2.666 6.356-10.67 15.525-3.953 4.526-7.436 8.948-7.742 9.83-.307.88-3.65 5.14-7.427 9.467-4.523 5.183-6.93 8.614-7.046 10.056-.12 1.456-.938 2.613-2.44 3.452-2.14 1.197-3.5 3.354-6.4 10.153-.698 1.638-4.02 6.206-7.382 10.157-4.967 5.838-6.05 7.625-5.776 9.516.327 2.263-.227 2.85-17.83 18.954-9.996 9.143-17.952 16.857-17.68 17.144.27.287.864.168 1.322-.263.515-.486.8-.316.745.445-.08 1.224-7.537 10.025-8.465 10l-.003-.006.002.003-.002.003zM50.447 737.748c-.687.27-1.263.856-1.276 1.303-.015.45.55.228 1.25-.492.777-.792.787-1.11.025-.81h.002zm584.485-554.083c2.115-3.898 10.053-12.24 11.322-11.9 1.078.29 11.25-9.244 13.803-12.943 2.004-2.9 1.104-4.293-1.59-2.462-3.61 2.456 5.758-9.25 12.763-15.953 3.977-3.802 6.442-6.694 6.056-7.105-.837-.89-58.355 53.135-58.922 55.342-.293 1.14.445.998 2.756-.544 6.403-4.272 5.842-3.636-12.464 14.167-5.22 5.075-6.575 7.51-3.87 6.96 1.098-.228 1.242.094.627 1.363-1.795 3.712 2.23.615 14.768-11.372 7.628-7.29 13.79-13.793 14.748-15.557h.002v.003l.002.002zm-26.55 22.272c1.03-1.562 2.515-3.003 3.3-3.2.81-.202 0 1.03-1.874 2.844-3.162 3.07-3.223 3.078-1.427.353v.002l.002.002zm29.945-32.093c-1.407.663-.552-.27 2.256-2.462 2.488-1.94 4.76-3.534 5.048-3.55 1.016-.04-5.062 4.966-7.303 6.012zm48.343-42.183c-.483-1.177-1.433-.608-5.7 3.405-2.815 2.648-5.454 5.504-5.86 6.346-1.394 2.903 2.018 1.146 7.18-3.685 3.777-3.537 4.823-4.99 4.383-6.062l-.003-.002zm-88.714 56.66c5.41-5.112 7.183-8.72 2.796-5.702-8.418 5.795-10.198 7.433-8.797 8.108 1.26.606.92 1.72-.9 2.884-.4.258-1.045 1.12-1.43 1.914-.59 1.222-.456 1.394.858 1.127.9-.184 1.805-1.062 2.153-2.096.33-.976 2.72-3.78 5.316-6.23l.004-.003zm36.768-35.667l1.5-2.572-3.157 1.977c-3.46 2.164-11.722 10.745-12.255 12.73-.186.685.093 1.36.62 1.5 1.14.306 11.15-9.964 13.292-13.634v.002-.002zm4.446-5.69c-.36-.383-1.1-.273-1.65.245-.55.515-.9 1.432-.778 2.036.123.6.864.492 1.648-.246.786-.74 1.133-1.657.776-2.036h.004zm-51.3 46.872c-.38-.403-.82-.248-.98.348-.16.592-.16 1.216-.006 1.384.157.166.6.01.98-.347.38-.36.382-.982.003-1.386h.003zm33.85-33.926c1.526-2 1.772-2.847.774-2.653-2.936.57-13.077 11.6-11.135 12.12 1.092.294 7.104-5.198 10.367-9.468h-.006zm-114.182 76c-1.017.644-2.258 1.825-2.758 2.623-.5.795.333.265 1.852-1.174 1.518-1.445 1.924-2.097.906-1.45zm-26.962 22.365c-.597-.16-2.047.676-3.23 1.86-2.05 2.053-2.044 2.1.11 1.076 3.24-1.545 4.36-2.6 3.12-2.935zM57.412 763.47c-2.288 1.424-1.902.84 1.87-2.81 3.144-3.05 4.62-4.07 4.347-3.02-.456 1.775-1.958 3.184-6.22 5.83h.005-.003zm-41.41 9.006c-2.384 1.802-4.782 3.265-5.336 3.248-.553-.016.513-1.18 2.37-2.583 1.858-1.4 5.52-4.267 8.135-6.372 2.618-2.102 5.076-3.814 5.465-3.8.864.026-4.797 5.088-10.634 9.51v-.002zM727.14 96.7c4.594-6.74 13.924-17.653 13.91-16.274-.01 1.193-10.507 14.514-13.618 17.28l-2.49 2.216 2.197-3.222zm-1.49-10.99c.012-.45.587-1.035 1.274-1.307.763-.297.752.022-.024.813-.7.72-1.264.94-1.25.494zm4.053-4.375c-.12-.583 1.69-2.852 4.018-5.042 5.293-4.976 5.366-4.308.17 1.59-2.49 2.827-4.053 4.115-4.185 3.452h-.003zm9.753-10.437c-.123-.606.308-1.59.958-2.192 1.02-.943 1.127-.864.776.56-.533 2.15-1.45 3.014-1.732 1.627l-.002.002v.003zM641.82 141.06c.012-.45.587-1.036 1.275-1.305.762-.3.75.018-.025.81-.7.72-1.264.938-1.25.493v.003zm-7.658 2.654c-2.304 1.36-2.38 1.34-.87-.23.905-.946 3.105-3.457 4.878-5.578 2.773-3.317 3.383-3.698 4.327-2.693.903.96.478 1.7-2.356 4.09-1.902 1.61-4.596 3.594-5.983 4.41h.005zm69.525-66.078c.013-.45.587-1.036 1.275-1.305.76-.3.75.02-.026.81-.706.72-1.267.942-1.25.493v.002zm-30.865 18.587c.012-.448.587-1.035 1.275-1.305.762-.3.75.02-.024.81-.7.72-1.265.94-1.25.493v.003zm-11.66 5.572c-3.773 3.225-5.56 4.25-6.564 3.77-1.13-.548-.852-1.003 1.534-2.533 1.67-1.07 5.844-5.65 9.794-10.75 5.028-6.492 6.22-8.47 4.427-7.33-1.862 1.18-1.394.34 1.944-3.49 2.415-2.775 5.495-6.067 6.84-7.312 2.338-2.17 2.426-2.166 2.058.104-.242 1.488-1.322 3.014-2.9 4.094-1.654 1.127-4.107 4.744-7.12 10.49-2.53 4.826-4.652 8.718-4.715 8.65-.065-.067-2.45 1.868-5.303 4.307h.007zm-198.596 176.55c.014-.448.59-1.035 1.275-1.304.765-.302.754.02-.024.808-.7.72-1.264.94-1.25.494v.004zm108.458-103.463c.702-.976 2.106-2.297 3.12-2.936 1.012-.644.434.152-1.28 1.766-1.713 1.615-2.54 2.14-1.84 1.17zM454.63 282.787l-3.525 2.504 3.047-3.706c1.674-2.038 3.35-3.555 3.718-3.376.37.19 1.51-.72 2.535-2.01 1.287-1.63 1.94-1.97 2.115-1.11.265 1.303-1.998 3.513-7.888 7.703v-.002h-.002zm-48.48 43.272c.7-.974 2.105-2.295 3.12-2.934 1.012-.643.434.152-1.28 1.765-1.715 1.615-2.542 2.14-1.84 1.17zm128.235-121.017c-2.136.395 9.326-10.387 12.133-11.41 1.287-.467-.157 1.295-4.257 5.2-3.408 3.25-6.953 6.044-7.875 6.214h-.003v-.002l.003-.002zm90.892-85.427c-1.264.246-1.307-.097-.215-1.62.763-1.058 2.55-2.878 3.965-4.043 1.42-1.167 3.57-2.943 4.782-3.945 1.713-1.423 2.116-1.46 1.798-.177-.518 2.092-8.203 9.376-10.328 9.786h-.002zm-44.802 39.964l-5.96 4.083 6.767-6.354c3.724-3.494 6.993-6.112 7.267-5.82.918.98-2.078 3.983-8.075 8.09zm27.947-26.992c-1.41.735-1.085.16 1.073-1.896 1.704-1.625 3.975-3.276 5.045-3.664 2.34-.854-2.83 3.844-6.117 5.56zM407.5 317.805c-1.81-3.32-.73-6.05 3.852-9.734 4.45-3.582 10.29-6.41 13.064-6.326 1.877.057 1.898.027-8.498 10.22-7.018 6.88-7.626 7.3-8.42 5.84h.002zm83.825-76.96c.012-.447.59-1.034 1.275-1.304.76-.298.748.02-.028.81-.7.723-1.264.943-1.25.496h.003zm7.893-7.555c.7-.973 2.105-2.295 3.118-2.933 1.013-.644.435.15-1.278 1.765-1.714 1.61-2.542 2.14-1.837 1.164v.002l-.002.002zm-71.385 65.46c-.36-.38.147-1.443 1.12-2.36 1.01-.946 1.87-1.196 2-.574.12.602-.382 1.664-1.123 2.36-.74.702-1.64.958-1.998.58v-.006zm17.27-18.22c-2.006.236-2.052.017-.646-3.148 1.055-2.382 2.282-3.793 4.08-4.694 1.853-.926 2.205-.904 1.253.088-1.076 1.12-1.02 1.316.305 1.06 2.107-.41 1.984.265-.663 3.653-1.38 1.763-2.96 2.87-4.33 3.036h-.002l.002.003h.002zM902.87 559.257V402.86c23.886-24.338 63.098-59.043 108.17-59.043 13.97 0 19.38 14.874 19.38 39.212v176.227h37.86V383.03c0-47.776-16.226-77.072-57.24-77.072-40.565 0-80.678 26.592-108.17 53.184v-47.776h-37.86v247.89h37.86zm238.875-247.89v247.89h37.41v-247.89h-37.41zm-4.507-76.17c0 13.52 9.916 23.436 23.437 23.436 13.07 0 22.986-9.915 22.986-23.437 0-13.07-9.914-22.986-22.985-22.986-13.52 0-23.437 9.916-23.437 22.986zm122.143-45.523v303.78c0 16.676 0 40.113 15.776 55.887 13.972 13.973 41.014 15.326 54.986 15.326l1.352-32c-12.62 0-22.084-2.705-28.845-9.466-5.86-5.86-5.86-19.38-5.86-29.747v-303.78h-37.41zm111.777 248.342c0 68.057 36.057 126.65 108.17 126.65 18.48 0 54.536 1.802 99.607-54.086l-22.986-22.085c-34.254 45.072-63.55 43.72-76.62 43.72-47.776 0-73.016-40.114-70.762-98.706h169.016v-17.58c0-17.577-7.662-109.972-100.057-109.972-64.903 0-106.368 59.944-106.368 132.058zm106.368-99.607c42.366 0 57.69 36.506 61.747 61.746h-125.748c9.915-34.704 30.648-61.747 64-61.747zm205.073 220.847V402.86c23.887-24.338 63.1-59.043 108.17-59.043 13.972 0 19.38 14.874 19.38 39.212v176.227h37.86V383.03c0-47.776-16.225-77.072-57.24-77.072-40.564 0-80.677 26.592-108.17 53.184v-47.776h-37.86v247.89h37.86zm266.82-182.538c0-33.353 28.395-39.213 41.466-39.213 22.085 0 41.916 8.113 53.634 20.733l24.34-23.437c-17.58-17.577-45.523-28.845-77.974-28.845-23.888 0-78.875 10.366-78.875 70.76 0 46.424 40.113 59.946 77.972 71.214 26.592 8.112 55.888 17.577 55.888 43.268 0 28.395-24.338 41.916-49.127 41.916-28.845-.45-58.142-15.324-71.663-40.113l-26.14 21.183c21.182 33.803 60.394 50.48 96.902 50.48 43.718 0 87.437-23.437 87.437-73.466 0-53.184-42.367-65.353-82.48-77.522-26.142-8.113-51.382-15.775-51.382-36.96zm180.285 58.592c0 97.804 53.634 129.354 107.72 129.354 54.085 0 107.72-33.804 107.72-129.354 0-94.2-53.635-129.354-107.72-129.354-54.086 0-107.72 34.704-107.72 129.354zm177.58 0c0 72.564-35.607 98.705-69.86 98.705-34.255 0-69.86-27.493-69.86-98.705 0-72.114 35.605-98.255 69.86-98.255 34.253 0 69.86 28.395 69.86 98.255z"/></g></svg>