<svg width="2505" height="780" viewBox="0 0 2505 780" xmlns="http://www.w3.org/2000/svg"><title>logo-uncommon</title><path d="M40.89 382.252c0-17.1-5.762-25.65-17.28-25.65-2.79 0-5.93.348-9.423 1.044-1.39.348-2.79.522-4.187.522l3.14-30.887a2713.272 2713.272 0 0 0 33.765-5.497c10.23-1.72 20.44-3.552 30.627-5.497L108.94 310l5.234 8.898c-2.088 4.19-3.927 11.346-5.492 21.47-1.573 10.122-3.057 21.99-4.448 35.603-1.4 13.614-2.446 28.275-3.144 43.98a1053.138 1053.138 0 0 0-1.05 46.603c0 28.272 10.82 42.41 32.456 42.41 7.678 0 15.272-2.094 22.775-6.282a374.92 374.92 0 0 0 21.724-13.09V382.78c0-10.125-1.483-16.845-4.448-20.158-2.967-3.318-8.988-5.15-18.06-5.5-1.397 0-3.142.084-5.237.26-2.093.174-3.316.26-3.663.26l4.19-30.366a5065.22 5065.22 0 0 1 34.287-5.237 925.89 925.89 0 0 0 31.67-5.23 662.768 662.768 0 0 0 31.93-5.766l5.235 8.905c-2.096 4.187-3.927 11.606-5.498 22.25-1.57 10.646-3.057 23.563-4.448 38.744-1.397 15.186-2.445 32.028-3.144 50.53a1518.64 1518.64 0 0 0-1.048 57.065c0 6.635 1.57 11.87 4.71 15.707 3.142 3.84 7.68 5.76 13.612 5.76a29.666 29.666 0 0 0 8.9-1.31 82.105 82.105 0 0 0 7.853-2.877 58.46 58.46 0 0 0 7.853-4.712l8.374 10.998c-5.58 9.072-11.515 17.1-17.797 24.084a130.262 130.262 0 0 1-17.798 17.54c-6.63 5.41-13.09 8.987-19.37 10.732-31.757 0-49.557-13.437-53.396-40.314l-4.188-2.095c-13.26 12.566-25.297 22.692-36.117 30.367-10.82 7.68-18.15 11.52-21.988 11.52-26.873 0-47.29-5.585-61.248-16.752-13.958-11.172-20.938-27.58-20.938-49.22l3.663-115.716zM454.963 529.38c8.375-2.093 14.398-5.32 18.06-9.686 3.666-4.365 5.672-10.91 6.022-19.635l1.573-89.534c0-30.372-11.168-45.553-33.504-45.553-8.722 0-17.27 2.44-25.65 7.327-8.374 4.89-14.83 8.903-19.368 12.044-.696 9.425-1.31 20.157-1.83 32.2-.523 12.04-1.05 23.735-1.572 35.076a3708.92 3708.92 0 0 0-1.31 30.894c-.347 9.246-.52 15.62-.52 19.108 0 9.08 1.132 15.276 3.403 18.59 2.26 3.317 6.366 4.972 12.3 4.972h3.663c1.39 0 2.964-.174 4.71-.522 1.393 0 3.142-.174 5.235-.522l1.57 2.617-5.757 32.987c-6.982 0-13.612-.174-19.894-.522a578.58 578.58 0 0 0-18.322-.788 627.54 627.54 0 0 0-17.27-.26c-6.984 0-14.14.173-21.466.52-7.33.35-13.96.697-19.893 1.05a424.04 424.04 0 0 1-20.938 1.566l4.19-33.504c10.12-1.05 17.186-3.666 21.2-7.854 4.015-4.19 6.02-11.172 6.02-20.944V389.062c0-12.22-1.744-20.505-5.233-24.872-3.492-4.362-10.296-6.544-20.417-6.544h-6.81l-2.086-2.617 3.14-27.75a1146.81 1146.81 0 0 0 35.336-5.76 2527.842 2527.842 0 0 0 31.147-5.76A614.717 614.717 0 0 0 401.57 310l4.186 5.237a136.73 136.73 0 0 0-2.617 11.517c-1.397 6.636-2.443 14.838-3.142 24.61l2.098 2.096c5.2-4.317 10.435-8.592 15.705-12.825a364.794 364.794 0 0 1 19.11-14.403c6.454-4.536 12.65-8.376 18.58-11.517 5.935-3.144 10.647-4.715 14.136-4.715 25.123 0 44.58 5.933 58.365 17.8 13.788 11.87 20.676 28.623 20.676 50.266 0 5.235-.522 13.352-1.566 24.345a2971.248 2971.248 0 0 0-3.14 35.344 6110.814 6110.814 0 0 1-3.142 36.392c-1.05 11.69-1.573 20.68-1.573 26.967 0 9.072 1.218 15.442 3.663 19.108 2.445 3.664 6.635 5.5 12.567 5.5h9.947c1.745 0 3.663-.175 5.758-.523l1.044 2.092-4.71 32.46c-7.33 0-14.308-.175-20.938-.523a582.533 582.533 0 0 0-18.846-.785 668.146 668.146 0 0 0-17.276-.26c-5.233 0-11.257.173-18.058.52-6.81.35-13.176.87-19.11 1.572-6.978.695-14.132 1.396-21.46 2.095l3.138-32.988v-.002zm331.37-31.416l8.374 27.228c-9.423 7.332-18.67 13.968-27.745 19.898a221.867 221.867 0 0 1-25.65 13.352c-9.07 4.014-17.62 6.02-25.645 6.02-17.803 0-33.856-2.792-48.164-8.376-14.31-5.585-26.436-13.613-36.38-24.084-9.948-10.474-17.627-23.127-23.037-37.96-5.41-14.838-8.113-31.677-8.113-50.53 0-19.545 3.14-37.52 9.423-53.926 6.282-16.404 15.094-30.454 26.435-42.148 11.344-11.694 24.776-20.853 40.307-27.49 15.53-6.63 32.717-9.948 51.563-9.948 9.773 0 18.762.61 26.962 1.832 8.2 1.223 15.268 2.53 21.202 3.927 6.63 1.396 12.738 3.14 18.322 5.236l2.09 4.712c-1.743 7.332-3.314 15.36-4.71 24.084-1.392 7.332-2.704 15.882-3.927 25.655a510.944 510.944 0 0 0-2.877 31.415l-34.027 2.096v-17.28c0-24.78-10.82-37.174-32.455-37.174-16.053 0-28.18 5.846-36.386 17.54-8.2 11.694-12.3 28.88-12.3 51.573 0 28.622 4.887 50.44 14.66 65.45 9.77 15.006 23.906 22.512 42.402 22.512 6.977 0 13.87-.787 20.675-2.357 6.81-1.57 12.827-3.23 18.06-4.97 6.288-2.1 11.87-4.716 16.757-7.855l4.187 1.566h-.006zM930.29 564.46c-16.75 0-31.932-2.88-45.54-8.638-13.61-5.76-25.302-13.876-35.073-24.347-9.774-10.474-17.276-23.04-22.515-37.704-5.23-14.656-7.852-31.062-7.852-49.21 0-19.9 3.056-38.137 9.165-54.715 6.108-16.578 14.743-30.805 25.913-42.675 11.168-11.866 24.515-21.027 40.046-27.49C909.968 313.23 927.15 310 946 310c17.097 0 32.454 2.794 46.065 8.376 13.61 5.587 25.215 13.528 34.814 23.825 9.59 10.298 16.922 22.862 21.984 37.698 5.06 14.838 7.59 31.503 7.59 50.002 0 19.898-3.057 38.137-9.16 54.717-6.108 16.578-14.662 30.804-25.653 42.675-10.995 11.865-24.253 21.027-39.784 27.484-15.53 6.457-32.72 9.686-51.564 9.686l-.002-.003zm10.472-40.315c30.014 0 45.02-23.388 45.02-70.164 0-33.502-4.453-58.374-13.35-74.606-8.898-16.23-21.725-24.345-38.477-24.345-30.014 0-45.02 23.387-45.02 70.158 0 33.508 4.448 58.382 13.35 74.612 8.895 16.23 21.718 24.345 38.472 24.345h.005zm295.248 5.235c8.374-2.093 14.395-5.32 18.06-9.686 3.666-4.365 5.67-10.91 6.022-19.635l1.57-89.534c0-30.372-11.167-45.553-33.505-45.553-8.722 0-17.27 2.44-25.65 7.327-8.375 4.89-14.836 9.077-19.368 12.566-.697 9.425-1.31 20.157-1.835 32.202a9167.72 9167.72 0 0 1-1.57 34.82c-.523 11.168-.96 21.375-1.308 30.626-.348 9.25-.522 15.62-.522 19.113 0 9.072 1.13 15.27 3.4 18.586 2.27 3.316 6.37 4.97 12.3 4.97h3.666c1.397 0 2.968-.173 4.712-.52 1.4 0 3.144-.175 5.24-.523l1.57 2.617-5.758 32.987c-6.983 0-13.61-.174-19.893-.522a578.9 578.9 0 0 0-18.32-.788 628.026 628.026 0 0 0-17.276-.26c-6.983 0-14.135.086-21.463.26-7.33.174-13.96.435-19.892.786-6.978.348-13.958.522-20.938.522l4.19-32.982c10.118-.7 17.186-3.057 21.196-7.07 4.016-4.018 6.024-10.912 6.024-20.685V389.062c0-12.22-1.745-20.505-5.236-24.872-3.49-4.362-10.295-6.544-20.414-6.544h-6.81l-2.09-2.617 3.14-27.75a1146.81 1146.81 0 0 0 35.336-5.76 2510.888 2510.888 0 0 0 31.147-5.76 614.716 614.716 0 0 0 30.884-5.76l4.185 5.237c-1.038 3.8-1.91 7.642-2.617 11.517-1.4 6.636-2.445 14.838-3.144 24.61l1.572 1.572a2357.56 2357.56 0 0 0 16.49-12.825 339.95 339.95 0 0 1 19.368-14.14c6.456-4.36 12.65-8.114 18.588-11.255 5.93-3.144 10.467-4.715 13.608-4.715 40.48 0 65.26 14.66 74.334 43.98 3.84-3.49 8.988-7.68 15.444-12.564a580.99 580.99 0 0 1 19.895-14.4c6.803-4.713 13.262-8.725 19.367-12.043 6.108-3.313 10.91-4.97 14.396-4.97 25.128 0 44.58 5.932 58.372 17.8 13.782 11.868 20.676 28.622 20.676 50.266 0 5.233-.52 13.35-1.57 24.344a3081.825 3081.825 0 0 0-3.138 35.342 5721.054 5721.054 0 0 1-3.142 36.392c-1.043 11.692-1.57 20.68-1.57 26.967 0 9.072 1.312 15.442 3.926 19.108 2.62 3.664 6.896 5.498 12.828 5.498h9.947c1.746 0 3.664-.173 5.76-.52l1.043 2.092-5.23 32.46c-6.984 0-13.962-.174-20.942-.522a579.276 579.276 0 0 0-19.11-.786c-6.8-.174-12.648-.26-17.533-.26-5.233 0-11.083.173-17.537.52-6.456.35-12.648.697-18.583 1.05-6.635.348-13.438.696-20.42 1.044l3.142-33.504c8.026-1.05 13.697-3.58 17.012-7.595 3.315-4.018 5.148-10.564 5.496-19.636l1.57-89.533c0-30.37-11.167-45.552-33.502-45.552-8.374 0-16.664 2.267-24.865 6.805-8.204 4.538-14.573 8.55-19.108 12.042l-6.81 117.283c0 9.077 1.136 15.447 3.405 19.113 2.27 3.664 6.37 5.5 12.3 5.5h9.426c1.745 0 3.49-.175 5.234-.523l1.044 2.092-5.233 32.46c-6.983 0-13.784-.175-20.417-.523a593.6 593.6 0 0 0-18.322-.785c-6.282-.174-11.865-.26-16.748-.26-5.236 0-11.257.173-18.066.52-6.802.35-13.17.87-19.105 1.572a4872.29 4872.29 0 0 1-21.464 2.095l3.14-32.988.004-.002zm439.206 0c8.374-2.093 14.398-5.32 18.06-9.686 3.666-4.365 5.672-10.91 6.022-19.635l1.57-89.534c0-30.372-11.167-45.553-33.502-45.553-8.723 0-17.276 2.44-25.653 7.327-8.374 4.89-14.83 9.077-19.368 12.566-.77 10.724-1.38 21.46-1.83 32.202-.52 12.042-1.048 23.65-1.57 34.82a3399.457 3399.457 0 0 0-1.31 30.626c-.347 9.25-.52 15.62-.52 19.113 0 9.072 1.132 15.27 3.404 18.586 2.26 3.316 6.365 4.97 12.3 4.97h3.662c1.392 0 2.962-.173 4.71-.52 1.39 0 3.14-.175 5.233-.523l1.573 2.617-5.758 32.987c-6.983 0-13.61-.174-19.892-.522a578.096 578.096 0 0 0-18.32-.788c-6.282-.174-12.04-.26-17.276-.26-6.982 0-14.134.086-21.463.26-7.33.174-13.966.435-19.895.786a420.6 420.6 0 0 1-20.94.522l4.188-32.982c10.122-.7 17.186-3.057 21.202-7.07 4.013-4.018 6.02-10.912 6.02-20.685V389.062c0-12.22-1.746-20.505-5.235-24.872-3.49-4.362-10.292-6.544-20.414-6.544h-6.81l-2.086-2.617 3.138-27.75a1146.81 1146.81 0 0 0 35.337-5.76 2535.46 2535.46 0 0 0 31.145-5.76 614.718 614.718 0 0 0 30.88-5.76l4.188 5.237c-1.038 3.8-1.91 7.642-2.617 11.517-1.395 6.636-2.442 14.838-3.14 24.61l1.57 1.572a2357.56 2357.56 0 0 0 16.49-12.825 339.95 339.95 0 0 1 19.37-14.14c6.455-4.36 12.648-8.114 18.587-11.255 5.927-3.144 10.462-4.715 13.605-4.715 40.48 0 65.26 14.66 74.337 43.98 3.836-3.49 8.984-7.68 15.44-12.564 6.53-4.94 13.16-9.74 19.893-14.4 6.804-4.713 13.26-8.725 19.366-12.043 6.107-3.313 10.908-4.97 14.397-4.97 25.123 0 44.58 5.932 58.367 17.8 13.785 11.868 20.676 28.622 20.676 50.266 0 5.233-.522 13.35-1.566 24.344a3021.967 3021.967 0 0 0-3.144 35.342 5544.766 5544.766 0 0 1-3.14 36.392c-1.044 11.692-1.57 20.68-1.57 26.967 0 9.072 1.308 15.442 3.925 19.108 2.62 3.664 6.894 5.498 12.823 5.498h9.95c1.744 0 3.663-.173 5.757-.52l1.044 2.092-5.232 32.46c-6.983 0-13.96-.174-20.94-.522a579.276 579.276 0 0 0-19.11-.786c-6.802-.174-12.65-.26-17.535-.26-5.233 0-11.083.173-17.536.52-6.456.35-12.65.697-18.583 1.05-6.635.348-13.437.696-20.417 1.044l3.14-33.504c8.028-1.05 13.698-3.58 17.016-7.595 3.315-4.018 5.144-10.564 5.492-19.636l1.573-89.533c0-30.37-11.168-45.552-33.503-45.552-8.374 0-16.664 2.267-24.865 6.805-8.2 4.538-14.57 8.55-19.11 12.042l-6.803 117.283c0 9.077 1.135 15.447 3.404 19.113 2.267 3.664 6.37 5.5 12.302 5.5h9.423c1.744 0 3.49-.175 5.233-.523l1.05 2.092-5.237 32.46a389.52 389.52 0 0 1-20.413-.523 594.105 594.105 0 0 0-18.325-.785c-6.28-.174-11.866-.26-16.75-.26-5.234 0-11.256.173-18.06.52-6.808.35-13.175.87-19.11 1.572a4872.29 4872.29 0 0 1-21.462 2.095l3.14-32.988.006-.002zm396.805 35.08c-16.748 0-31.932-2.88-45.542-8.638-13.61-5.76-25.302-13.876-35.073-24.347-9.774-10.474-17.276-23.04-22.514-37.704-5.23-14.656-7.852-31.062-7.852-49.21 0-19.9 3.057-38.137 9.165-54.715 6.108-16.578 14.746-30.805 25.913-42.675 11.168-11.866 24.515-21.027 40.046-27.49 15.53-6.45 32.718-9.68 51.564-9.68 17.102 0 32.454 2.794 46.067 8.376 13.61 5.587 25.215 13.528 34.815 23.825 9.592 10.298 16.923 22.862 21.984 37.698 5.06 14.838 7.59 31.503 7.59 50.002 0 19.898-3.057 38.137-9.16 54.717-6.108 16.578-14.662 30.804-25.653 42.675-10.994 11.865-24.254 21.027-39.786 27.484-15.53 6.457-32.717 9.686-51.563 9.686v-.003zm10.47-40.315c30.014 0 45.02-23.388 45.02-70.164 0-33.502-4.447-58.374-13.35-74.606-8.895-16.23-21.723-24.345-38.474-24.345-30.014 0-45.02 23.387-45.02 70.158 0 33.508 4.447 58.382 13.35 74.612 8.895 16.23 21.723 24.345 38.474 24.345zm295.248 5.235c8.374-2.093 14.395-5.32 18.06-9.686 3.666-4.365 5.672-10.91 6.022-19.635l1.57-89.534c0-30.372-11.167-45.553-33.505-45.553-8.722 0-17.27 2.44-25.65 7.327-8.374 4.89-14.835 8.903-19.368 12.044a1069.84 1069.84 0 0 0-1.834 32.2c-.522 12.04-1.044 23.735-1.57 35.076-.522 11.346-.96 21.643-1.308 30.894-.348 9.246-.52 15.62-.52 19.108 0 9.08 1.132 15.276 3.398 18.59 2.27 3.317 6.37 4.972 12.3 4.972h3.67c1.39 0 2.963-.174 4.708-.522 1.392 0 3.14-.174 5.234-.522l1.57 2.617-5.757 32.987c-6.978 0-13.608-.174-19.89-.522a578.58 578.58 0 0 0-18.322-.788 628.026 628.026 0 0 0-17.276-.26c-6.98 0-14.133.173-21.46.52-7.332.35-13.962.697-19.894 1.05a424.24 424.24 0 0 1-20.943 1.566l4.19-33.504c10.12-1.05 17.186-3.666 21.197-7.854 4.015-4.19 6.023-11.172 6.023-20.944V389.062c0-12.22-1.744-20.505-5.236-24.872-3.49-4.362-10.295-6.544-20.414-6.544h-6.81l-2.09-2.617 3.14-27.75a1146.81 1146.81 0 0 0 35.337-5.76 2527.807 2527.807 0 0 0 31.147-5.76 614.717 614.717 0 0 0 30.888-5.76l4.185 5.237c-1.038 3.8-1.91 7.642-2.617 11.517-1.396 6.636-2.443 14.838-3.14 24.61l2.094 2.096c5.2-4.317 10.436-8.592 15.705-12.825a364.79 364.79 0 0 1 19.11-14.403c6.453-4.536 12.648-8.376 18.58-11.517 5.932-3.144 10.643-4.715 14.132-4.715 25.13 0 44.586 5.933 58.373 17.8 13.784 11.87 20.675 28.623 20.675 50.266 0 5.235-.522 13.352-1.57 24.345a3136.31 3136.31 0 0 0-3.14 35.344 5544.778 5544.778 0 0 1-3.142 36.392c-1.044 11.69-1.57 20.68-1.57 26.967 0 9.072 1.222 15.442 3.664 19.108 2.443 3.664 6.63 5.5 12.565 5.5h9.94c1.748 0 3.666-.175 5.764-.523l1.044 2.092-4.712 32.46c-7.33 0-14.31-.175-20.94-.523a582.535 582.535 0 0 0-18.845-.785 668.147 668.147 0 0 0-17.275-.26c-5.233 0-11.257.173-18.06.52-6.805.35-13.17.87-19.11 1.572-6.976.695-14.13 1.396-21.46 2.095l3.14-32.988.003-.002z" fill="#000" fill-rule="evenodd"/></svg>