<svg width="2492" height="770" viewBox="0 0 2492 770" xmlns="http://www.w3.org/2000/svg"><title>logo-nilenso</title><g fill="#000" fill-rule="evenodd"><path d="M379.41 110.945c15.97-6.678-48.424 34.48-32.377 27.86 4.987-2.05 11.825-3.915 16.497-6.87-1.872.335-10.663 2.597-12.516 2.932 2.484-2.726 5.848-4.08 8.872-5.34 2.385-.986 5.835-.67 5.638-4.867-.04-.532 1.577-1.478 2.523-1.636 3.37-.53 6.762-.768 10.133-1.24.848-.12 1.597-.868 2.444-1.163 2.03-.67 4.1-1.632 6.17-1.71 11.79-.415 23.578-.966 35.386-.75 13.504.237 26.653 3.31 39.664 6.915 5.283 1.458 10.763 2.167 16.066 3.527 4.16 1.045 8.34 2.207 12.262 3.9 12.104 5.36 24.327 10.62 36.115 16.688 9.56 4.926 18.61 10.875 27.717 16.648 4.515 2.876 8.556 6.5 12.873 9.712 11.907 8.807 21.606 19.918 31.838 30.438 1.202 1.242 2.09 2.778 3.154 4.197.312.413.53 1.182.943 1.28 7.176 1.675 7.432 9.004 11.178 13.495.474.61.83 1.4 1.28 2.01.258.276.653.414 2.05 1.202-.983-2.287-1.417-3.744-2.186-4.986-8.3-12.983-16.6-25.966-25.076-38.83-1.656-2.522-4.08-4.61-6.388-6.6-1.734-1.497-12.577 2.673-10.96-.598.138-.275-12.744-4.785-13.237-5.238-4.534-4.492-58.993-38.133-63.132-43.492-3.784-4.905 32.678 10.4 27.06 6.953-4.89-3.035-15.422-18.545-20.133-21.795-2.8-1.93 26.013 19.842 23.53 17.26.157-.078-31.395-33.174-31.06-32.958 2.523 1.754 16.23 8.1 18.655 9.99-2.637-15.126 30.95 15.24 31.285 15.4 4.81 1.95 16.296 4.762 20.988 6.93 3.35 1.555 7.467 4.573 10.7 6.307 4.18 2.226 2.633 3.058 6.85 5.225 1.165.63 12.203 10.69 13.03 11.715 2.05 2.502-15.31 6.27-12.43 4.085.965.807 1.95 1.635 2.916 2.443-.354-6.324-6.346-8.058-9.264-12.45a620.028 620.028 0 0 1 6.346 3.82c-.67-1.753-1.045-2.62-1.38-3.506.236-.217.493-.434.73-.67.768 1.024 2.306 2.147 2.168 3.034-.592 4 11.834 5.49 14.378 6.75 3.47 1.715-2.47 2.708 1.688 4.48-.157.14.514-.412 1.834-1.44.257.555.65 1.047.69 1.54.414 5.694 5.205 8.156 8.477 11.76 8.676 9.537 17.173 19.15 23.48 30.518 1.913 3.487 4.91 6.403 6.8 9.91 5.305 9.732 10.293 19.622 15.36 29.512 4.2 8.195 8.397 16.41 10.86 25.394 3.293 12.116 7.335 24.035 10.094 36.27 2.88 12.844 4.516 25.926 6.704 38.928.04.12.06.256.06.394.788 12.432.71 25 2.542 37.255 1.813 12.098-1.006 23.604-2.366 35.267-1.006 8.49-4.416 16.667-6.427 25.04-1.99 8.215-3.51 16.568-5.342 24.882-.453 2.106-1.24 4.194-1.912 6.263.356.158.69.276 1.046.414.375-.71.65-1.438 1.084-2.108.355-.63.77-1.203 2.05-1.44-.55 1.813-1.005 3.685-1.714 5.4-3.983 9.514-7.984 18.99-12.144 28.407-.453 1.104-1.912 1.754-2.7 2.76-.986 1.24-2.72 3.446-2.347 3.9 3.667 5.003-1.4 8.215-2.82 11.603-3.015 7.21-7.312 13.99-11.787 20.47-9.088 13.28-18.748 26.143-30.458 37.353-.335.374-.532.827-1.202 1.91 1.656-.393 2.66-.61 4.71-1.103-6.07 5.498-11.354 10.266-16.637 15.152-.946.827-1.597 1.97-2.346 2.974-1.222 1.675-1.912 3.31-5.027 2.76-2.364-.415-6.15.255-6.15 4.628 0 .71-.75 1.655-1.4 2.148-3.33 2.54-6.564 5.18-10.15 7.31-2.78 1.693-6.034 2.56-8.95 4.037-1.086.57-2.446 1.89-2.485 2.854-.158 4.118-3.35 4.472-6.033 5.26-3.175.966-5.797 2.01-7.434 5.418-.75 1.596-3.588 2.463-5.678 3.132-4.87 1.636-9.916 2.857-14.765 4.55-.986.356-1.4 2.11-2.524 2.366-2.62 1.183-5.165 2.54-7.826 3.547-2.563 1.004-5.342 1.438-7.807 2.54-8.456 3.725-17.386 5.655-26.375 7.547-6.506 1.398-12.972 2.876-19.753 3.526 31.126-9.75 62.293-19.188 89.004-38.73a7.523 7.523 0 0 1-.493-1.183c-2.68 1.22-5.34 2.502-8.633 4.04.572-1.36.946-2.15 1.262-2.937-.23-.25-.473-.49-.73-.71-2.327 3.232-7.61 2.62-8.635 7.724-.158.788-2.01 1.418-3.194 1.832-2.82.985-5.873 1.438-8.574 2.68-9.62 4.393-19.143 9.042-28.763 13.494-1.222.572-2.74.532-4.16.788l-.394-1.004c6.23-3.25 12.617-6.285 18.71-9.772 4.394-2.54 8.435-5.595 12.634-8.452.65-.453 1.223-1.32 1.932-1.438 10.567-1.93 17.762-9.81 26.22-15.268 7.59-4.925 13.897-11.9 20.738-17.987.493-.453.71-1.24.532-2.502l-12.952 9.515c-.256-.295-.492-.532-.768-.827 22.217-19.11 44.414-38.26 59.89-63.496-.435-.414-.947-.808-1.4-1.222-2.19 2.876-4.397 5.753-6.565 8.63-4.336 5.772-8.3 11.9-13.09 17.297-3.015 3.447-7.194 5.87-10.86 8.727-2.92 2.302-4.77 5.573-8.89 6.932-2.88.946-4.77 4.905-7.158 7.467-2.543 2.72-5.48 4.69-9.127 5.22-.356-.413-.69-.827-1.066-1.22 2.425-1.676 4.83-3.31 7.255-4.966-.493-.57-1.025-1.182-1.498-1.793-22.06 18.186-45.657 33.887-71.836 45.353-.216-.354-.394-.63-.55-.965 4.947-2.8 9.895-5.518 14.863-8.355 5.283-2.975 10.724-5.733 15.672-9.2 4.613-3.25 10.724-4.985 12.774-11.33-18.137 10.66-36.747 20.234-56.697 27.208 7.018-3.703 14.017-7.387 21.054-11.13-.08-.256-.098-.492-.138-.75-1.164 0-2.485-.412-3.45.04-5.126 2.345-10.074 5.18-15.24 7.31-7.904 3.29-16.006 6.127-24.11 9.08-.63.24-1.536-.155-3.49-.352 7.71-3.605 14.255-6.658 20.86-9.712-.12-.39-.25-.78-.395-1.162-1.163.118-2.346.275-4.357.472 1.22-.886 1.832-1.438 2.503-1.812 1.32-.67 2.977-.946 3.963-1.91 9.758-9.38 22.71-13.752 33.434-21.593 8.12-5.95 16.42-11.74 24.503-17.73 1.518-1.123 2.523-2.877 3.706-4.413-.315-.377-.572-.73-.887-1.086-1.263.67-2.603 1.24-3.766 2.07-2.07 1.438-4.337 2.837-6.033 4.67-5.58 6.205-13.246 9.12-20.205 13.1-2.623 1.497-5.64 2.246-8.478 3.39-2.956 1.2-6.15 2.107-8.85 3.742-3.864 2.344-8.22.69-12.124 2.147-1.577.57-3.272.925-5.323.69.73-.61 1.36-1.4 2.17-1.893 9.205-5.534 19.26-10.026 27.4-16.823 8.872-7.368 18.71-13.298 27.66-20.37 1.004-.79 1.733-1.892 2.266-3.173-21.646 12.235-41.91 26.755-65.153 36.15.63-.57 1.222-1.357 1.97-1.712 4.476-2.066 7.374-6.105 12.007-8.47 9.6-4.944 18.097-12.154 26.87-18.735 2.286-1.714 5.913-2.876 5.538-7.565-1.18.827-1.99 1.24-2.62 1.89-5.974 5.832-13.01 9.004-21.31 10.52-3.39.612-6.31 4-9.365 6.285-3.272 2.463-6.367 5.103-9.58 7.704a14.263 14.263 0 0 0-.828-.71c1.615-1.775 3.232-3.568 5.48-5.99-5.856 2.856-10.96 5.34-16.028 7.8-.335-.413-.59-.905-.907-1.36 19.043-9.75 36.253-22.005 51.906-36.367-.276-.394-.513-.768-.79-1.142-3.626 2.168-7.234 4.433-10.88 6.62a14.543 14.543 0 0 0-.415-.57 858.62 858.62 0 0 0 10.27-7.39c1.323-1.063 2.663-2.146 3.866-3.33 8.85-8.45 18.195-16.45 26.356-25.55 10.566-11.76 20.127-24.33 27.993-38.26 6.582-11.663 12.615-23.503 16.853-36.09 2.898-8.69 4.317-17.93 5.954-27.01 1.557-8.69 3.173-17.477 3.568-26.264.473-12.214.04-24.527-.375-36.762-.216-6.58-.728-13.18-1.89-19.66-1.44-8.158-3.136-16.373-5.7-24.234-4.868-14.893-10.388-29.55-15.77-44.286-.73-1.95-2.306-3.606-3.213-5.517-.867-1.753-1.202-3.802-2.13-5.536-2.07-3.86-4.12-7.8-6.642-11.366-4.22-5.87-8.516-11.703-13.287-17.1-4.633-5.26-9.896-9.93-14.943-14.796-1.242-1.223-2.582-2.424-4.04-3.35-1.204-.77-2.05-3.41-4.2-1.104-.138.158-1.183-.315-1.695-.69-2.918-2.048-5.934-4.077-8.734-6.343-15.296-12.59-33.73-17.75-52.614-21.61-9.342-1.91-18.864-3.88-28.326-3.8-12.577.096-25.155 1.89-37.673 3.544-6.603.867-13.147 2.68-19.554 4.61-4.554 1.36-8.832 3.704-13.228 5.576-2.84 1.183-5.756 2.187-8.516 3.566-8.556 4.315-16.974 8.767-25.53 12.983-1.636.806-3.607.964-5.4 1.456-.474.118-1.026.315-1.4.63-3.845 3.173-7.67 6.403-11.888 9.91-.71-1.674-1.143-2.797-1.636-3.9-.364-.213-.726-.43-1.085-.65.12 7.604-6.05 9.77-10.27 13.632-2.78 2.56-5.58 5.122-8.142 7.92-6.032 6.56-11.926 13.28-17.94 19.956 0 0-.55-.906-1.694-2.7-1.636 3.587-2.878 6.58-4.357 9.458-.59 1.123-1.892 1.89-2.563 2.994-1.794 3.034-3.647 6.068-5.027 9.26-1.597 3.704-2.7 7.604-4.042 11.407-1.38 3.98-2.64 7.998-4.258 11.88-.887 2.127-2.82 3.88-3.548 6.048-1.42 4.433-2.13 9.083-3.55 13.496-1.143 3.526-2.898 6.836-4.83 11.25-.61-2.365-1.005-3.92-1.4-5.478.415.117.868.236 1.28.354.93-2.148 2.09-4.256 2.703-6.502 2.287-8.353 1.557-17.317 6.446-25.296 3.686-6.028 4.415-13.85 8.042-19.898 6.092-10.205 12.893-20.095 20.345-29.374 9.837-12.214 21.487-22.695 34.676-31.344 2.82-1.852 5.717-3.586 8.457-5.536 1.932-1.38 3.686-3.133 4.613.433 10.073-5.477 19.772-10.737 29.49-16.017 8.872-4.807 17.605-10.047 26.733-14.342 5.202-2.423 11.116-3.35 16.715-4.807 2.583-.67 5.264-.964 7.886-1.516 1.34-.295 2.682-.768 4.634-1.36-1.065-.827-1.48-1.437-1.853-1.418-4.533.335-9.126.414-13.58 1.24-4.673.868-3.337 3.68-7.95 4.863-1.91.47-2.784 1.452-4.716 1.73-.393.057-5.07 1.332-5.226 1.59-2.11 3.426-8.015 4.31-11.15 5.273-1.95.59-71.618 40.595-74.594 40.595-2.11-3.863 37.453-24.08 38.143-28.907-6.683 2.424-31.248 21.764-37.4 22.453-7.273.77 40.42-35.226 34.093-33.65-.277-.434-.533-.907-.83-1.34 5.205-3.113 10.39-6.226 15.614-9.3.907-.53 2.425-.63 2.8-1.358 3.252-5.832 9.52-5.22 14.587-7.132 5.048-1.93 10.114-3.9 14.944-6.462-5.893-2.265-48.14 23.48-53.72 23.32 1.755-1.22 7.593-6.07 9.348-7.293-.157-.277 2.513-2.26 2.355-2.535-2.07.69-3.197.574-5.248 1.264-.216-.395-6.54 3.115-6.776 2.72 2.13-1.24 3.12-4.306 5.29-5.47 2.09-1.14 41.834-18.745 44.002-19.83-.198-.475-.39-.954-.57-1.436-2.702.748-5.502 1.26-8.123 2.265-6.21 2.344-12.5 4.53-18.435 7.505-8.595 4.275-16.855 9.18-25.292 13.83-4.002 2.207-8.043 4.315-12.005 6.56-7.69 4.237-13.35 10.58-18.85 17.357-5.183 6.384-11.373 11.88-16.854 17.968-4.573 5.064 31.24-35.234 26.784-30.073-2.64 3.034 6.93-4.292 4.268-1.238-.966 1.1 3.566-3.11 2.778-1.85.315.236 8.778-5.06 9.074-4.805 1.912-2.188-62.005 62.69-60.053 60.502-5.776 10.598 67.93-75.246 61.492-56.99 10.125-7.41 15.84-4.358-2.77 8.79.474-1.063-75.027 78.144-74.416 77.2 4.08-6.365 8.26-12.67 12.263-19.052 2.464-3.96 4.415-8.216 6.978-12.097 2.505-3.763 35.323-45 38.32-48.408 4.317-4.945-21.227 27.88-16.595 23.23 3.705-3.723 7.806-7.112 12.044-10.953-.237 1.555-.395 2.776-.57 4 .412.254.845.47 1.26.747 1.675-2.523 3.37-5.045 5.046-7.567-.808 8.158 28.85-20.3 23.625-14.805.218.434 1.89 1.398 2.09 1.832 1.103-.394 13.43-9.366 4.984-.848-4.743 9.77-5.59 3.32-.248 2.254-1.222 1.95-.055 9.386-1.06 10.234-3.983 3.505-36.98 24.914-38.006 30.49-.158.71-1.143 1.753-1.754 1.773-7.176.178-8.36 5.596-9.818 10.876-4.04-.77-4.652-.02-4.534 6.047-.847-.61-1.478-1.044-2.13-1.517-6.7 12.312-13.424 24.606-20.54 37.667-1.124-2.285-1.834-3.723-2.878-5.91-1.893 4.61-5.56 7.546-4.93 12.747.277 2.11-1.576 4.453-2.6 7.034-.514-.374-1.085-.768-1.992-1.4-.67 2.05-1.3 4.02-1.932 6.03-.158-.178-.296-.316-.434-.493-1.084 1.026-2.838 1.873-3.114 3.075-1.518 6.52-2.72 13.12-3.943 19.72-.886 4.985-1.813 10.008-2.444 15.032-.335 2.837-.04 5.753-.04 8.63-.53.04-1.083.058-1.596.078-.138-1.95-.276-3.92-.394-5.89-.237-.02-.473-.02-.75-.04-.748 2.778-1.497 5.536-2.207 8.235 1.596.768 2.877 1.38 4.533 2.147.728-1.773 1.438-3.546 2.128-5.26 3.668.138-1.813 6.58 4.1 4.965-.275 1.93-.787 3.782-.787 5.615.217 11.525 1.025 23.03 2.168 34.536.415 4.255.908 8.53 1.736 12.707.454 2.305 1.952 4.373 2.543 6.678.512 2.11.433 4.414.63 6.64-.53.06-1.054.14-1.577.237-2.82-11.486-5.658-22.912-8.497-34.378-.394-.02-.768-.02-1.163-.02 0 3.427-.433 6.953.1 10.303 1.438 8.786 2.62 17.71 5.184 26.182 4.89 15.997 11 31.482 23.558 43.382 1.026.945 4.082 2.422.967 4.69-.098.077.79 1.83 1.46 2.52 2.266 2.265 4.632 4.412 6.978 6.58-.395.413-.75.827-1.124 1.22-1.42-1.28-2.84-2.58-4.1-3.704-6.9 1.28-9.404-3.9-12.32-8.47-.297.197-.573.374-.87.55.987 1.95 1.756 4.04 2.958 5.813 6.15 9.062 14.015 16.627 22.078 23.956.868.788 2.13 1.162 3.095 1.91 4.397 3.37 8.754 6.758 13.13 10.127-.256.395-.473.75-.75 1.104-4.572-2.225-9.146-4.53-13.8-6.66-1.792-.805-3.783-1.14-5.695-1.672-8.142-2.304-12.873-8.648-17.565-14.992-5.323-7.112-10.37-14.362-15.81-21.986-4.81 5.063 2.7 6.718 2.523 10.54-.966-.256-1.853-.552-3.39-1.024 4.02 8.944 9.896 15.82 16.243 22.4-.394.354-.75.63-1.143.965-2.957-3.112-6.328-5.97-8.773-9.436-4.317-6.127-7.964-12.727-12.123-18.952-1.125-1.695-3.096-2.837-4.634-4.275-.513-.454-1.104-1.046-1.32-1.676-1.105-3.054-2.09-6.206-3.313-9.81-2.878 6.01 9.995 36.663 16.855 40.425-.453-2.128-.828-3.803-1.183-5.477a9.38 9.38 0 0 1 .827-.533c6.585 13.437 12.42 27.405 25.115 36.723.434-.374 1.223-.965 2.208-1.714 1.5 2.935 2.88 5.614 4.258 8.293 9.484-1.498 16.088 4.59 23.44 8.747a3516.9 3516.9 0 0 0 11.73 6.6c.296-.394.55-.788.828-1.162-3.312-2.91-6.643-5.8-9.993-8.668a5.37 5.37 0 0 0 .57-.59c4.81 2.185 9.68 4.254 14.392 6.638 3.232 1.615 5.677 3.92 10.152 3.448 3.843-.454 8.042 2.127 13.266 3.782-1.164-2.54-1.933-4.176-3.175-6.875 4.574 2.64 8.34 4.767 12.105 6.934 1.734.986 3.547 2.09 3.843-.67 3.686.868 8.063.947 11.434 2.82 5.224 2.914 10.093 6.717 14.568 10.736 7.708 6.933 13.346 15.444 17.407 24.98.256.57.67 1.142 1.144 1.93.81-.71 1.4-1.22 2.15-1.93 1.142 7.84 3.23 15.307.412 22.95-2.05 5.636-4.317 10.935-8.89 15.013-.79.69-1.834 1.536-1.992 2.442-1.142 6.284-6.7 8.392-10.565 12.253-4.692 4.747-10.626 5.043-16.027 7.27-1.124.472-2.898-.375-4.278-.868-1.084-.374-8.24.65-9.226 1.34-1.5 1.083-3.076 2.482-4.77 2.7-9.82 1.16-19.774 3.13-29.453-.257-5.873-2.05-11.69-4.77-17.01-8-8.636-5.24-17.29-10.6-25.096-16.903-6.96-5.635-15.693-8.984-21.134-16.51-10.233-14.125-24.978-23.542-37.023-35.796-10.31-10.44-21.232-20.33-29.275-32.8-5.402-8.354-11.592-16.234-16.58-24.844-4.77-8.174-8.496-17.02-12.557-25.63-2.267-4.945-4.475-9.87-6.31-14.953-3.074-8.55-5.814-17.217-9.027-26.753 1.892 1.478 2.838 2.227 3.824 2.995.296-.198.552-.356.828-.513-1.636-3.27-3.272-6.56-4.89-9.85-.433-.946-1.123-1.912-1.28-2.877-3.55-19.366-3.49-38.95-3.39-58.532 0-.235.216-.452.71-1.457.59 1.36 1.22 2.267 1.36 3.27 1.694 11.606.63 23.426 3.567 34.93 1.36 5.38 1.143 11.17 2.287 16.67 1.597 7.722 3.49 15.445 5.874 22.95 1.32 4.158 4.18 7.823 5.914 11.9 1.34 3.113 2.05 6.5 3.056 9.79.355-.037.69-.077 1.025-.116.198-.65.652-1.4.514-1.95-2.662-9.693-5.264-19.445-8.103-29.1-2.187-7.426-5.085-14.637-6.898-22.103-1.42-5.99-2.287-12.194-2.307-18.34-.12-17.24 0-34.498.71-51.716.353-8.02 2.11-15.996 3.546-23.916.395-2.167 2.15-4.04 2.74-6.186 1.578-5.79 2.84-11.702 4.26-17.553.452-1.91 1.714-3.33 2.76-4.886 2.64-3.96 5.637-8.314 4.12-13.948-.474-1.793.51-4.216 1.3-6.147 4.692-11.742 9.462-23.444 14.154-35.127.85-2.11 1.54-4.276 2.288-6.423.493.138 1.025.256 1.498.394-.394 2.344-.473 4.787-1.28 6.954-1.184 3.113 49.1-68.3 47.603-65.265-1.185 2.384 70.44-66.483 45.915-37.76 22.223-3.37 28.255-23.1 59.73-32.35 99.613-7.25 49.785 12.6 64.77 9.424h.004zm175.836 76.05c.296-.297.572-.573.868-.85-1.025-1.456-1.794-3.17-3.075-4.293-3.926-3.35-8.3-6.226-12.01-9.772-8.693-8.196-18.45-14.795-29.254-19.76-2.227-1.025-5.342-2.502-7.057-1.694-2.445 1.162-4 .55-5.895-.296-6.525-2.896-12.794-6.265-19.516-8.61-7.69-2.698-15.713-4.452-23.52-6.717-9.895-2.877-19.99-3.94-30.26-3.428-3.784.177-7.55.57-11.315.867.493 1.004 1.045 1.438 1.577 1.477 6.052.43 12.144.49 18.156 1.28 3.744.49 8.1 1.1 10.94 3.31 3.705 2.854 7.45 3.92 11.77 4.312 5.557.532 11.49.276 16.636 2.088 11.434 4.06 23.874 5.22 34.282 12.295 7.51 5.083 15.553 9.377 23.32 14.066 4.83 2.898 9.64 5.814 14.37 8.848 3.333 2.187 6.625 4.57 9.976 6.876l.002.002h.002zm-241.41-29.435c.176.473.393.985.55 1.458 9.247-4.787 18.473-9.555 27.698-14.342-10.9 1.162-19.536 7.132-28.25 12.884h.002zM517.18 554.2c4.554-1.122 19.34-16.588 20.01-20.488-9.365 4.53-11.947 15.19-20.01 20.49v-.002zM216.55 269.09c.55.315 1.103.61 1.655.906 4.08-8 10.212-14.835 12.99-23.543-.393-.215-.787-.412-1.142-.65-4.515 7.783-8.99 15.526-13.504 23.288zm317.918-68.974c-.394.434-.828.867-1.222 1.32 5.855 5.635 11.71 11.25 17.585 16.884.318-.335.614-.65.91-.985-5.264-6.225-10.705-12.293-17.27-17.22h-.002zM226.208 423.78c-.55.256-1.143.473-1.714.73 1.655 3.96 3.292 7.938 4.948 11.918.61-.276 1.222-.512 1.833-.768-1.676-3.96-3.37-7.94-5.066-11.88h-.003zm22.04-169.744c.355.118.69.276 1.045.414 2.01-3.92 4.04-7.86 6.052-11.78-3.213 3.368-7.038 6.382-7.097 11.366zm298.758 290.688c.414.414.828.828 1.222 1.242 3.076-2.975 6.19-5.97 9.285-8.964-.394-.394-.71-.75-1.084-1.123-3.137 2.972-6.29 5.89-9.426 8.842l.002.002zm23.38-22.95c-.414-.316-.768-.573-1.182-.888a1937.44 1937.44 0 0 1-9.58 12.53c.334.276.61.493.925.75 3.29-4.14 6.542-8.276 9.834-12.393h.002zm-394.013-215.57c-.513-.236-1.025-.472-1.538-.69-.95 3.176-1.89 6.355-2.82 9.536.494.158 1.026.315 1.52.473.945-3.113 1.872-6.226 2.838-9.32zM537.17 552.9c.393.434.71.887 1.064 1.3 2.543-2.265 5.027-4.53 7.57-6.816-.276-.295-.513-.59-.77-.886-2.64 2.127-5.243 4.275-7.865 6.402zm32.645-356.154l-1.913 1.91a784.537 784.537 0 0 1 6.605 5.34c.335-.335.69-.67 1.064-.985a585.99 585.99 0 0 0-5.753-6.262l-.002-.002zm-8.26 33.235c.556-.39 1.12-.772 1.695-1.14-1.774-2.324-3.49-4.67-5.244-6.993-.394.276-.828.57-1.222.827 1.597 2.443 3.174 4.866 4.77 7.31v-.002z"/><path d="M538.253 511.055c-.69-.63-1.222-1.142-2.424-2.167l-4.42 4.71c-.117-.12-.216-.198-.315-.316 1.932-2.76 3.647-5.714 5.875-8.216 12.677-14.204 21.804-30.635 29.828-47.696 3.25-6.915 6.543-13.928 8.396-21.277 6.447-25.434 9.936-51.3 6.94-77.582-1.538-13.335-3.805-26.613-5.717-39.892-.198-1.32-.16-2.66-.238-3.98.353-.06.65-.098.984-.157.65 3.467 1.143 6.974 1.912 10.42.848 3.646 1.893 7.25 2.918 11.15.828.08 1.97.22 4.2.456-1.125 2.462-1.992 4.472-2.88 6.442-.414-.138-.867-.276-1.28-.414 1.11 5.438 2.187 10.882 3.232 16.332.178.926 0 1.89.118 2.817.395 3.566 1.045 7.053 1.183 10.64.1 2.698-.492 5.436-.63 8.175-.414 6.915-.75 13.81-1.084 20.725 0 .394.355.808.296 1.163-1.34 6.66-2.72 13.357-4.2 20.016-1.577 7.173-2.82 14.423-5.027 21.397-2.03 6.46-4.968 12.667-7.767 18.833-2.643 5.813-5.462 11.546-8.517 17.14-1.855 3.39-4.3 6.424-6.507 9.635-4.08 5.99-8.102 11.978-12.203 18.007-.827 1.163-1.733 2.325-2.68 3.645l.003-.002v-.003zM349.32 106.812c6.8-5.536 31.356-26.53 56.236-24.783-23.243 8.86 18.42-3.62 22.5-2.81-5.328 2.014 5.182 4.143 13.858 3.06 19.73-.47-.762 2.666 6.63 4.065 1.736.63 23.53-.273 55.278 16.62-24.31-5.993-29.424-8.61-42.895-7.704-9.114.446-45.94-5.662-53.952-4.604-9.824 1.127 1.448.1-6.042 1.157-5.652 1.068-47.947 14.544-51.614 14.997v.002zM219.15 188.63a766.02 766.02 0 0 0 3.47-5.025c-.275-.256-.57-.473-.847-.73-3.568 3.94-7.116 7.882-10.665 11.84-.197-.117-.414-.255-.63-.373.433-.886.67-1.91 1.3-2.6 3.884-4.354 7.827-8.65 11.77-12.905 4.277-4.57 8.535-9.1 12.97-13.514 2.9-2.877 6.15-5.438 9.128-8.255 1.814-1.675 3.332-3.704 5.204-5.32 2.7-2.364 5.46-4.708 8.477-6.678 8.103-5.36 16.323-10.62 24.642-15.682 2.05-1.26 4.65-1.616 7.37-1.773-4.75 2.955-9.6 5.772-14.233 8.885-6.88 4.63-13.92 9.102-20.365 14.362-4.77 3.92-8.674 8.964-12.972 13.515-6.9 7.27-13.78 14.5-20.7 21.73-1.023 1.064-2.225 1.91-3.39 2.837a2.91 2.91 0 0 0-.53-.315z"/><path d="M393.204 123.392c-3.9-1.832-48.595 15.348-47.63 16.668-4.1-.985 30.778-32.218 4.874-31.653 36.4-17.72 101.305-30.53 147.536-5.38-6.486 6.56-68.648 2.505-83.933 14.155-1.93-6.5-18.143 7.372-20.844 6.21h-.002zM209.748 178.01c.098-1.24.217-2.502.355-3.98-1.085-.295-2.01-.55-4.002-1.083 2.98-4 5.64-7.565 8.26-11.13.417.215.81.412 1.205.65.138 1.102.276 2.225.513 4.392 2.82-3.707 5.165-6.8 7.49-9.85.277.194.514.39.79.59-4.988 6.6-4.79 16.783-14.608 20.41h-.002z"/><path d="M379.052 126.624c30.088-18.954 78.552-37.674 117.31-23.516 30.768 11.24 52.815 48.723 73.217 83.97-46.59-3.763-115.498-41.197-190.53-60.454h.002zm212.19 214.216c.73 10.145 1.42 20.25 2.15 30.397-.65.06-1.3.12-1.952.178-.768-10.107-1.557-20.214-2.306-30.32.71-.1 1.42-.177 2.11-.256h-.002zM367.672 87.444c-3.892.824-.412 7.81-5.173 11.186-9.9 7.018-25.984 11.82-55.82 14.732 11.383-15.794 35.02-25.01 60.994-25.918zM566.88 283.706c3.194 8.55 6.388 17.12 9.56 25.67-.472.178-.984.375-1.457.552-3.114-8.59-6.21-17.18-9.324-25.77.414-.157.808-.314 1.222-.452zM361.253 85.16c.414-2.955 1.242-4.275 4-4.058 2.11.158 4.26-.57 6.428-.69.79-.02 1.58.59 2.37.926-.415.75-.83 1.498-1.283 2.187-.138.177-.473.296-.73.335-3.45.414-6.92.828-10.782 1.3h-.002zm61.027-8.118c-4.338.65-8.695 1.26-13.032 1.91-.08-.432-.157-.885-.256-1.32 3.765-3.446 8.674-1.338 12.912-2.62.158.67.276 1.34.375 2.03zM205.57 205.12a5924.367 5924.367 0 0 0-10.193 15.188c-.414-.276-.848-.552-1.223-.808 3.39-5.083 6.742-10.165 10.153-15.268.394.296.808.61 1.262.887zm327.578 311.274c-4.377 3.822-8.753 7.664-13.11 11.486-.394-.433-.75-.867-1.143-1.3 4.416-3.822 8.83-7.664 13.247-11.466.316.414.65.867 1.006 1.28zm-38.56 39.402c-4.652 3.015-9.344 6.01-13.997 8.984-.292-.414-.57-.867-.884-1.3 4.613-3.093 9.226-6.186 13.84-9.3.334.533.69 1.084 1.044 1.616h-.002zM225.4 199.878c3.864-4.53 7.728-9.082 11.592-13.633.394.335.808.67 1.202 1.024-3.844 4.57-7.708 9.12-11.552 13.69-.414-.355-.828-.71-1.242-1.084v.002zm296.55 331.016c-3.745 2.522-7.51 5.024-11.374 7.625 1.084-3.786 3.016-5.38 10.586-8.57.296.312.512.65.788.942v.002zM337.55 179.9c-3.213 2.01-6.406 4.02-9.62 6.03-.276-.178-.512-.335-.788-.493.473-1.615.985-3.23 1.636-5.437a350.94 350.94 0 0 1 2.07 2.305c1.892-1.3 3.745-2.62 5.638-3.94l1.064 1.536z"/><path d="M390.363 112.977c4.968-.61 9.916-1.222 14.903-1.832.06.354.08.73.138 1.064-4.987.59-9.955 1.2-14.943 1.79a16.916 16.916 0 0 0-.095-1.025l-.002.002zm60.244 499.5c-3.548 1.32-7.057 2.7-10.566 4.02a26.95 26.95 0 0 1-.59-1.578c3.49-1.264 7-2.564 10.49-3.805.216.453.433.906.67 1.36l-.003.002zM263.664 161.972c-2.866 3.76-5.718 7.53-8.555 11.31-.496-.415-.95-.79-1.44-1.203 2.68-3.9 6.996-6.404 10.05-10.01l-.06-.1h.003v.002zm296.61 106.207c1.734 3.763 3.49 7.507 5.184 11.27-.355.157-.71.354-1.065.512a1148.954 1148.954 0 0 1-5.42-11.033c.427-.263.86-.513 1.3-.75zm8.22-127.74c2.84 1.91 5.697 3.782 8.536 5.673-.296.433-.572.906-.868 1.38-2.878-1.892-5.756-3.744-8.634-5.635.315-.495.63-.948.966-1.42zm-347.51 87.02c0-5.045 1.065-6.444 5.64-8.02-2.01 2.837-3.846 5.42-5.64 8.02z"/><path d="M263.723 162.092c2.366-1.695 4.732-3.35 7.078-5.024-2.54 6.01-3.723 6.64-7.134 4.925 0-.02.06.1.06.1h-.002zm-64.05 89.758c-1.615 3.092-3.212 6.205-4.83 9.298-.472-.217-.905-.433-1.36-.65 1.598-3.113 3.215-6.225 4.83-9.338.454.256.888.473 1.36.69zM421.058 70.66c3.016-.513 6.032-1.025 9.01-1.557.078.433.137.906.216 1.34-2.997.453-6.033.906-9.01 1.36-.078-.375-.137-.75-.216-1.144zM246.592 444.21c1.597 2.502 3.214 5.004 4.83 7.526-.414.276-.848.512-1.262.788-1.63-2.53-3.254-5.066-4.87-7.605.415-.26.85-.456 1.302-.71zM184.18 255.18c1.695-3.055 3.39-6.11 5.105-9.123.276.158.552.296.828.414-1.537 3.116-3.075 6.21-4.613 9.32-.453-.176-.887-.412-1.32-.61zm307.234 297.228c2.8-2.03 5.6-4.078 8.378-6.107.336.416.592.87.907 1.244-2.86 1.95-5.74 3.822-8.598 5.772a9.994 9.994 0 0 1-.69-.906v-.002h.002z"/><path d="M658.247 219.595c-.29-.008-9.71 8.337-20.94 18.55-11.23 10.21-21.087 18.84-21.907 19.18-.818.34-5.737 4.354-10.93 8.92-36.237 31.852-58.088 50.95-64.382 56.264-9.066 7.652-9.028 7.62-11.67 11.116-1.45 1.924-4.086 3.728-7.945 5.44-3.178 1.406-6.653 3.3-7.726 4.205-4.82 4.08 5.26-7.31 14.027-15.845 8.473-8.255 9.006-8.915 4.135-5.14-3.075 2.383-7.088 5.048-8.92 5.924-6.164 2.943-19.75 14.097-37.218 30.55-16.36 15.41-21.72 21.637-15.767 18.314 1.343-.75 2.682-1.106 2.975-.794.295.314 2.65-.977 5.235-2.87 7.424-5.432 10.557-4.813 6.783 1.343-2.214 3.61-93.797 89.258-143.716 134.405-52.137 47.152-66.622 60.608-69.843 64.88-5.37 7.126-25.294 26.735-33.584 33.06-6 4.574-8.262 6.87-11.67 11.844-6.107 8.91-66.083 65.376-81.075 76.325-5.62 4.11-13.222 9.894-16.886 12.857-3.667 2.96-9.704 6.776-13.417 8.478-3.713 1.702-9.297 4.827-12.404 6.95-3.11 2.12-6.895 4.368-8.412 4.996-2.74 1.128-23.24 12.688-27.3 15.394-1.168.778-3.558 2.2-5.314 3.155-6.31 3.447-.17-1.284 11.2-8.63 13.563-8.76 17.195-11.87 16.33-13.982-.335-.82.03-2.098.816-2.836.785-.74 1.77-2.055 2.19-2.92.66-1.37.42-1.53-1.833-1.2-2.168.313-2.74.8-3.47 2.982-.74 2.193-2.02 3.26-8.046 6.72-7.74 4.444-10.518 4.675-4.476.373 2.192-1.56 3.445-2.94 3.054-3.354-.63-.67-10.92 5.45-19.91 11.846-3.478 2.472-3.923 2.583-2.795.695.736-1.234 2.434-3.39 3.773-4.79 2.27-2.375 2.273-2.466.037-1.36-1.32.658-8.346 5.73-15.616 11.277-20.864 15.92-22.167 16.862-21.096 15.262.556-.833.534-1.64-.044-1.796-.58-.155-.386-.91.43-1.68 1.02-.956 1.028-1.616.03-2.097-1.664-.802.103-3.023 2-2.516.76.205 3.87-2.44 8.612-7.326 5.89-6.06 7.333-8.02 6.974-9.46-.25-1 .004-2.757.564-3.91.882-1.816.565-1.793-2.385.156-4.89 3.23-5.87 3.596-6.138 2.286-.13-.64-.772-.664-1.422-.05-.652.612-.672 1.252-.044 1.42.626.166.663.755.077 1.306-.585.552-1.718.685-2.517.3-.836-.4-2.523.216-3.962 1.45-2.19 1.875 0-.81 10.567-12.983 3.673-4.23 3.107-4.867-1.42-1.595-2.19 1.582-4.985 3.454-6.218 4.163-2.11 1.216-2.125 1.117-.24-1.72 1.1-1.658 2.57-3.266 3.265-3.578.697-.31.76-.7.138-.865-.62-.166-2.198.665-3.506 1.848-2.276 2.057-2.333 2.048-1.29-.2.604-1.292 1.78-2.683 2.615-3.088.834-.408 2.563-2.6 3.842-4.872l2.322-4.133-2.792 2.535c-2.883 2.617-4.787 2.37-3.142-.406.513-.87 3.048-3.95 5.637-6.847 6.096-6.827 7.506-8.893 6.68-9.77-.372-.396-1.458.017-2.415.918-3.346 3.15-7.34 5.217-6.924 3.58.218-.842 1.133-2.234 2.032-3.092.9-.86 1.364-1.853 1.027-2.21-.854-.91-5.583 2.175-10.052 6.55-6.26 6.13-5.48 2.838 1.248-5.276 3.468-4.18 6.873-8.977 7.57-10.658.696-1.68 2.262-4.64 3.477-6.574 2.644-4.204 1.792-9.324-1.274-7.653-.973.53-2.82 2.273-4.107 3.873l-2.34 2.91 1.003-3.135c.552-1.725 2.032-4.112 3.29-5.305 3.224-3.06 4.935-6.08 3.64-6.426-.683-.184.41-1.38 2.905-3.166 2.286-1.64 3.37-2.78 2.527-2.663-1.543.216 12.832-20.005 20.443-28.76 4.062-4.673 4.78-7.063 3.196-10.654-1.075-2.437-3.135-1.163-12.885 7.993-4.838 4.54-10.496 9.42-12.57 10.847l-3.774 2.59 4.98-6.445c2.736-3.544 5.85-7.83 6.914-9.52 3.214-5.11 15.533-18.042 28.12-29.527 34.43-31.4 60.604-53.96 81.554-70.285 5.983-4.663 11.353-9.48 12.724-11.414 3.948-5.57 67.704-66.588 69.708-66.713.95-.06 4.83-2.648 8.624-5.753 3.795-3.102 7.945-5.855 9.22-6.112 7.23-1.464 15.91-7.897 30.803-22.838 6.675-6.693 8.02-7.7 9.84-7.36 2.24.417 3.1-.28 32.5-26.28 6.837-6.046 17.297-15.065 23.244-20.038 9.82-8.215 22.805-20.305 36.048-33.565 5.364-5.37 11.022-9.565 15.04-11.152 1.382-.548 11.01-8.756 21.392-18.24 11.186-10.22 19.33-17.127 19.99-16.95 1.3.348 11.584-7.092 25.65-18.56 5.462-4.45 12.804-10.18 16.317-12.73 11.67-8.478 31.32-26.107 33.728-30.264 1.203-2.076 1.81-3.877 1.352-4-.46-.125-3.318 1.603-6.35 3.838-5.22 3.85-5.38 3.896-2.983.885l2.53-3.18-4.753 2.646c-2.613 1.454-4.84 2.202-4.953 1.66-.275-1.353-6.084 2.49-7.037 4.657-.67 1.528-.457 1.614 1.643.657 1.444-.66-1.25 2.072-6.715 6.8-6.732 5.832-9.59 7.82-10.91 7.59-1.1-.198-3.872 1.335-7.262 4.015-8.027 6.348-10.942 8.228-11.152 7.202-.316-1.555 8.018-9.24 26.547-24.48 9.78-8.047 17.907-15.09 18.06-15.657.507-1.885 6.032-6.618 7.862-6.73.997-.064 5.313-3.17 9.66-6.96 4.32-3.765 9.82-8.062 12.216-9.548 2.4-1.486 7.19-5.303 10.655-8.48 7.778-7.138 27.054-22.16 28.386-22.117.54.015-1.602 2.51-4.755 5.546-3.156 3.034-7.385 7.17-9.397 9.187-2.014 2.02-3.734 3.324-3.82 2.898-.317-1.56-8.94 4.605-13.21 9.444-3.833 4.342-4.114 4.95-2.206 4.75 3.25-.346 1.264 1.166-5.66 4.31-6.687 3.04-9.945 5.753-10.295 8.583-.157 1.256-1.995 3.305-5.514 6.14l-5.28 4.256 4.473-2.583c4.073-2.347 4.418-2.374 3.86-.298-.495 1.833 2.686-.94 16.297-14.218 9.302-9.075 21.666-21.348 27.475-27.276 28.365-28.94 61.455-59.694 60.697-56.415-.25 1.088 6.28-4.72 18.465-16.413 15.588-14.963 19.317-18.184 21.515-18.575 3.83-.686 4.775.97 2.12 3.72-1.25 1.293-11.91 11.583-23.686 22.867-11.776 11.285-22.558 21.936-23.963 23.674-1.4 1.736-6.67 7.36-11.702 12.498-18.944 19.336-24.78 25.71-23.778 25.98.563.15 1.832-.482 2.814-1.407.983-.925 2.035-1.418 2.337-1.097.304.323-.79 1.635-2.432 2.915-2.532 1.977-2.658 2.264-.815 1.893 1.576-.315 5.36-3.72 13.826-12.443 14.48-14.92 21.843-21.77 23.8-22.148.83-.162 6.89-5.464 13.466-11.787 10.53-10.123 11.908-11.212 11.535-9.12-.42 2.343.807 3.137 2.64 1.712.517-.403 2.387-2 4.155-3.548 2.125-1.86 3.45-2.446 3.894-1.728.396.637 1.202.43 1.95-.496.697-.87 3.696-3.953 6.66-6.852 3.384-3.313 5.41-5.974 5.447-7.153.048-1.56-.18-1.678-1.33-.685-.808.696-1.15.68-.818-.04.83-1.8-1.24-2.03-3.19-.358-1.557 1.336-1.583 1.275-.394-.873 3.42-6.17 11.35-10.773 11.35-6.588.002 1.45.664 1.003 3.558-2.394 3.64-4.276 5.168-8.527 1.99-5.538-2.796 2.63-2.224-.228.793-3.964 1.852-2.29 4.076-3.986 6.34-4.836 2.68-1.005 3.964-2.092 5.527-4.656 2-3.285 6.12-6.858 17.494-15.166 3.148-2.302 4.795-3.192 3.657-1.98-1.712 1.827-1.737 2.128-.147 1.76 1.264-.29 2.764-1.705 4.39-4.137 2.554-3.826 19.93-20.575 18.676-18.006-.39.794-.553 2.14-.362 2.987.19.847-.373 2.228-1.253 3.068-.88.84-1.8 2.288-2.04 3.22-.783 3.044 2.484.795 5.96-4.098 1.75-2.467 4.052-5.536 5.115-6.83C763.3 9.664 768.56 3.57 770.453 1.85c1.887-1.72 2.093-1.725 1.33-.054-5.17 11.337-18.004 28.827-22.568 30.753-2.848 1.203-8.82 6.896-12.866 12.27-1.92 2.545-4.32 4.715-6.407 5.79-2.646 1.362-3.578 2.403-4.507 5.042-.93 2.646-2.7 4.616-8.65 9.647-4.114 3.477-7.783 6.315-8.154 6.303-.37-.012-.757.615-.856 1.392-.097.774-1.178 2.778-2.4 4.45-2.048 2.8-2.305 2.89-3.265 1.126-1-1.84-1.315-1.66-7.973 4.46-3.814 3.506-10.677 9.653-15.255 13.667-14.886 13.04-20.396 18.21-20.728 19.45-.18.67-5.598 6.23-12.036 12.357-6.44 6.126-11.46 11.405-11.156 11.73 1.178 1.252 20.164-15.665 48.8-43.483 6.544-6.357 13.25-12.434 14.898-13.503 2.857-1.854 2.9-1.846.92.17-1.47 1.496-1.638 2.13-.57 2.16.834.026 5.29-3.315 9.904-7.424 4.615-4.112 8.794-7.46 9.285-7.445.49.012.1.78-.87 1.694-1.69 1.598-1.628 1.633 1.53.775 2.65-.72 4.633-2.308 10.073-8.05 4.255-4.49 6.86-6.74 7-6.044.126.613-1.477 2.726-3.564 4.7-4.31 4.078-5.874 7.47-2.88 6.246.98-.403 3.363-2.56 5.297-4.796 2.144-2.478 4.12-4.047 5.067-4.016 1.106.034 2.355-1.122 4.336-4 1.53-2.225 5.373-6.184 8.54-8.797l5.758-4.755-1.51 3.4c-.83 1.866-4.175 6.048-7.435 9.295-3.258 3.243-5.83 6.455-5.712 7.134.3 1.736-8.663 13.218-10.28 13.172-.776-.025-.425-1.226.88-3.016 1.194-1.637 1.807-3.074 1.36-3.193-1.285-.346-12.76 11.44-12.237 12.567.257.553 1.153.358 1.993-.43.838-.79 1.795-1.147 2.125-.796.33.35-5.774 6.644-13.563 13.986-14.204 13.383-19.764 19.54-18.686 20.686.778.826 8.553-4.93 15.377-11.386C724.3 92.31 736.607 79.8 735.437 80.04c-1.865.382 5.446-7.288 9.845-10.324 3.272-2.26 12.456-12.335 24.375-26.734 2.67-3.23 3.61-3.92 4.043-2.983.764 1.652-3.512 10.23-6.62 13.275-1.38 1.354-2.906 3.366-3.387 4.468-1.28 2.945 4.997-2.92 6.557-6.127.663-1.36 1.902-2.758 2.76-3.11 1.224-.5 1.362.065.65 2.637-.497 1.802-1.662 4.392-2.59 5.76-.927 1.368-1.877 3.936-2.112 5.705l-.424 3.216 4-4.55c2.203-2.502 5.163-5.958 6.58-7.68 1.57-1.905 1.14-.833-1.1 2.746-6.414 10.242-5.333 9.892 7.832-2.542 11.53-10.89 8.476-6.05-4.655 7.373-6.664 6.817-12.453 13.39-12.866 14.614-.413 1.22-2.284 3.89-4.16 5.93-4.097 4.456-5.038 6.103-3.694 6.465 1.52.407-2.815 6.713-11.268 16.397-4.175 4.78-7.854 9.45-8.177 10.38-.324.93-3.853 5.43-7.843 10-4.778 5.473-7.32 9.097-7.443 10.62-.125 1.538-.99 2.76-2.577 3.646-2.26 1.264-3.697 3.542-6.758 10.722-.738 1.73-4.246 6.554-7.797 10.727-5.246 6.165-6.39 8.052-6.1 10.05.345 2.39-.24 3.01-18.83 20.017-10.557 9.656-18.96 17.803-18.674 18.106.285.303.914.177 1.398-.278.544-.513.844-.334.786.47-.083 1.292-7.96 10.587-8.94 10.56l-.003-.005.002.002zm-615.53 509.91c-.726.285-1.334.905-1.348 1.377-.016.474.58.24 1.32-.52.82-.837.83-1.174.026-.857zm617.28-585.172c2.234-4.116 10.617-12.927 11.958-12.567 1.138.306 11.88-9.763 14.577-13.67 2.116-3.063 1.166-4.533-1.678-2.6-3.814 2.594 6.08-9.77 13.478-16.848 4.2-4.015 6.803-7.07 6.396-7.504-.884-.94-61.63 56.117-62.228 58.448-.31 1.205.47 1.054 2.91-.575 6.763-4.512 6.17-3.84-13.163 14.962-5.513 5.36-6.944 7.933-4.088 7.35 1.16-.24 1.313.1.664 1.44-1.896 3.922 2.356.65 15.597-12.01 8.054-7.697 14.563-14.566 15.574-16.43h.002v.003zm-28.04 23.522c1.088-1.65 2.657-3.172 3.487-3.38.855-.213-.002 1.088-1.98 3.004-3.34 3.24-3.404 3.25-1.508.373v.002zm31.626-33.894c-1.486.7-.583-.286 2.382-2.6 2.628-2.05 5.026-3.733 5.332-3.75 1.072-.04-5.348 5.245-7.714 6.35zm51.055-44.55c-.51-1.245-1.513-.644-6.02 3.594-2.973 2.797-5.76 5.813-6.187 6.702-1.475 3.065 2.13 1.21 7.58-3.892 3.99-3.736 5.094-5.27 4.63-6.403h-.002zm-93.692 59.84c5.715-5.402 7.586-9.21 2.953-6.024-8.89 6.12-10.768 7.85-9.29 8.563 1.333.64.97 1.816-.948 3.045-.425.273-1.105 1.183-1.51 2.022-.624 1.29-.484 1.472.904 1.19.952-.195 1.906-1.123 2.274-2.215.35-1.03 2.875-3.993 5.615-6.58zm38.832-37.67l1.585-2.717-3.335 2.087c-3.655 2.284-12.38 11.347-12.943 13.442-.196.724.098 1.437.655 1.586 1.203.323 11.776-10.523 14.038-14.4v.003zm4.695-6.012c-.38-.403-1.163-.286-1.744.26-.58.545-.95 1.513-.82 2.15.13.636.913.52 1.742-.26.83-.78 1.196-1.75.82-2.15zm-54.178 49.504c-.402-.426-.867-.262-1.036.367-.17.626-.17 1.285-.005 1.462.166.176.633.012 1.035-.366.404-.38.405-1.037.004-1.464zm35.75-35.83c1.61-2.11 1.87-3.005.816-2.8-3.1.6-13.812 12.25-11.76 12.8 1.154.31 7.503-5.49 10.95-10h-.004zm-120.59 80.266c-1.074.68-2.385 1.928-2.913 2.77-.528.84.352.282 1.956-1.24 1.603-1.524 2.032-2.213.957-1.53zM496.98 223.13c-.63-.168-2.162.714-3.41 1.965-2.165 2.167-2.16 2.217.114 1.135 3.423-1.632 4.607-2.747 3.295-3.1zM50.072 756.673c-2.416 1.502-2.008.887 1.976-2.97 3.32-3.22 4.878-4.298 4.59-3.188-.48 1.874-2.067 3.362-6.567 6.158h.003zm-43.734 9.51c-2.517 1.903-5.05 3.448-5.635 3.43-.584-.017.542-1.245 2.502-2.728 1.964-1.48 5.83-4.507 8.593-6.73 2.764-2.22 5.36-4.028 5.77-4.013.913.027-5.066 5.373-11.23 10.042zM757.38 52.49c4.853-7.12 14.706-18.645 14.692-17.188-.012 1.26-11.097 15.328-14.382 18.25l-2.63 2.34 2.32-3.403zm-1.574-11.608c.014-.474.622-1.093 1.347-1.38.806-.314.794.023-.025.858-.74.76-1.335.992-1.322.522zm4.282-4.62c-.127-.616 1.784-3.012 4.243-5.325 5.59-5.256 5.666-4.55.18 1.678-2.63 2.986-4.28 4.347-4.42 3.647h-.002zm10.3-11.023c-.13-.64.326-1.68 1.012-2.314 1.077-.996 1.19-.913.82.59-.563 2.273-1.532 3.184-1.83 1.72l-.002.002zm-103.116 74.1c.012-.474.62-1.094 1.346-1.378.805-.316.793.02-.026.856-.74.76-1.335.99-1.32.52zm-8.088 2.803c-2.433 1.436-2.515 1.415-.92-.244.957-.998 3.28-3.65 5.153-5.89 2.928-3.503 3.573-3.906 4.57-2.844.953 1.012.504 1.794-2.488 4.32-2.01 1.7-4.854 3.795-6.318 4.658h.002zm73.426-69.786c.014-.475.62-1.094 1.347-1.378.803-.317.792.02-.028.855-.744.76-1.337.994-1.32.52v.002zm-32.597 19.63c.013-.473.62-1.093 1.347-1.378.805-.316.793.02-.026.856-.74.758-1.336.992-1.32.52zM687.7 57.87c-3.986 3.406-5.873 4.488-6.933 3.98-1.194-.578-.9-1.058 1.62-2.674 1.765-1.13 6.172-5.968 10.343-11.354 5.31-6.855 6.57-8.943 4.676-7.74-1.967 1.246-1.473.36 2.053-3.687 2.552-2.93 5.804-6.407 7.224-7.722 2.47-2.29 2.563-2.287 2.174.11-.255 1.572-1.396 3.183-3.064 4.324-1.745 1.19-4.336 5.01-7.518 11.08-2.672 5.095-4.913 9.206-4.98 9.135-.068-.072-2.588 1.972-5.6 4.548h.004zM477.96 244.327c.014-.474.622-1.094 1.346-1.378.807-.32.795.02-.026.853-.74.76-1.335.994-1.32.522v.002zm114.543-109.27c.742-1.03 2.225-2.425 3.294-3.1 1.07-.68.46.16-1.35 1.865s-2.684 2.26-1.944 1.234zm-122.925 113.96l-3.722 2.645 3.218-3.915c1.768-2.153 3.536-3.755 3.926-3.566.39.198 1.595-.76 2.677-2.124 1.36-1.722 2.05-2.08 2.234-1.172.28 1.376-2.11 3.71-8.33 8.135l-.002-.003zm-51.2 45.7c.74-1.027 2.223-2.423 3.294-3.097 1.07-.68.46.16-1.35 1.864-1.812 1.704-2.685 2.26-1.944 1.234zm135.43-127.806c-2.255.416 9.85-10.972 12.814-12.05 1.36-.495-.166 1.366-4.496 5.488-3.6 3.434-7.344 6.386-8.317 6.565h-.003v-.002zM649.8 76.69c-1.334.26-1.38-.102-.227-1.71.806-1.118 2.692-3.04 4.188-4.27 1.5-1.233 3.77-3.108 5.05-4.167 1.81-1.502 2.235-1.54 1.9-.186-.548 2.208-8.664 9.9-10.908 10.333h-.002zm-47.315 42.207l-6.295 4.312 7.147-6.708c3.933-3.69 7.385-6.455 7.675-6.148.97 1.035-2.194 4.207-8.527 8.544zM632 90.39c-1.49.777-1.146.168 1.133-2.002 1.8-1.716 4.198-3.46 5.328-3.87 2.468-.902-2.99 4.06-6.46 5.872zM419.804 286c-1.912-3.506-.77-6.39 4.068-10.28 4.7-3.784 10.867-6.77 13.797-6.682 1.983.06 2.006.028-8.974 10.792-7.412 7.267-8.054 7.71-8.892 6.17zm88.528-81.277c.013-.473.622-1.093 1.347-1.378.803-.316.79.02-.03.855-.74.762-1.334.995-1.32.523h.002zm8.336-7.98c.74-1.028 2.223-2.424 3.293-3.098 1.07-.68.46.16-1.35 1.864-1.81 1.7-2.685 2.26-1.942 1.23v.003zm-75.39 69.133c-.38-.402.155-1.524 1.184-2.492 1.065-1 1.975-1.264 2.11-.607.127.636-.403 1.758-1.185 2.494-.783.74-1.733 1.01-2.11.608v-.002zm18.24-19.243c-2.12.25-2.168.018-.683-3.324 1.114-2.515 2.41-4.005 4.31-4.957 1.955-.978 2.327-.954 1.322.093-1.137 1.184-1.077 1.39.322 1.12 2.226-.432 2.096.28-.7 3.858-1.456 1.863-3.124 3.032-4.572 3.207h-.002l.002.003zM942.968 541V375.828c25.228-25.704 66.64-62.356 114.24-62.356 14.756 0 20.468 15.708 20.468 41.412V541h39.984V354.884c0-50.456-17.136-81.396-60.452-81.396-42.84 0-85.204 28.084-114.24 56.168V279.2h-39.984V541h39.984zm252.28-261.8V541h39.508V279.2h-39.508zm-4.76-80.444c0 14.28 10.472 24.752 24.752 24.752 13.804 0 24.276-10.472 24.276-24.752 0-13.804-10.472-24.276-24.276-24.276-14.28 0-24.752 10.472-24.752 24.276zm128.996-48.076v320.824c0 17.612 0 42.364 16.66 59.024 14.756 14.756 43.316 16.184 58.072 16.184l1.428-33.796c-13.328 0-23.324-2.856-30.464-9.996-6.188-6.188-6.188-20.468-6.188-31.416V150.68h-39.508zm118.048 262.276c0 71.876 38.08 133.756 114.24 133.756 19.516 0 57.596 1.904 105.196-57.12l-24.276-23.324c-36.176 47.6-67.116 46.172-80.92 46.172-50.456 0-77.112-42.364-74.732-104.244h178.5v-18.564c0-18.564-8.092-116.144-105.672-116.144-68.544 0-112.336 63.308-112.336 139.468zm112.336-105.196c44.744 0 60.928 38.556 65.212 65.212h-132.804c10.472-36.652 32.368-65.212 67.592-65.212zM1766.448 541V375.828c25.228-25.704 66.64-62.356 114.24-62.356 14.756 0 20.468 15.708 20.468 41.412V541h39.984V354.884c0-50.456-17.136-81.396-60.452-81.396-42.84 0-85.204 28.084-114.24 56.168V279.2h-39.984V541h39.984zm281.792-192.78c0-35.224 29.988-41.412 43.792-41.412 23.324 0 44.268 8.568 56.644 21.896l25.704-24.752c-18.564-18.564-48.076-30.464-82.348-30.464-25.228 0-83.3 10.948-83.3 74.732 0 49.028 42.364 63.308 82.348 75.208 28.084 8.568 59.024 18.564 59.024 45.696 0 29.988-25.704 44.268-51.884 44.268-30.464-.476-61.404-16.184-75.684-42.364l-27.608 22.372c22.372 35.7 63.784 53.312 102.34 53.312 46.172 0 92.344-24.752 92.344-77.588 0-56.168-44.744-69.02-87.108-81.872-27.608-8.568-54.264-16.66-54.264-39.032zm190.4 61.88c0 103.292 56.644 136.612 113.764 136.612s113.764-35.7 113.764-136.612c0-99.484-56.644-136.612-113.764-136.612S2238.64 310.14 2238.64 410.1zm187.544 0c0 76.636-37.604 104.244-73.78 104.244s-73.78-29.036-73.78-104.244c0-76.16 37.604-103.768 73.78-103.768s73.78 29.988 73.78 103.768z"/></g></svg>