<svg xmlns="http://www.w3.org/2000/svg" viewBox="0 0 256 30.463"><title>Alaris Prime</title><path d="M13.955.572l7.836 29.362h-4.93l-1.852-7.348h-8.58l-1.8 7.352H.005L8.505.576h5.46zM10.74 5.327L7.397 18.753h6.647zM30.9.572v25.27h10.39v4.093H26.057V.572H30.9zm27.335 0l7.836 29.362h-4.93l-1.847-7.352h-8.585l-1.8 7.352h-4.622l8.5-29.362h5.46zM55.02 5.327l-3.344 13.426h6.647zM79.143.572c3.082 0 5.062.528 6.56 1.673a8.336 8.336 0 0 1 2.816 6.692 7.926 7.926 0 0 1-4.49 7.7l5.545 13.294h-5.24L79.76 17.65h-4.58v12.28h-4.842V.573h8.8zM75.18 13.91h3.743c3.082 0 4.8-1.8 4.8-5.018 0-3.037-1.63-4.578-4.8-4.578H75.18v9.6zM99.566.572v29.362h-4.842V.572h4.842zm20.292 8.014c-1.1-3.3-2.51-4.534-5.15-4.534a3.7 3.7 0 0 0-4.007 3.7 3.444 3.444 0 0 0 1.19 2.6c.88.748 1.72 1.144 4.668 2.29a16.807 16.807 0 0 1 5.59 2.95 7.83 7.83 0 0 1 2.6 5.986c0 5.24-4.005 8.893-9.815 8.893a10.28 10.28 0 0 1-7.44-2.77 9.867 9.867 0 0 1-2.73-5.416l4.314-1.233c.792 3.655 2.73 5.416 5.943 5.416 2.86 0 4.754-1.673 4.754-4.226 0-2.2-1.233-3.39-4.975-4.8-4.05-1.542-4.8-1.894-6.21-3.127a7.853 7.853 0 0 1-2.64-5.987c0-4.887 3.7-8.276 9.024-8.276a8.943 8.943 0 0 1 6.383 2.29c1.276 1.188 1.892 2.376 2.64 4.8zm20.555-2.29a6.087 6.087 0 0 1-6.075 6.074 6.19 6.19 0 0 1-6.163-6.207A6.107 6.107 0 0 1 134.25 0a6.183 6.183 0 0 1 6.163 6.295zm-9.068-.133a3.025 3.025 0 0 0 2.993 2.994 2.94 2.94 0 0 0 2.905-2.95 3 3 0 0 0-2.95-3.037 2.96 2.96 0 0 0-2.948 2.993zm22.888-5.59c3.785 0 5.767.4 7.4 1.54a8.89 8.89 0 0 1 3.39 7.4c0 3.39-1.32 6.163-3.654 7.57-1.72 1.057-3.348 1.366-7.046 1.366h-2.51v11.49h-4.84V.57h7.263zm-2.42 14h2.42c2.29 0 3.522-.31 4.314-1.1a5.74 5.74 0 0 0 1.364-4.05 5.433 5.433 0 0 0-1.715-4.315c-.836-.66-1.5-.792-3.962-.792h-2.42v10.257zm26.982-14c3.082 0 5.062.527 6.56 1.672a8.336 8.336 0 0 1 2.816 6.692 7.926 7.926 0 0 1-4.49 7.7l5.55 13.294h-5.24l-4.58-12.276h-4.58v12.282h-4.84V.572h8.8zm-3.962 13.337h3.742c3.082 0 4.8-1.8 4.8-5.018 0-3.037-1.63-4.578-4.8-4.578h-3.742v9.6zM199.218.572v29.362h-4.842V.572h4.842zm14.09 0l5.853 21.174L225.194.572h6.91v29.362h-4.577V4.886l-6.955 25.048h-3.565L210.18 4.842v25.092h-4.05V.572h7.177zm42.517 0v3.874H243.85v8.452h9.377v3.874h-9.376v9.2H256v3.962h-16.993V.572h16.816z"/></svg>