<svg width="2808" height="780" viewBox="0 0 2808 780" xmlns="http://www.w3.org/2000/svg"><title>logo-activesphere</title><path d="M167.665 472.584L10 564.258l63.37-146.605 94.295 54.946v-.016zm22.697-254.655L339.71 564.257 76.173 410.752l83.174-192.823c5.18-5.135 10.36-7.268 15.462-6.4 5.178-.944 10.358 1.19 15.568 6.4h-.016zM519.707 544.5c-9.963 7.312-22.09 12.827-36.408 16.498-13.955 4.022-28.426 6.032-43.416 6.032-19.956 0-36.895-3.168-50.88-9.505a87.56 87.56 0 0 1-33.42-26.476c-8.638-11.685-14.93-25.684-18.95-42-3.657-16.344-5.485-34.35-5.485-54 0-42.35 9.474-74.842 28.424-97.494 18.965-23.002 46.568-34.504 82.823-34.504 18.28 0 32.904 1.493 43.903 4.494a147.763 147.763 0 0 1 30.406 11.5l-15.462 53.013a128.6 128.6 0 0 0-22.942-8.53c-7.312-1.982-15.797-2.987-25.44-2.987-17.975 0-31.608 6.002-40.916 17.975-9.323 11.7-13.984 30.528-13.984 56.516 0 10.663 1.173 20.504 3.504 29.507 2.33 8.988 5.82 16.85 10.465 23.506 4.647 6.657 10.634 11.988 17.946 15.995 7.662 3.657 16.452 5.485 26.445 5.485 10.97 0 20.29-1.326 27.954-3.99 7.647-3.002 14.47-6.506 20.458-10.512l14.975 49.508h.045l-.045-.03zM533.493 310h34.427v-46.98l64.863-18.524V310h60.857v54.99h-60.857v96.017c0 17.32 1.676 29.81 4.982 37.474 3.656 7.343 10.313 11.014 19.955 11.014 6.657 0 12.31-.655 16.97-1.98 5.63-1.578 11.132-3.59 16.452-6.017l11.486 49.995c-8.988 4.342-19.468 8.013-31.44 11.014a149.56 149.56 0 0 1-36.41 4.494c-22.956 0-39.91-5.834-50.878-17.518-10.664-11.99-15.995-31.488-15.995-58.496v-125.98h-34.428v-54.992l.016-.015zm206.35 0h64.864v249.977h-64.833V310h-.03zm-9.475-70.5c0-9.674 3.504-17.824 10.51-24.496 7.313-7.007 17.306-10.51 29.934-10.51 12.644 0 22.774 3.503 30.42 10.51 8 6.657 11.99 14.822 11.99 24.495 0 9.672-4.006 17.822-11.99 24.494-7.615 6.337-17.776 9.506-30.404 9.506-12.644 0-22.622-3.17-29.934-9.506a32.493 32.493 0 0 1-10.51-24.495h-.016zm224.28 201.505l8.485 38.495h2.498l6.978-39.454 42.41-130.017h69.844L980.636 562.505h-39.424L832.902 310h75.33l46.4 131.005h.046-.03zm347.12 97.493c-9.976 7.998-23.61 14.838-40.915 20.504A180.362 180.362 0 0 1 1206.47 567c-40.247 0-69.677-11.67-88.308-35.006-18.63-23.658-27.938-55.998-27.938-96.99 0-44.025 10.48-77.005 31.442-99.017 20.946-21.982 50.377-32.98 88.292-32.98 12.644 0 24.952 1.675 36.926 4.996 11.988 3.352 22.62 8.836 31.93 16.498 9.29 7.663 16.8 18.007 22.453 31 5.636 13.01 8.485 29.188 8.485 48.534 0 7.007-.503 14.502-1.524 22.5-.655 7.997-1.828 16.33-3.473 24.982h-149.667c1.02 21.022 6.352 36.865 15.995 47.528 9.947 10.663 25.896 15.995 47.878 15.995 13.635 0 25.776-1.98 36.41-6.003 10.967-4.357 19.3-8.683 24.95-13.024l21.48 42.5-.03-.015zm-92.785-183.5c-16.954 0-29.598 5.18-37.93 15.507-7.968 9.994-12.797 23.49-14.472 40.49h92.817c1.37-17.975-1.462-31.837-8.454-41.495-6.657-9.673-17.29-14.502-31.93-14.502h-.03zm298.756 111.005c0-10.663-3.992-19.346-11.99-26.003-7.647-6.657-17.457-12.644-29.43-18.006a620.48 620.48 0 0 0-38.388-17 226.977 226.977 0 0 1-38.388-21.48 117.662 117.662 0 0 1-29.462-32.02c-7.647-12.643-11.47-28.82-11.47-48.487 0-17 2.833-31.686 8.485-44.025 5.636-12.643 13.603-23.124 23.916-31.456 10.663-8.333 23.155-14.472 37.428-18.494 14.305-4.02 30.24-6.032 47.864-6.032 20.306 0 39.455 1.828 57.4 5.484 17.975 3.35 32.75 8.378 44.39 15.02l-21.45 57.49c-7.31-4.676-18.28-8.835-32.903-12.49-14.654-4.007-30.466-6.003-47.42-6.003-15.934 0-28.228 3.17-36.865 9.507-8.348 6.322-12.49 14.822-12.49 25.485 0 10.01 3.807 18.34 11.47 25.013 7.982 6.657 17.792 12.827 29.43 18.494a1703.308 1703.308 0 0 0 38.42 17.47 187.98 187.98 0 0 1 38.417 21.998 101.987 101.987 0 0 1 29.4 31.533c7.998 12.31 11.99 27.817 11.99 46.463 0 18.706-3.154 34.884-9.476 48.518a88.704 88.704 0 0 1-25.943 33.514c-10.968 8.988-24.434 15.66-40.398 19.986-15.645 4.342-32.935 6.505-51.885 6.505-24.937 0-46.888-2.33-65.854-7.008-18.95-4.676-32.934-9.338-41.89-14.014l21.935-58.496c3.657 2.01 8.303 4.19 13.97 6.52 5.986 2.33 12.643 4.51 19.955 6.504a234.25 234.25 0 0 0 22.957 4.983c8.302 1.325 16.787 1.98 25.44 1.98 20.29 0 35.752-3.32 46.4-9.978 10.968-7.007 16.452-17.518 16.452-31.502l-.015.03zm111.888-155.99h47.406l7.464 30.01h2.01c8.623-12.69 18.738-22.027 30.406-28.03 11.99-6 26.46-8.986 43.415-8.986 31.258 0 54.687 9.993 70.332 30.01 15.644 19.65 23.46 51.488 23.46 95.512 0 21.326-2.5 40.642-7.496 57.977-4.966 17.016-12.446 31.533-22.44 43.522a94.37 94.37 0 0 1-35.92 27.495c-13.983 6.352-30.115 9.52-48.41 9.52-10.313 0-18.783-.837-25.44-2.498a78.116 78.116 0 0 1-19.955-7.007V660h-64.863V310l.03.014zM1730.892 358c-12.674 0-22.652 3.152-29.964 9.505-7.008 6.306-12.492 15.796-16.452 28.486v103.983c4.646 3.656 9.597 6.657 14.928 8.988 5.667 1.98 12.994 3.002 21.982 3.002 18.63 0 32.6-6.505 41.892-19.5 9.323-13.328 13.984-35.188 13.984-65.502 0-21.997-3.656-38.997-10.968-50.986-7.312-12.004-19.118-18.006-35.433-18.006l.032.03zM2042.2 559.992V418.018c0-20.336-2.834-35.036-8.485-44.024-5.682-8.988-15.995-13.497-30.97-13.497-10.968 0-21.113 3.81-30.42 11.47a52.6 52.6 0 0 0-17.945 28.487v159.493h-64.864v-349.94h64.864v127.99h1.98a90.486 90.486 0 0 1 29.446-25.5c11.638-6.322 26.445-9.49 44.405-9.49 12.645 0 23.765 1.675 33.423 4.996 9.643 3.352 17.625 8.836 23.947 16.498 6.657 7.663 11.47 18.174 14.47 31.503 3.322 12.994 4.983 29.172 4.983 48.503v155.487h-64.85.017zm318.74-21.48c-9.976 7.983-23.61 14.823-40.9 20.49a180.362 180.362 0 0 1-54.383 7.997c-40.216 0-69.662-11.67-88.292-35.006-18.646-23.658-27.97-55.998-27.97-96.99 0-44.025 10.482-77.005 31.428-99.017 20.946-21.982 50.392-32.98 88.307-32.98 12.644 0 24.937 1.675 36.91 4.996 11.99 3.352 22.622 8.836 31.93 16.498 9.292 7.663 16.802 18.007 22.453 31 5.637 13.01 8.485 29.188 8.485 48.534 0 7.007-.502 14.502-1.492 22.5-.67 7.997-1.828 16.33-3.504 24.982H2214.26c1.005 21.022 6.337 36.865 15.995 47.528 9.962 10.663 25.927 15.995 47.878 15.995 13.634 0 25.775-1.98 36.408-6.003 10.97-4.357 19.317-8.683 24.983-13.024l21.434 42.5h-.016zM2268.17 355c-16.954 0-29.598 5.18-37.93 15.507-7.983 9.994-12.796 23.49-14.472 40.49h92.8c1.327-17.975-1.522-31.837-8.484-41.495-6.657-9.673-17.29-14.502-31.93-14.502h.017zm284.254 15.995c-10.298-3.656-19.605-5.484-27.923-5.484-11.637 0-21.447 3.167-29.43 9.49a43.872 43.872 0 0 0-15.476 23.535v161.473H2414.7V310.014h50.422l7.464 32.995h1.98c5.667-12.31 13.315-21.815 22.957-28.487 9.643-6.657 20.96-9.993 33.925-9.993 8.652 0 18.463 1.828 29.446 5.484l-8.485 61.01v-.03h.014zm237.274 167.505c-9.978 7.998-23.612 14.838-40.917 20.504A180.362 180.362 0 0 1 2694.4 567c-40.217 0-69.663-11.67-88.294-35.006-18.63-23.658-27.938-55.998-27.938-96.99 0-44.025 10.48-77.005 31.427-99.017 20.946-21.982 50.39-32.98 88.307-32.98 12.644 0 24.937 1.675 36.91 4.996 11.99 3.352 22.622 8.836 31.93 16.498 9.292 7.663 16.756 18.007 22.423 31 5.636 13.01 8.485 29.188 8.485 48.534 0 7.007-.518 14.502-1.523 22.5-.655 7.997-1.828 16.33-3.504 24.982H2642.97c1.022 21.022 6.338 36.865 15.965 47.528 9.978 10.663 25.943 15.995 47.894 15.995 13.633 0 25.743-1.98 36.407-6.003 10.967-4.357 19.285-8.683 24.952-13.024l21.447 42.5h.03l.03-.015zm-92.8-183.5c-16.956 0-29.6 5.18-37.932 15.507-7.967 9.994-12.796 23.49-14.44 40.49h92.77c1.34-17.975-1.478-31.837-8.47-41.495-6.657-9.673-17.29-14.502-31.93-14.502z" fill="#000" fill-rule="evenodd"/></svg>