<svg width="2356" height="780" viewBox="0 0 2356 780" xmlns="http://www.w3.org/2000/svg"><title>logo-nilenso</title><g fill="#000" fill-rule="evenodd"><path d="M369.252 152.05c15.122-6.323-45.851 32.649-30.657 26.38 4.722-1.94 11.197-3.707 15.62-6.505-1.772.318-10.096 2.46-11.85 2.777 2.352-2.582 5.537-3.864 8.4-5.057 2.259-.933 5.525-.634 5.339-4.608-.038-.504 1.493-1.4 2.389-1.55 3.19-.501 6.403-.726 9.595-1.173.802-.114 1.512-.822 2.314-1.102 1.922-.634 3.882-1.543 5.842-1.619 11.163-.392 22.325-.913 33.506-.71 12.786.226 25.237 3.134 37.557 6.549 5.002 1.38 10.19 2.052 15.212 3.34 3.939.989 7.897 2.09 11.61 3.692 11.461 5.075 23.035 10.056 34.197 15.802 9.052 4.665 17.621 10.298 26.244 15.765 4.275 2.722 8.102 6.155 12.19 9.194 11.274 8.34 20.457 18.862 30.146 28.823 1.138 1.174 1.979 2.63 2.986 3.973.294.39.502 1.12.892 1.212 6.795 1.586 7.037 8.525 10.584 12.778.449.577.786 1.325 1.212 1.903.244.262.618.393 1.941 1.14-.93-2.166-1.341-3.546-2.07-4.722-7.859-12.293-15.718-24.586-23.743-36.767-1.568-2.388-3.864-4.365-6.049-6.25-1.642-1.417-11.909 2.532-10.378-.565.131-.262-12.067-4.532-12.533-4.962-4.293-4.252-55.86-36.106-59.778-41.18-3.582-4.645 30.944 9.848 25.622 6.583-4.63-2.874-14.6-17.56-19.062-20.637-2.652-1.827 24.63 18.788 22.28 16.343.148-.074-29.727-31.411-29.41-31.207 2.389 1.66 15.367 7.67 17.664 9.46-2.497-14.324 29.305 14.43 29.622 14.581 4.555 1.847 15.43 4.507 19.873 6.562 3.172 1.471 7.07 4.33 10.132 5.97 3.958 2.109 2.493 2.896 6.486 4.948 1.103.597 11.555 10.122 12.338 11.094 1.94 2.369-14.497 5.937-11.77 3.868l2.761 2.314c-.335-5.988-6.009-7.63-8.772-11.789a587.1 587.1 0 0 1 6.01 3.618c-.635-1.66-.99-2.481-1.307-3.32.223-.206.466-.411.69-.635.728.97 2.184 2.033 2.054 2.873-.561 3.788 11.205 5.198 13.614 6.392 3.285 1.623-2.34 2.564 1.598 4.242-.149.132.487-.39 1.737-1.364.243.526.615.991.653 1.458.392 5.392 4.928 7.723 8.027 11.135 8.214 9.03 16.26 18.133 22.232 28.897 1.81 3.302 4.65 6.063 6.439 9.384 5.022 9.214 9.745 18.579 14.544 27.944 3.977 7.76 7.95 15.538 10.283 24.044 3.117 11.473 6.944 22.758 9.556 34.343 2.727 12.162 4.277 24.549 6.348 36.86.038.114.057.243.057.373.746 11.772.672 23.672 2.407 35.276 1.716 11.455-.953 22.35-2.241 33.393-.953 8.04-4.182 15.782-6.086 23.71-1.884 7.778-3.323 15.688-5.058 23.56-.429 1.994-1.174 3.971-1.81 5.93.337.15.653.261.99.392.355-.672.616-1.363 1.027-1.998.336-.596.729-1.138 1.94-1.363-.52 1.717-.951 3.49-1.622 5.113-3.772 9.01-7.56 17.98-11.5 26.899-.428 1.045-1.81 1.66-2.556 2.613-.933 1.174-2.575 3.263-2.222 3.693 3.472 4.737-1.326 7.778-2.67 10.986-2.855 6.827-6.924 13.247-11.16 19.383-8.606 12.574-17.753 24.755-28.84 35.37-.318.353-.504.782-1.139 1.808 1.568-.373 2.519-.578 4.46-1.045-5.748 5.208-10.75 9.722-15.753 14.348-.896.783-1.512 1.865-2.222 2.816-1.157 1.586-1.81 3.134-4.76 2.613-2.238-.392-5.823.242-5.823 4.383 0 .672-.71 1.567-1.325 2.033-3.153 2.406-6.216 4.905-9.611 6.922-2.632 1.603-5.713 2.424-8.475 3.823-1.028.54-2.316 1.79-2.353 2.702-.15 3.9-3.172 4.234-5.712 4.98-3.006.915-5.489 1.904-7.039 5.13-.71 1.512-3.397 2.333-5.376 2.966-4.612 1.55-9.39 2.705-13.98 4.309-.935.337-1.327 1.997-2.39 2.24-2.482 1.12-4.89 2.405-7.41 3.358-2.427.951-5.058 1.362-7.392 2.405-8.007 3.528-16.463 5.355-24.974 7.146-6.16 1.324-12.283 2.724-18.704 3.34 29.473-9.233 58.984-18.17 84.276-36.673a7.123 7.123 0 0 1-.467-1.12c-2.538 1.155-5.056 2.369-8.173 3.825.541-1.288.895-2.036 1.194-2.78a8.123 8.123 0 0 0-.69-.673c-2.204 3.06-7.206 2.48-8.177 7.313-.15.747-1.903 1.343-3.024 1.735-2.67.933-5.56 1.362-8.118 2.538-9.109 4.16-18.126 8.561-27.235 12.777-1.157.541-2.594.504-3.939.746l-.373-.95c5.9-3.078 11.947-5.952 17.716-9.254 4.16-2.405 7.987-5.297 11.963-8.002.615-.43 1.158-1.25 1.83-1.362 10.005-1.828 16.818-9.289 24.826-14.457 7.187-4.663 13.159-11.268 19.637-17.031.466-.43.672-1.174.503-2.37l-12.264 9.01c-.242-.28-.465-.504-.727-.783 21.037-18.095 42.055-36.227 56.708-60.122-.412-.392-.896-.766-1.325-1.158-2.074 2.724-4.164 5.448-6.217 8.172-4.104 5.465-7.859 11.268-12.394 16.378-2.854 3.264-6.81 5.558-10.283 8.263-2.765 2.178-4.517 5.276-8.418 6.562-2.727.897-4.516 4.646-6.777 7.071-2.407 2.576-5.188 4.441-8.642 4.943-.337-.391-.653-.783-1.009-1.155 2.296-1.587 4.573-3.134 6.87-4.702-.467-.54-.971-1.12-1.419-1.698-20.888 17.219-43.231 32.086-68.02 42.942-.203-.335-.371-.596-.52-.913 4.685-2.652 9.37-5.225 14.074-7.911 5.003-2.817 10.155-5.429 14.84-8.712 4.368-3.077 10.154-4.72 12.095-10.728-17.173 10.094-34.795 19.16-53.685 25.763 6.645-3.506 13.273-6.995 19.936-10.539-.076-.242-.093-.466-.131-.71-1.103 0-2.354-.39-3.267.038-4.854 2.22-9.54 4.905-14.43 6.921-7.485 3.116-15.157 5.802-22.83 8.598-.596.227-1.454-.147-3.304-.333a5037.26 5037.26 0 0 1 19.752-9.196c-.114-.37-.237-.739-.375-1.1-1.101.111-2.221.26-4.125.446 1.155-.838 1.734-1.361 2.37-1.715 1.25-.635 2.818-.896 3.752-1.809 9.24-8.881 21.503-13.021 31.658-20.446 7.688-5.633 15.547-11.116 23.2-16.788 1.438-1.062 2.39-2.723 3.51-4.177-.298-.357-.542-.691-.84-1.029-1.197.635-2.466 1.175-3.567 1.96-1.96 1.362-4.106 2.687-5.712 4.422-5.284 5.876-12.542 8.636-19.132 12.404-2.483 1.418-5.34 2.127-8.027 3.21-2.8 1.137-5.824 1.995-8.38 3.543-3.659 2.22-7.783.654-11.48 2.033-1.493.54-3.098.877-5.04.654.691-.578 1.288-1.326 2.055-1.792 8.715-5.24 18.236-9.493 25.944-15.929 8.4-6.976 17.716-12.591 26.19-19.288.95-.748 1.641-1.791 2.146-3.004-20.496 11.585-39.684 25.333-61.692 34.23.597-.54 1.157-1.286 1.866-1.622 4.238-1.956 6.982-5.78 11.369-8.02 9.09-4.681 17.135-11.508 25.442-17.74 2.165-1.622 5.6-2.723 5.244-7.162-1.117.783-1.884 1.174-2.48 1.79-5.657 5.521-12.32 8.525-20.179 9.96-3.21.58-5.974 3.788-8.867 5.951-3.098 2.332-6.029 4.832-9.071 7.295a13.505 13.505 0 0 0-.784-.672c1.53-1.682 3.06-3.38 5.189-5.672a9667.499 9667.499 0 0 1-15.177 7.386c-.317-.392-.558-.858-.859-1.288 18.032-9.232 34.327-20.837 49.149-34.436-.262-.373-.486-.727-.748-1.081-3.434 2.052-6.85 4.197-10.302 6.268a13.77 13.77 0 0 0-.393-.54c3.258-2.308 6.5-4.64 9.724-6.997 1.254-1.007 2.523-2.032 3.662-3.153 8.38-8.001 17.228-15.576 24.955-24.193 10.005-11.135 19.058-23.037 26.506-36.227 6.233-11.043 11.945-22.254 15.958-34.173 2.743-8.228 4.087-16.977 5.637-25.575 1.474-8.228 3.004-16.548 3.378-24.868.449-11.565.038-23.224-.354-34.809-.205-6.23-.69-12.48-1.79-18.616-1.363-7.724-2.97-15.503-5.397-22.946-4.61-14.102-9.836-27.98-14.932-41.933-.691-1.846-2.184-3.415-3.042-5.224-.821-1.66-1.138-3.6-2.017-5.242-1.96-3.655-3.901-7.385-6.29-10.761-3.995-5.558-8.062-11.081-12.58-16.192-4.386-4.98-9.37-9.402-14.149-14.01-1.174-1.158-2.442-2.296-3.825-3.171-1.139-.73-1.941-3.23-3.977-1.047-.13.15-1.119-.298-1.604-.653-2.763-1.94-5.618-3.86-8.27-6.006-14.483-11.921-31.938-16.807-49.818-20.462-8.846-1.808-17.862-3.674-26.821-3.598-11.91.09-23.819 1.79-35.672 3.356-6.253.82-12.45 2.537-18.516 4.365-4.312 1.287-8.363 3.507-12.525 5.28-2.69 1.12-5.45 2.07-8.064 3.376-8.1 4.086-16.07 8.301-24.173 12.293-1.548.764-3.415.914-5.113 1.38-.448.112-.97.298-1.326.596-3.64 3.005-7.263 6.063-11.255 9.384-.673-1.585-1.083-2.649-1.55-3.693a58.89 58.89 0 0 1-1.027-.615c.114 7.2-5.728 9.25-9.724 12.907-2.633 2.424-5.284 4.848-7.71 7.5-5.711 6.211-11.292 12.574-16.987 18.894 0 0-.52-.858-1.604-2.556-1.549 3.396-2.725 6.23-4.125 8.955-.559 1.064-1.792 1.79-2.428 2.835-1.699 2.873-3.453 5.746-4.76 8.768-1.513 3.507-2.556 7.2-3.828 10.801-1.307 3.769-2.5 7.573-4.032 11.249-.84 2.014-2.67 3.674-3.361 5.727-1.345 4.197-2.017 8.6-3.361 12.779-1.082 3.338-2.744 6.472-4.574 10.652-.577-2.24-.95-3.712-1.326-5.187.394.11.824.223 1.212.335.881-2.034 1.98-4.03 2.56-6.156 2.166-7.91 1.475-16.397 6.104-23.952 3.49-5.708 4.18-13.115 7.615-18.841 5.768-9.663 12.208-19.028 19.264-27.814 9.315-11.565 20.346-21.489 32.834-29.678 2.67-1.754 5.413-3.396 8.008-5.242 1.829-1.307 3.49-2.967 4.367.41 9.538-5.186 18.722-10.167 27.924-15.166 8.4-4.552 16.67-9.513 25.312-13.58 4.926-2.295 10.526-3.172 15.827-4.552 2.447-.634 4.986-.912 7.468-1.434 1.27-.28 2.54-.728 4.388-1.288-1.007-.783-1.401-1.36-1.754-1.343-4.292.317-8.64.392-12.858 1.174-4.425.822-3.16 3.485-7.528 4.605-1.808.445-2.636 1.375-4.465 1.638-.372.054-4.8 1.261-4.948 1.506-1.998 3.244-7.59 4.08-10.558 4.992-1.846.56-67.813 38.439-70.63 38.439-1.999-3.658 35.462-22.801 36.116-27.372-6.328 2.297-29.588 20.61-35.413 21.261-6.887.73 38.272-33.354 32.281-31.862-.262-.41-.504-.859-.786-1.269 4.929-2.947 9.838-5.895 14.785-8.805.859-.502 2.296-.597 2.651-1.286 3.08-5.522 9.014-4.943 13.812-6.753 4.779-1.828 9.576-3.693 14.15-6.119-5.58-2.145-45.583 22.232-50.867 22.081 1.662-1.155 7.19-5.748 8.852-6.906-.148-.263 2.38-2.14 2.23-2.4-1.96.653-3.027.543-4.969 1.196-.204-.374-6.192 2.95-6.416 2.576 2.017-1.175 2.954-4.078 5.01-5.18 1.978-1.08 39.61-17.749 41.663-18.776-.187-.45-.369-.904-.54-1.36-2.558.708-5.209 1.193-7.69 2.145-5.88 2.22-11.837 4.289-17.455 7.106-8.139 4.048-15.96 8.692-23.949 13.095-3.789 2.09-7.615 4.086-11.367 6.212-7.281 4.012-12.64 10.018-17.848 16.434-4.909 6.044-10.77 11.25-15.96 17.013-4.33 4.795 29.58-33.362 25.361-28.475-2.5 2.872 6.562-4.064 4.04-1.173-.914 1.042 3.377-2.944 2.63-1.751.3.223 8.313-4.791 8.593-4.55 1.808-2.07-58.712 59.36-56.864 57.289-5.469 10.034 64.321-71.249 58.225-53.963 9.587-7.016 14.999-4.126-2.622 8.323.448-1.006-71.041 73.993-70.463 73.099 3.863-6.027 7.821-11.997 11.612-18.04 2.333-3.75 4.18-7.779 6.607-11.453 2.372-3.563 33.446-42.61 36.284-45.836 4.088-4.683-20.1 26.398-15.713 21.995 3.508-3.525 7.391-6.734 11.404-10.37-.225 1.472-.374 2.628-.54 3.787.39.24.8.445 1.193.707 1.586-2.389 3.191-4.777 4.778-7.165-.765 7.725 27.317-19.221 22.37-14.018.206.41 1.79 1.323 1.979 1.734 1.044-.373 12.716-8.868 4.72-.803-4.492 9.251-5.294 3.144-.236 2.135-1.158 1.846-.053 8.887-1.003 9.69-3.773 3.319-35.016 23.59-35.988 28.87-.15.672-1.082 1.66-1.661 1.679-6.796.168-7.916 5.298-9.298 10.298-3.826-.73-4.403-.019-4.292 5.725-.802-.578-1.4-.989-2.017-1.437-6.344 11.656-12.711 23.298-19.449 35.665-1.064-2.163-1.737-3.525-2.725-5.596-1.793 4.365-5.265 7.145-4.668 12.07.261 1.998-1.493 4.216-2.462 6.66-.488-.354-1.028-.727-1.887-1.325a527.629 527.629 0 0 0-1.83 5.71c-.15-.17-.28-.3-.41-.468-1.026.972-2.687 1.774-2.948 2.912-1.437 6.174-2.575 12.423-3.734 18.672-.838 4.72-1.716 9.476-2.314 14.232-.317 2.687-.038 5.448-.038 8.171-.501.038-1.025.057-1.51.076-.131-1.846-.262-3.712-.374-5.577-.224-.019-.448-.019-.71-.038-.708 2.63-1.417 5.241-2.09 7.797 1.426.689 2.856 1.366 4.292 2.033.69-1.678 1.362-3.357 2.015-4.981 3.474.133-1.716 6.23 3.883 4.702-.26 1.828-.746 3.581-.746 5.317.206 10.913.97 21.806 2.053 32.702.393 4.029.86 8.077 1.644 12.032.43 2.182 1.85 4.14 2.409 6.323.485 1.998.41 4.18.596 6.287-.502.057-.998.133-1.493.225-2.67-10.877-5.357-21.696-8.045-32.554-.374-.019-.728-.019-1.102-.019 0 3.246-.41 6.585.095 9.757 1.362 8.319 2.48 16.769 4.909 24.79 4.63 15.148 10.415 29.81 22.308 41.078.97.895 3.863 2.293.915 4.44-.093.074.748 1.734 1.382 2.387 2.146 2.145 4.386 4.177 6.607 6.23-.374.391-.71.783-1.064 1.155-1.345-1.212-2.69-2.442-3.882-3.507-6.534 1.212-8.905-3.693-11.666-8.02-.28.187-.542.354-.823.521.934 1.846 1.662 3.825 2.8 5.504 5.824 8.58 13.27 15.744 20.905 22.683.822.747 2.017 1.1 2.931 1.809 4.164 3.19 8.29 6.399 12.432 9.589-.241.374-.447.71-.71 1.045-4.327-2.107-8.659-4.289-13.067-6.306-1.694-.762-3.58-1.08-5.391-1.583-7.71-2.182-12.19-8.189-16.632-14.196-5.04-6.734-9.819-13.598-14.97-20.817-4.554 4.794 2.557 6.36 2.39 9.98-.915-.243-1.755-.523-3.21-.97 3.807 8.469 9.37 14.98 15.38 21.21-.373.335-.71.596-1.082.914-2.8-2.947-5.992-5.653-8.307-8.935-4.087-5.802-7.54-12.052-11.478-17.946-1.065-1.605-2.931-2.686-4.388-4.048-.486-.43-1.045-.99-1.25-1.587-1.046-2.892-1.979-5.876-3.137-9.289-2.724 5.691 9.465 34.715 15.96 38.278-.428-2.014-.783-3.6-1.12-5.186.253-.181.514-.35.784-.504 6.235 12.724 11.76 25.95 23.78 34.773.411-.354 1.158-.914 2.091-1.623 1.42 2.779 2.727 5.315 4.032 7.852 8.98-1.418 15.235 4.346 22.195 8.282 3.698 2.09 7.4 4.174 11.106 6.25.282-.373.521-.746.786-1.1a986.912 986.912 0 0 0-9.463-8.208c.194-.172.375-.359.54-.559 4.554 2.07 9.166 4.028 13.627 6.286 3.06 1.529 5.376 3.711 9.613 3.264 3.639-.43 7.615 2.014 12.561 3.582-1.102-2.405-1.83-3.955-3.006-6.51 4.332 2.5 7.897 4.514 11.463 6.565 1.641.934 3.358 1.98 3.638-.634 3.49.822 7.634.897 10.826 2.67 4.946 2.76 9.557 6.36 13.794 10.166 7.3 6.564 12.638 14.623 16.483 23.653.243.54.635 1.081 1.083 1.827.767-.672 1.326-1.155 2.036-1.827 1.081 7.423 3.059 14.493.39 21.73-1.94 5.337-4.087 10.354-8.417 14.216-.748.653-1.737 1.454-1.887 2.312-1.08 5.95-6.344 7.946-10.003 11.602-4.443 4.496-10.062 4.776-15.176 6.884-1.064.448-2.744-.354-4.05-.821-1.027-.354-7.803.615-8.736 1.269-1.42 1.025-2.913 2.35-4.517 2.556-9.298 1.098-18.723 2.964-27.888-.243-5.561-1.941-11.069-4.517-16.106-7.575-8.178-4.962-16.372-10.037-23.763-16.005-6.59-5.336-14.86-8.507-20.011-15.633-9.69-13.375-23.651-22.291-35.056-33.894-9.762-9.885-20.104-19.25-27.72-31.058-5.115-7.91-10.976-15.371-15.699-23.524-4.517-7.74-8.045-16.115-11.89-24.268-2.146-4.682-4.237-9.345-5.975-14.158-2.91-8.096-5.505-16.303-8.547-25.332 1.792 1.4 2.69 2.109 3.622 2.836.28-.188.522-.337.784-.486-1.55-3.096-3.098-6.211-4.63-9.327-.41-.896-1.064-1.811-1.212-2.725-3.362-18.337-3.305-36.88-3.21-55.422 0-.222.204-.428.672-1.38.559 1.288 1.155 2.147 1.288 3.097 1.604 10.99.596 22.181 3.377 33.074 1.288 5.094 1.083 10.576 2.166 15.784 1.512 7.312 3.304 14.625 5.562 21.73 1.25 3.938 3.958 7.408 5.6 11.269 1.27 2.947 1.941 6.154 2.894 9.27.337-.035.653-.073.972-.11.187-.616.617-1.326.486-1.847-2.52-9.178-4.984-18.412-7.672-27.554-2.071-7.031-4.815-13.859-6.532-20.928-1.344-5.672-2.166-11.546-2.185-17.366-.114-16.324 0-32.665.672-48.968.334-7.594 1.998-15.146 3.358-22.646.374-2.051 2.035-3.825 2.594-5.857 1.494-5.482 2.69-11.08 4.034-16.62.428-1.809 1.623-3.153 2.613-4.627 2.5-3.75 5.338-7.872 3.901-13.207-.449-1.698.483-3.993 1.231-5.821 4.443-11.118 8.96-22.199 13.402-33.26.805-1.999 1.458-4.05 2.167-6.083.466.131.97.243 1.418.373-.373 2.22-.448 4.533-1.212 6.585-1.121 2.948 46.491-64.671 45.074-61.797-1.121 2.257 66.698-62.951 43.476-35.754 21.043-3.191 26.754-21.873 56.557-30.632 94.32-6.864 47.14 11.931 61.329 8.924h.004l-.01.003zm166.494 72.01c.28-.281.542-.542.822-.805-.97-1.378-1.699-3.001-2.912-4.065-3.718-3.172-7.859-5.895-11.372-9.252-8.232-7.761-17.47-14.01-27.7-18.71-2.109-.971-5.058-2.37-6.682-1.605-2.315 1.1-3.788.521-5.582-.28-6.178-2.742-12.114-5.932-18.48-8.152-7.28-2.555-14.877-4.216-22.27-6.36-9.369-2.725-18.928-3.731-28.652-3.246-3.583.167-7.149.54-10.714.82.467.951.99 1.362 1.493 1.399 5.729.407 11.498.464 17.19 1.212 3.546.464 7.67 1.042 10.36 3.134 3.508 2.702 7.054 3.712 11.144 4.081 5.262.505 10.88.262 15.752 1.98 10.828 3.843 22.607 4.942 32.462 11.64 7.111 4.813 14.727 8.879 22.081 13.319 4.573 2.744 9.128 5.505 13.607 8.378 3.156 2.07 6.273 4.327 9.446 6.51v.002h.007zM307.162 196.19c.167.448.372.933.52 1.38 8.757-4.532 17.492-9.047 26.227-13.58-10.32 1.1-18.498 6.754-26.749 12.2h.002zm192.54 375.567c4.313-1.063 18.313-15.707 18.947-19.4-8.867 4.29-11.312 14.383-18.946 19.402v-.002zM215.046 301.793c.52.299 1.044.578 1.567.858 3.863-7.575 9.67-14.047 12.3-22.292-.372-.203-.745-.39-1.082-.615-4.275 7.37-8.512 14.7-12.786 22.05zm301.027-65.309c-.373.41-.784.82-1.157 1.25 5.544 5.335 11.088 10.652 16.65 15.987.304-.317.583-.616.862-.933-4.983-5.894-10.135-11.64-16.352-16.305l-.003.001zM224.19 448.264c-.521.243-1.083.449-1.623.692 1.567 3.75 3.117 7.516 4.685 11.285.577-.261 1.157-.485 1.736-.727-1.587-3.75-3.191-7.518-4.797-11.25h-.004.003zm20.869-160.725c.336.112.653.262.99.392 1.902-3.711 3.825-7.442 5.73-11.154-3.043 3.19-6.664 6.043-6.72 10.762zm282.885 275.244c.392.392.784.784 1.157 1.176 2.913-2.817 5.861-5.653 8.792-8.488-.373-.373-.673-.71-1.027-1.063-2.971 2.812-5.956 5.577-8.926 8.37l.002.003.002.002zm22.138-21.73c-.392-.3-.727-.543-1.12-.841a1834.493 1834.493 0 0 1-9.07 11.864c.316.261.577.467.875.71 3.116-3.92 6.193-7.836 9.311-11.734h.004zm-373.08-204.117c-.485-.224-.97-.447-1.456-.654-.9 3.008-1.79 6.018-2.67 9.03.468.15.971.298 1.44.447.894-2.947 1.772-5.895 2.686-8.824zm341.629 233.589c.372.41.672.84 1.007 1.23 2.408-2.144 4.76-4.289 7.168-6.453-.262-.28-.486-.559-.73-.84-2.499 2.015-4.964 4.049-7.446 6.063zm30.91-337.232l-1.811 1.809a742.87 742.87 0 0 1 6.254 5.056c.317-.317.653-.635 1.007-.933a554.86 554.86 0 0 0-5.446-5.927l-.002-.003-.002-.002zm-7.821 31.47a45.638 45.638 0 0 1 1.605-1.08c-1.68-2.2-3.305-4.422-4.965-6.62-.374.26-.784.539-1.158.782 1.513 2.314 3.006 4.608 4.517 6.922v-.002l.001-.003z"/><path d="M519.656 530.903c-.653-.597-1.157-1.081-2.295-2.052l-4.185 4.46c-.112-.114-.206-.188-.3-.3 1.83-2.613 3.454-5.41 5.563-7.779 12.003-13.45 20.645-29.007 28.243-45.162 3.077-6.547 6.195-13.188 7.95-20.146 6.104-24.083 9.408-48.575 6.57-73.46-1.456-12.626-3.602-25.199-5.412-37.771-.188-1.25-.152-2.519-.226-3.769.334-.056.616-.094.932-.15.615 3.284 1.082 6.604 1.81 9.867.803 3.452 1.793 6.865 2.763 10.558.784.075 1.866.208 3.977.432-1.065 2.33-1.886 4.234-2.727 6.1-.392-.131-.82-.262-1.212-.393 1.051 5.15 2.07 10.304 3.06 15.465.169.876 0 1.79.112 2.667.374 3.376.99 6.678 1.12 10.075.095 2.554-.466 5.147-.596 7.74-.392 6.548-.71 13.077-1.027 19.624 0 .373.337.765.282 1.101-1.27 6.306-2.576 12.648-3.977 18.953-1.493 6.792-2.67 13.657-4.76 20.26-1.922 6.117-4.704 11.995-7.355 17.833-2.502 5.505-5.171 10.933-8.064 16.23-1.756 3.21-4.072 6.083-6.161 9.123-3.864 5.672-7.673 11.34-11.556 17.05-.783 1.1-1.64 2.2-2.538 3.45h.003v-.003l.006-.003zM340.761 148.137c6.439-5.242 29.69-25.12 53.248-23.466-22.008 8.39 17.441-3.428 21.305-2.66-5.045 1.905 4.906 3.921 13.121 2.897 18.682-.445-.721 2.523 6.278 3.848 1.644.596 22.28-.259 52.341 15.737-23.018-5.675-27.86-8.153-40.616-7.295-8.63.422-43.499-5.361-51.085-4.36-9.302 1.068 1.37.095-5.721 1.096-5.352 1.011-45.4 13.771-48.872 14.2v.003zm-123.254 77.471a725.336 725.336 0 0 0 3.285-4.758c-.26-.242-.54-.448-.802-.691-3.378 3.73-6.738 7.463-10.098 11.21-.187-.11-.392-.24-.597-.352.41-.84.635-1.809 1.231-2.462a872.931 872.931 0 0 1 11.145-12.22c4.05-4.327 8.082-8.616 12.281-12.796 2.746-2.724 5.823-5.149 8.643-7.816 1.718-1.586 3.155-3.507 4.928-5.037 2.556-2.239 5.17-4.458 8.026-6.323 7.673-5.076 15.456-10.056 23.333-14.85 1.941-1.192 4.403-1.53 6.978-1.678-4.497 2.798-9.09 5.465-13.477 8.413-6.515 4.384-13.18 8.618-19.283 13.599-4.517 3.712-8.213 8.488-12.281 12.797a6757.032 6757.032 0 0 1-19.6 20.575c-.97 1.008-2.108 1.809-3.21 2.687a2.755 2.755 0 0 0-.502-.299v.001z"/><path d="M382.313 163.836c-3.692-1.734-46.013 14.533-45.1 15.783-3.881-.933 29.144-30.507 4.616-29.972 34.466-16.778 95.923-28.908 139.697-5.094-6.141 6.212-65 2.372-79.473 13.403-1.828-6.154-17.178 6.98-19.736 5.88h-.004zm-173.709 51.716c.093-1.174.206-2.369.336-3.768-1.027-.28-1.903-.52-3.789-1.026 2.822-3.787 5.34-7.163 7.821-10.538.396.203.767.39 1.142.615.13 1.044.261 2.107.486 4.159 2.67-3.511 4.89-6.439 7.092-9.327.261.183.486.37.748.559-4.725 6.25-4.536 15.89-13.834 19.326h-.002z"/><path d="M368.913 166.897c28.49-17.947 74.379-35.673 111.078-22.267 29.133 10.643 50.009 46.134 69.327 79.509-44.115-3.563-109.364-39.009-180.408-57.242h.003zM569.83 369.73c.69 9.606 1.344 19.175 2.035 28.782-.615.057-1.23.114-1.848.169-.727-9.57-1.474-19.14-2.183-28.71.672-.094 1.344-.167 1.998-.242h-.002v.001zM358.138 129.798c-3.685.78-.39 7.395-4.898 10.592-9.374 6.645-24.605 11.192-52.855 13.95 10.778-14.956 33.16-23.682 57.753-24.542zm188.624 185.835c3.024 8.096 6.049 16.21 9.052 24.306-.447.169-.932.355-1.38.523-2.948-8.134-5.88-16.268-8.828-24.401.391-.149.764-.297 1.155-.428h.001zM352.06 127.636c.392-2.798 1.176-4.048 3.787-3.843 1.998.15 4.034-.54 6.087-.653.748-.02 1.496.558 2.244.877-.392.71-.786 1.418-1.214 2.07-.13.168-.448.28-.691.318-3.267.392-6.553.784-10.21 1.23h-.003zm57.785-7.687c-4.108.615-8.233 1.193-12.34 1.808-.076-.409-.149-.838-.242-1.25 3.564-3.262 8.213-1.266 12.226-2.48.15.634.26 1.268.355 1.922zM204.648 241.222a5609.517 5609.517 0 0 0-9.651 14.381c-.392-.261-.803-.522-1.158-.765 3.21-4.813 6.384-9.625 9.613-14.457.373.28.765.578 1.195.84l.001.001zm310.174 294.736c-4.144 3.62-8.288 7.257-12.413 10.876-.373-.41-.71-.82-1.083-1.23 4.182-3.62 8.361-7.258 12.544-10.858.299.392.615.821.952 1.212zm-36.511 37.309c-4.405 2.855-8.848 5.69-13.253 8.507-.275-.392-.54-.821-.837-1.231a5200.67 5200.67 0 0 0 13.105-8.806c.316.504.653 1.026.989 1.53h-.004zM223.425 236.259c3.658-4.29 7.317-8.6 10.976-12.91.373.318.765.635 1.138.97-3.64 4.328-7.299 8.636-10.938 12.963-.392-.337-.784-.672-1.176-1.027v.004zm280.794 313.429c-3.546 2.388-7.11 4.757-10.77 7.22 1.027-3.586 2.856-5.094 10.024-8.115.28.294.485.616.746.89v.005zM329.616 217.342c-3.042 1.903-6.065 3.806-9.109 5.71-.261-.169-.485-.318-.746-.467.448-1.53.933-3.059 1.55-5.148.656.724 1.31 1.452 1.96 2.182 1.79-1.23 3.545-2.48 5.338-3.73l1.007 1.454v-.001z"/><path d="M379.623 153.975c4.704-.578 9.39-1.157 14.111-1.735.057.335.076.691.131 1.007-4.722.56-9.426 1.137-14.149 1.695-.02-.324-.05-.648-.089-.971l-.002.002-.002.002zm57.044 472.962c-3.36 1.25-6.683 2.556-10.005 3.806-.202-.492-.388-.99-.559-1.494 3.305-1.198 6.628-2.429 9.933-3.604.205.429.41.858.634 1.288l-.002.002-.001.002zm-177.011-426.57c-2.714 3.56-5.414 7.13-8.1 10.709-.471-.393-.9-.748-1.364-1.14 2.537-3.692 6.623-6.064 9.516-9.478l-.057-.094h.002l.003.003zM540.507 300.93c1.642 3.562 3.305 7.107 4.909 10.671-.337.148-.673.334-1.009.483-1.73-3.473-3.44-6.955-5.132-10.446.404-.249.814-.486 1.231-.71l.001.002zm7.783-120.953c2.69 1.808 5.395 3.579 8.083 5.37-.28.41-.542.858-.822 1.307-2.725-1.792-5.45-3.545-8.175-5.336.298-.468.596-.897.914-1.344v.003zm-329.047 82.396c0-4.778 1.009-6.102 5.34-7.594-1.903 2.686-3.641 5.132-5.34 7.594z"/><path d="M259.712 200.48c2.24-1.605 4.48-3.172 6.702-4.757-2.406 5.69-3.525 6.287-6.755 4.663 0-.019.057.095.057.095h-.004zm-60.647 84.99c-1.53 2.927-3.042 5.875-4.574 8.803-.447-.205-.857-.41-1.288-.615 1.513-2.948 3.045-5.894 4.574-8.842.43.242.84.448 1.288.653zm209.622-171.564c2.856-.486 5.712-.97 8.532-1.474.074.41.13.857.204 1.268-2.837.43-5.712.858-8.531 1.288-.074-.355-.13-.71-.205-1.083zM243.491 467.609c1.512 2.37 3.043 4.739 4.573 7.127-.392.26-.803.484-1.195.746a1546.55 1546.55 0 0 1-4.611-7.201c.393-.246.805-.433 1.233-.673v.001zm-59.096-178.987a908.642 908.642 0 0 1 4.833-8.638c.262.15.523.28.784.392-1.455 2.952-2.911 5.88-4.367 8.825-.43-.166-.84-.388-1.25-.578zm290.91 281.437c2.652-1.922 5.303-3.861 7.933-5.783.319.395.56.824.86 1.18-2.709 1.846-5.436 3.618-8.144 5.465a9.463 9.463 0 0 1-.653-.858h.003l.002-.004z"/><path d="M633.275 254.928c-.275-.008-9.194 7.894-19.828 17.565-10.633 9.667-19.966 17.839-20.743 18.16-.774.322-5.432 4.123-10.35 8.447-34.31 30.16-55 48.243-60.96 53.274-8.585 7.244-8.549 7.215-11.05 10.525-1.373 1.822-3.87 3.53-7.523 5.15-3.01 1.332-6.3 3.125-7.316 3.982-4.564 3.864 4.98-6.921 13.282-15.003 8.023-7.816 8.527-8.441 3.915-4.867-2.912 2.257-6.713 4.78-8.446 5.61-5.837 2.785-18.7 13.347-35.242 28.926-15.491 14.592-20.566 20.487-14.929 17.34 1.272-.71 2.54-1.047 2.817-.751.279.296 2.51-.926 4.956-2.718 7.03-5.144 9.996-4.558 6.423 1.27-2.097 3.419-88.814 84.517-136.08 127.265-49.367 44.647-63.081 57.388-66.132 61.433-5.085 6.747-23.95 25.315-31.8 31.304-5.681 4.33-7.823 6.505-11.05 11.214-5.782 8.437-62.572 61.904-76.767 72.271-5.322 3.892-12.52 9.368-15.99 12.174-3.472 2.803-9.189 6.416-12.704 8.028-3.516 1.612-8.803 4.571-11.745 6.58-2.945 2.008-6.529 4.138-7.965 4.732-2.595 1.068-22.006 12.014-25.85 14.576-1.106.739-3.369 2.083-5.032 2.988-5.974 3.264-.16-1.215 10.605-8.171 12.843-8.295 16.282-11.24 15.463-13.24-.317-.776.028-1.986.772-2.685.744-.7 1.676-1.945 2.074-2.765.625-1.297.398-1.448-1.736-1.136-2.054.297-2.594.758-3.285 2.824-.7 2.076-1.913 3.087-7.62 6.363-7.328 4.208-9.959 4.426-4.238.353 2.076-1.477 3.262-2.784 2.892-3.176-.597-.634-10.34 5.16-18.852 11.216-3.293 2.34-3.714 2.446-2.646.658.697-1.169 2.305-3.21 3.573-4.536 2.149-2.248 2.15-2.335.034-1.287-1.25.623-7.903 5.425-14.787 10.677-19.755 15.075-20.989 15.967-19.975 14.452.527-.79.506-1.553-.041-1.702-.55-.147-.366-.862.407-1.59.966-.906.973-1.53.028-1.986-1.575-.76.098-2.863 1.894-2.383.72.195 3.664-2.31 8.154-6.936 5.577-5.738 6.944-7.594 6.604-8.958-.237-.947.004-2.61.534-3.702.835-1.72.535-1.698-2.258.148-4.63 3.058-5.559 3.405-5.812 2.164-.123-.606-.731-.628-1.347-.047-.617.58-.636 1.185-.041 1.344.593.158.628.715.073 1.237-.554.523-1.626.649-2.383.284-.79-.379-2.388.205-3.75 1.373-2.073 1.776 0-.767 10.005-12.293 3.478-4.005 2.942-4.61-1.344-1.511-2.074 1.498-4.72 3.27-5.888 3.942-1.998 1.15-2.012 1.057-.227-1.63 1.041-1.569 2.433-3.092 3.091-3.387.66-.294.72-.663.13-.82-.586-.157-2.08.63-3.318 1.75-2.155 1.948-2.209 1.939-1.221-.19.572-1.223 1.685-2.54 2.476-2.923.79-.387 2.427-2.462 3.638-4.614l2.198-3.913-2.643 2.4c-2.73 2.477-4.533 2.243-2.976-.385.486-.824 2.887-3.74 5.338-6.483 5.772-6.464 7.107-8.42 6.325-9.251-.352-.374-1.38.017-2.287.87-3.168 2.983-6.95 4.94-6.556 3.39.207-.798 1.073-2.116 1.924-2.928.852-.814 1.292-1.755.973-2.093-.809-.861-5.287 2.06-9.518 6.202-5.928 5.805-5.19 2.688 1.181-4.995 3.284-3.958 6.508-8.5 7.168-10.091.66-1.59 2.142-4.394 3.293-6.225 2.503-3.981 1.696-8.83-1.207-7.247-.921.502-2.67 2.152-3.889 3.667l-2.215 2.755.949-2.969c.522-1.633 1.924-3.893 3.115-5.023 3.052-2.898 4.673-5.757 3.446-6.086-.646-.174.389-1.306 2.751-2.997 2.165-1.553 3.191-2.633 2.393-2.522-1.461.205 12.15-18.942 19.357-27.232 3.846-4.425 4.526-6.688 3.026-10.088-1.018-2.307-2.969-1.101-12.2 7.568-4.582 4.3-9.939 8.92-11.903 10.271l-3.573 2.453 4.715-6.103c2.59-3.356 5.54-7.414 6.547-9.014 3.043-4.839 14.708-17.084 26.626-27.958 32.6-29.732 57.384-51.094 77.22-66.551 5.666-4.416 10.75-8.977 12.049-10.808 3.738-5.274 64.107-63.052 66.004-63.17.9-.056 4.574-2.507 8.166-5.447 3.594-2.937 7.523-5.544 8.73-5.787 6.846-1.385 15.065-7.477 29.167-21.624 6.321-6.337 7.594-7.29 9.317-6.969 2.121.395 2.935-.265 30.773-24.883 6.475-5.725 16.38-14.265 22.01-18.974 9.299-7.778 21.594-19.226 34.133-31.782 5.08-5.084 10.436-9.056 14.241-10.559 1.309-.519 10.425-8.29 20.255-17.271 10.592-9.677 18.303-16.217 18.928-16.05 1.231.33 10.969-6.715 24.288-17.573 5.171-4.214 12.123-9.64 15.45-12.054 11.05-8.028 29.656-24.72 31.936-28.656 1.139-1.966 1.714-3.671 1.28-3.788-.436-.118-3.142 1.518-6.013 3.635-4.942 3.645-5.094 3.689-2.824.837l2.395-3.01-4.501 2.505c-2.474 1.377-4.583 2.085-4.69 1.572-.26-1.281-5.76 2.357-6.663 4.41-.634 1.446-.433 1.527 1.556.621 1.366-.625-1.184 1.962-6.36 6.44-6.374 5.521-9.08 7.404-10.33 7.186-1.041-.188-3.666 1.264-6.876 3.801-7.6 6.011-10.36 7.791-10.56 6.82-.299-1.473 7.593-8.75 25.137-23.18 9.26-7.619 16.956-14.288 17.1-14.825.48-1.785 5.712-6.266 7.445-6.372.943-.06 5.03-3.002 9.147-6.59 4.09-3.565 9.298-7.634 11.566-9.041 2.272-1.408 6.808-5.022 10.089-8.03 7.364-6.76 25.616-20.982 26.877-20.942.512.014-1.516 2.376-4.502 5.25-2.987 2.874-6.992 6.79-8.897 8.7-1.907 1.912-3.535 3.147-3.617 2.744-.3-1.477-8.465 4.36-12.508 8.942-3.63 4.111-3.895 4.687-2.089 4.498 3.078-.328 1.197 1.104-5.359 4.08-6.332 2.88-9.417 5.448-9.748 8.128-.149 1.189-1.89 3.13-5.221 5.814l-5 4.03 4.235-2.446c3.856-2.223 4.183-2.248 3.655-.283-.469 1.736 2.543-.89 15.43-13.462 8.807-8.593 20.515-20.214 26.015-25.827 26.858-27.402 58.19-56.522 57.472-53.417-.236 1.03 5.947-4.469 17.485-15.54 14.76-14.169 18.291-17.219 20.372-17.589 3.627-.65 4.523.919 2.008 3.523-1.184 1.224-11.278 10.967-22.427 21.652-11.15 10.685-21.36 20.77-22.69 22.416-1.325 1.643-6.315 6.969-11.08 11.833-17.938 18.309-23.464 24.344-22.515 24.6.533.142 1.735-.457 2.665-1.333.93-.876 1.927-1.342 2.212-1.038.288.305-.748 1.548-2.302 2.76-2.396 1.872-2.516 2.143-.771 1.792 1.492-.297 5.075-3.522 13.091-11.78 13.711-14.128 20.683-20.614 22.536-20.972.786-.154 6.524-5.174 12.75-11.16 9.971-9.586 11.276-10.617 10.923-8.636-.398 2.218.764 2.97 2.5 1.62.489-.38 2.26-1.893 3.934-3.359 2.012-1.761 3.266-2.316 3.687-1.636.375.602 1.138.407 1.846-.47.66-.824 3.5-3.744 6.306-6.489 3.204-3.136 5.123-5.655 5.158-6.772.044-1.477-.17-1.588-1.26-.648-.766.659-1.088.644-.776-.038.786-1.704-1.174-1.922-3.02-.339-1.474 1.265-1.498 1.207-.373-.827 3.239-5.842 10.747-10.2 10.747-6.238.002 1.373.63.95 3.37-2.266 3.446-4.05 4.893-8.074 1.884-5.244-2.648 2.49-2.106-.216.75-3.754 1.754-2.168 3.86-3.774 6.004-4.579 2.537-.951 3.753-1.98 5.233-4.408 1.894-3.11 5.795-6.494 16.565-14.36 2.98-2.18 4.539-3.023 3.461-1.875-1.62 1.73-1.644 2.015-.139 1.666 1.196-.274 2.616-1.614 4.157-3.917 2.417-3.623 18.871-19.482 17.683-17.05-.37.752-.524 2.027-.343 2.829.18.802-.353 2.11-1.186 2.905-.834.795-1.705 2.166-1.932 3.049-.741 2.882 2.352.753 5.643-3.88 1.657-2.336 3.837-5.242 4.844-6.468 8.236-9.964 13.217-15.735 15.01-17.363 1.786-1.629 1.981-1.634 1.259-.051-4.896 10.734-17.048 27.295-21.37 29.119-2.696 1.138-8.35 6.528-12.182 11.618-1.818 2.409-4.09 4.463-6.067 5.482-2.506 1.288-3.388 2.275-4.268 4.772-.88 2.507-2.556 4.372-8.19 9.136-3.896 3.292-7.37 5.98-7.721 5.968-.35-.01-.716.583-.81 1.319-.091.733-1.115 2.63-2.272 4.214-1.94 2.65-2.183 2.736-3.092 1.066-.947-1.743-1.245-1.572-7.549 4.223-3.611 3.319-10.11 9.139-14.445 12.94-14.095 12.347-19.312 17.242-19.626 18.416-.17.635-5.3 5.9-11.397 11.7-6.098 5.801-10.851 10.8-10.563 11.108 1.115 1.185 19.093-14.833 46.207-41.173 6.197-6.02 12.546-11.774 14.107-12.786 2.705-1.755 2.746-1.748.87.161-1.391 1.417-1.55 2.017-.539 2.045.79.025 5.009-3.138 9.378-7.03 4.37-3.893 8.327-7.063 8.792-7.049.464.012.094.739-.824 1.604-1.6 1.513-1.544 1.547 1.449.734 2.509-.682 4.385-2.185 9.536-7.622 4.03-4.252 6.496-6.382 6.628-5.723.12.58-1.398 2.581-3.374 4.45-4.081 3.862-5.562 7.073-2.727 5.914.928-.382 3.184-2.424 5.015-4.542 2.03-2.346 3.902-3.832 4.798-3.802 1.047.032 2.23-1.063 4.106-3.788 1.449-2.107 5.087-5.855 8.086-8.33l5.452-4.502-1.43 3.22c-.785 1.766-3.953 5.726-7.04 8.8-3.084 3.071-5.52 6.113-5.406 6.756.284 1.643-8.204 12.515-9.734 12.472-.736-.024-.403-1.161.833-2.856 1.13-1.55 1.71-2.91 1.288-3.023-1.218-.328-12.082 10.832-11.588 11.9.244.523 1.092.338 1.887-.408.794-.748 1.7-1.086 2.012-.754.313.332-5.467 6.291-12.842 13.243-13.45 12.672-18.714 18.502-17.693 19.587.738.782 8.1-4.668 14.56-10.78 12.784-12.094 24.439-23.94 23.33-23.712-1.766.361 5.156-6.901 9.322-9.776 3.098-2.14 11.794-11.68 23.08-25.314 2.528-3.058 3.418-3.711 3.828-2.824.723 1.562-3.326 9.686-6.268 12.569-1.307 1.282-2.752 3.187-3.208 4.23-1.211 2.789 4.732-2.765 6.21-5.801.627-1.288 1.8-2.612 2.612-2.945 1.16-.473 1.29.062.616 2.497-.47 1.706-1.574 4.159-2.452 5.454-.878 1.295-1.778 3.727-2 5.402l-.402 3.045 3.788-4.308c2.086-2.37 4.888-5.642 6.23-7.272 1.487-1.804 1.08-.79-1.041 2.6-6.074 9.696-5.05 9.364 7.416-2.408 10.917-10.312 8.025-5.729-4.408 6.981-6.31 6.455-11.79 12.679-12.182 13.838-.39 1.155-2.162 3.683-3.939 5.615-3.879 4.219-4.77 5.778-3.497 6.121 1.439.385-2.665 6.356-10.669 15.525-3.953 4.526-7.436 8.948-7.742 9.829-.307.88-3.649 5.141-7.427 9.468-4.524 5.183-6.93 8.614-7.047 10.056-.119 1.456-.938 2.613-2.44 3.452-2.14 1.197-3.5 3.354-6.4 10.153-.698 1.638-4.02 6.206-7.382 10.157-4.967 5.838-6.05 7.625-5.776 9.516.327 2.263-.227 2.85-17.83 18.954-9.996 9.143-17.952 16.857-17.681 17.144.27.287.865.168 1.323-.263.515-.486.8-.316.745.445-.079 1.224-7.537 10.025-8.465 10l-.003-.006.002.003-.002.003zM50.447 737.747c-.687.27-1.263.857-1.276 1.304-.016.449.55.227 1.25-.493.776-.792.786-1.111.024-.811h.002zm584.485-554.082c2.115-3.898 10.053-12.24 11.322-11.9 1.078.29 11.25-9.244 13.803-12.943 2.004-2.9 1.104-4.293-1.589-2.462-3.611 2.456 5.757-9.251 12.762-15.953 3.977-3.802 6.442-6.694 6.056-7.105-.837-.89-58.355 53.135-58.922 55.342-.293 1.141.445.998 2.756-.544 6.403-4.272 5.842-3.636-12.464 14.167-5.22 5.075-6.575 7.51-3.87 6.96 1.098-.228 1.242.094.627 1.363-1.795 3.712 2.23.615 14.768-11.372 7.627-7.289 13.79-13.793 14.747-15.557h.002v.002l.002.002zm-26.55 22.272c1.03-1.562 2.515-3.003 3.301-3.2.81-.202-.002 1.03-1.875 2.844-3.162 3.068-3.223 3.077-1.427.352v.004zm29.945-32.093c-1.407.663-.552-.27 2.256-2.462 2.488-1.941 4.759-3.534 5.048-3.55 1.015-.039-5.063 4.966-7.304 6.012zm48.343-42.183c-.483-1.178-1.433-.61-5.7 3.404-2.815 2.648-5.454 5.504-5.859 6.346-1.395 2.902 2.017 1.145 7.178-3.686 3.778-3.537 4.824-4.99 4.384-6.062l-.003-.002zm-88.714 56.66c5.41-5.113 7.183-8.72 2.796-5.703-8.418 5.795-10.198 7.433-8.797 8.108 1.261.606.919 1.72-.9 2.884-.4.258-1.045 1.12-1.43 1.914-.589 1.222-.456 1.394.858 1.127.901-.185 1.805-1.063 2.153-2.097.331-.976 2.721-3.781 5.316-6.23l.004-.003zm36.768-35.668l1.501-2.572-3.158 1.976c-3.46 2.164-11.722 10.745-12.255 12.729-.186.686.093 1.36.62 1.502 1.14.305 11.15-9.965 13.292-13.635v.002-.002zm4.446-5.69c-.36-.383-1.101-.273-1.651.245-.55.515-.9 1.432-.777 2.036.123.601.864.492 1.648-.246.786-.739 1.133-1.657.776-2.036h.004zm-51.3 46.872c-.38-.403-.82-.248-.98.348-.161.592-.161 1.216-.006 1.384.157.166.6.011.98-.347.381-.36.382-.982.003-1.386l.003.001zm33.851-33.926c1.525-1.998 1.77-2.846.773-2.652-2.936.569-13.077 11.6-11.135 12.12 1.093.294 7.105-5.198 10.368-9.468h-.006zM507.538 235.91c-1.017.644-2.258 1.825-2.758 2.623-.5.795.333.265 1.852-1.174 1.518-1.444 1.924-2.096.906-1.449zm-26.962 22.365c-.597-.159-2.047.676-3.229 1.86-2.05 2.053-2.045 2.1.108 1.076 3.241-1.546 4.362-2.602 3.12-2.936zM57.412 763.471c-2.288 1.423-1.902.84 1.87-2.812 3.144-3.049 4.62-4.07 4.347-3.018-.455 1.774-1.957 3.183-6.218 5.83h.004-.003zm-41.41 9.005c-2.384 1.802-4.782 3.265-5.336 3.248-.553-.016.513-1.179 2.369-2.583 1.86-1.401 5.52-4.268 8.136-6.373 2.617-2.102 5.075-3.814 5.464-3.8.864.026-4.797 5.088-10.634 9.51v-.002zM727.14 96.701c4.595-6.741 13.925-17.654 13.911-16.275-.011 1.193-10.507 14.514-13.618 17.28l-2.49 2.216 2.197-3.222v.001zm-1.49-10.991c.013-.449.588-1.035 1.275-1.307.763-.297.752.022-.024.813-.7.72-1.264.939-1.251.494zm4.054-4.375c-.12-.583 1.69-2.852 4.018-5.042 5.293-4.976 5.366-4.308.17 1.59-2.49 2.827-4.053 4.115-4.185 3.452h-.003zm9.753-10.437c-.123-.606.308-1.59.958-2.192 1.02-.943 1.127-.864.776.559-.533 2.152-1.45 3.015-1.732 1.628l-.002.002v.003zm-97.638 70.163c.012-.45.587-1.037 1.275-1.306.762-.299.75.018-.025.811-.7.72-1.264.937-1.25.492v.003zm-7.658 2.653c-2.304 1.36-2.381 1.34-.871-.23.906-.946 3.106-3.457 4.88-5.578 2.772-3.317 3.382-3.698 4.326-2.693.903.959.478 1.699-2.356 4.09-1.903 1.61-4.597 3.594-5.984 4.411h.005zm69.525-66.078c.013-.45.587-1.036 1.275-1.305.76-.3.75.02-.026.81-.706.72-1.267.941-1.25.492v.003zm-30.865 18.587c.012-.448.587-1.035 1.275-1.305.762-.299.751.02-.024.81-.701.719-1.265.94-1.25.493l-.001.002zm-11.659 5.572c-3.774 3.225-5.561 4.25-6.565 3.769-1.13-.547-.852-1.002 1.534-2.532 1.671-1.07 5.844-5.65 9.794-10.75 5.028-6.492 6.22-8.469 4.427-7.33-1.862 1.18-1.394.341 1.944-3.49 2.415-2.775 5.495-6.067 6.84-7.312 2.338-2.169 2.426-2.166 2.058.104-.242 1.488-1.322 3.014-2.901 4.094-1.653 1.127-4.106 4.744-7.119 10.491-2.53 4.825-4.652 8.717-4.715 8.65-.065-.068-2.45 1.867-5.303 4.306h.006zM462.566 278.346c.014-.449.59-1.036 1.275-1.305.764-.303.753.02-.025.807-.7.72-1.264.941-1.25.494v.004zm108.458-103.464c.702-.976 2.106-2.297 3.119-2.936 1.013-.644.435.152-1.279 1.766-1.713 1.615-2.541 2.14-1.84 1.169zM454.63 282.787l-3.525 2.504 3.047-3.707c1.674-2.038 3.349-3.555 3.718-3.376.37.19 1.51-.72 2.535-2.01 1.287-1.63 1.94-1.97 2.115-1.11.265 1.303-1.998 3.513-7.888 7.703v-.003l-.002-.001zm-48.48 43.272c.7-.973 2.105-2.294 3.119-2.933 1.013-.643.435.152-1.278 1.765-1.716 1.614-2.543 2.14-1.841 1.169v-.001zm128.235-121.016c-2.136.395 9.326-10.387 12.133-11.41 1.287-.467-.157 1.295-4.257 5.199-3.41 3.25-6.954 6.045-7.876 6.215h-.003v-.002l.003-.002zm90.892-85.427c-1.264.246-1.307-.097-.215-1.62.763-1.058 2.549-2.878 3.965-4.043 1.42-1.167 3.57-2.943 4.782-3.945 1.714-1.423 2.117-1.459 1.799-.177-.518 2.091-8.203 9.375-10.328 9.785h-.003zm-44.802 39.964l-5.96 4.083 6.767-6.354c3.724-3.493 6.993-6.11 7.267-5.82.919.98-2.077 3.984-8.074 8.09v.001zm27.947-26.992c-1.41.735-1.085.159 1.073-1.896 1.704-1.625 3.975-3.276 5.045-3.664 2.339-.854-2.831 3.844-6.117 5.56zM407.5 317.805c-1.81-3.32-.729-6.05 3.852-9.734 4.45-3.583 10.29-6.41 13.064-6.327 1.877.057 1.898.027-8.498 10.219-7.018 6.88-7.626 7.3-8.42 5.842h.002zm83.825-76.959c.012-.448.589-1.035 1.275-1.305.76-.299.748.02-.028.81-.701.722-1.264.942-1.25.495h.003zm7.893-7.556c.7-.973 2.105-2.295 3.118-2.933 1.013-.644.435.151-1.278 1.765-1.714 1.61-2.542 2.14-1.837 1.164v.002l-.003.002zm-71.385 65.46c-.36-.38.147-1.443 1.121-2.36 1.009-.946 1.87-1.196 1.998-.574.12.602-.381 1.664-1.122 2.361-.741.701-1.64.957-1.998.578v-.003l.001-.002zm17.271-18.22c-2.007.236-2.053.017-.647-3.148 1.055-2.382 2.282-3.793 4.081-4.694 1.852-.926 2.204-.904 1.252.088-1.076 1.12-1.02 1.316.305 1.06 2.107-.409 1.984.265-.663 3.653-1.38 1.764-2.959 2.871-4.33 3.037h-.002l.002.003h.002zM902.87 559.257V402.861c23.887-24.339 63.1-59.044 108.17-59.044 13.972 0 19.38 14.874 19.38 39.212v176.228h37.86V383.029c0-47.775-16.225-77.071-57.24-77.071-40.564 0-80.677 26.592-108.17 53.184v-47.776h-37.86v247.891h37.86zm238.876-247.89v247.89h37.41v-247.89h-37.41zm-4.507-76.17c0 13.52 9.916 23.436 23.437 23.436 13.07 0 22.986-9.915 22.986-23.437 0-13.07-9.915-22.986-22.986-22.986-13.521 0-23.437 9.916-23.437 22.986zm122.143-45.523v303.78c0 16.676 0 40.113 15.775 55.887 13.972 13.972 41.014 15.325 54.986 15.325l1.352-32c-12.62 0-22.084-2.705-28.845-9.466-5.86-5.859-5.86-19.38-5.86-29.747V189.674h-37.408zm111.776 248.342c0 68.057 36.057 126.65 108.17 126.65 18.48 0 54.536 1.802 99.607-54.086l-22.986-22.085c-34.254 45.072-63.55 43.72-76.62 43.72-47.776 0-73.016-40.114-70.762-98.706h169.016V415.93c0-17.578-7.662-109.973-100.057-109.973-64.903 0-106.368 59.944-106.368 132.058zm106.368-99.607c42.366 0 57.69 36.507 61.747 61.747h-125.748c9.915-34.704 30.648-61.747 64-61.747zm205.073 220.848V402.861c23.887-24.339 63.1-59.044 108.17-59.044 13.972 0 19.38 14.874 19.38 39.212v176.228h37.86V383.029c0-47.775-16.225-77.071-57.24-77.071-40.564 0-80.677 26.592-108.17 53.184v-47.776h-37.86v247.891h37.86zm266.82-182.538c0-33.352 28.395-39.212 41.466-39.212 22.085 0 41.916 8.113 53.634 20.733l24.339-23.437c-17.578-17.577-45.522-28.845-77.973-28.845-23.888 0-78.875 10.366-78.875 70.761 0 46.423 40.114 59.945 77.973 71.213 26.592 8.112 55.888 17.577 55.888 43.268 0 28.395-24.338 41.916-49.127 41.916-28.845-.45-58.142-15.324-71.663-40.113l-26.141 21.183c21.183 33.803 60.395 50.48 96.903 50.48 43.718 0 87.437-23.437 87.437-73.466 0-53.184-42.366-65.353-82.48-77.522-26.14-8.113-51.38-15.775-51.38-36.959zm180.285 58.593c0 97.804 53.634 129.354 107.72 129.354 54.085 0 107.72-33.804 107.72-129.354 0-94.199-53.635-129.354-107.72-129.354-54.086 0-107.72 34.704-107.72 129.354zm177.58 0c0 72.564-35.607 98.705-69.86 98.705-34.255 0-69.86-27.493-69.86-98.705 0-72.114 35.605-98.255 69.86-98.255 34.253 0 69.86 28.395 69.86 98.255z"/></g></svg>