<svg width="2540" height="780" viewBox="0 0 2540 780" xmlns="http://www.w3.org/2000/svg" xmlns:xlink="http://www.w3.org/1999/xlink"><title>logo-pixelmattic-color</title><defs><path d="M180.187 232.268c-26.466 26.476-58.286 39.708-95.856 39.708H49.323V349.9H0V.65h84.331c37.57 0 69.39 13.231 95.856 39.707 26.478 26.475 39.711 58.28 39.711 95.847 0 37.567-13.233 69.6-39.71 96.064zM145.396 75.362c-16.65-17.081-37.15-25.406-61.065-25.406H49.323V222.67h35.008c23.916 0 44.403-8.54 61.065-25.2 17.07-17.07 25.407-37.363 25.407-61.265s-8.336-44.194-25.407-60.842zM245.522 349.9V.65h47.604V349.9h-47.604zm360.17 0h-57l-86.471-131.285L375.965 349.9h-57.227l114.864-174.842L318.738.65h57.227l86.256 131.08L548.693.65h56.999L490.828 175.06l114.864 174.84zm227.585-47.816V349.9H631.304V.65h201.973v47.61H679.124v162.247h118.918v47.816H679.124v43.773h154.153v-.012zm26.9 47.816V.65h47.614v301.434h155.213V349.9H860.177z" id="a"/></defs><g transform="translate(10 212)" fill="none" fill-rule="evenodd"><use fill="#5C5C5C" xlink:href="#a"/><path d="M1665.051 349.9l-17.287-43.34h-141.342l-17.299 43.34h-52.09L1576.87 0l140.054 349.9h-51.874zm132.572-301.435V349.9h-48.24V48.465h-85.402V.649h219.044v47.816h-85.402zm243.826 0V349.9h-48.253V48.465h-85.401V.649h219.055v47.816h-85.401zM2152.03 349.9V.65h47.615V349.9h-47.615zm298.25-294.17c-16-6.833-32.878-10.032-50.382-10.032-17.503 0-34.153 3.2-50.382 10.032-15.385 6.616-29.245 16.01-41.214 27.967-11.947 11.957-21.126 25.622-27.754 40.995-6.617 16.227-10.033 32.875-10.033 50.377 0 17.514 3.416 34.379 10.033 50.595 6.617 15.372 15.807 29.037 27.754 40.994 11.969 11.957 25.84 21.351 41.214 27.967 16.229 6.617 32.879 10.033 50.382 10.033 17.504 0 34.382-3.416 50.383-10.033 13.882-5.978 26.273-14.086 37.365-24.13l32.024 32.033c-15.363 14.086-32.65 25.406-51.885 33.73-21.559 8.973-44.187 13.665-67.887 13.665-23.494 0-46.328-4.692-68.102-13.665-20.704-8.962-39.279-21.352-55.507-37.35-16.012-16.228-28.391-34.812-37.365-55.73-8.963-21.773-13.655-44.4-13.655-68.097 0-23.697 4.692-46.324 13.655-67.88 8.974-20.919 21.353-39.503 37.365-55.502 16.228-16.227 34.803-28.617 55.507-37.362 21.774-9.179 44.62-13.665 68.102-13.665 23.7 0 46.328 4.486 67.887 13.665 19.44 8.108 36.739 19.21 51.885 33.73l-32.024 32.032c-10.887-10.283-23.278-18.39-37.365-24.37zM1369.797 349.9V168.226L1252.79 349.9l-117.209-181.674V349.9h-46.977V.65L1252.78 251.91 1416.75.65V349.9h-46.954zm207.086-219.89l-51.02 128.301h102.484l-51.464-128.301z" fill="#FCEB3B"/></g></svg>