<svg width="2505" height="780" viewBox="0 0 2505 780" xmlns="http://www.w3.org/2000/svg"><title>logo-uncommon</title><path d="M40.889 382.252c0-17.1-5.76-25.65-17.279-25.65-2.79 0-5.931.348-9.423 1.044-1.391.348-2.79.522-4.187.522l3.141-30.887a2713.272 2713.272 0 0 0 33.764-5.498c10.229-1.719 20.439-3.552 30.627-5.497L108.94 310l5.234 8.898c-2.088 4.19-3.927 11.346-5.492 21.47-1.573 10.122-3.057 21.99-4.448 35.603-1.4 13.613-2.446 28.274-3.144 43.98a1053.138 1053.138 0 0 0-1.049 46.602c0 28.272 10.82 42.409 32.455 42.409 7.678 0 15.272-2.093 22.775-6.281a374.919 374.919 0 0 0 21.723-13.09V382.778c0-10.124-1.483-16.844-4.448-20.157-2.967-3.318-8.988-5.15-18.06-5.5-1.397 0-3.142.084-5.237.26-2.092.174-3.315.261-3.662.261l4.19-30.367a5065.22 5065.22 0 0 1 34.287-5.237 925.89 925.89 0 0 0 31.67-5.229 662.768 662.768 0 0 0 31.931-5.766l5.234 8.905c-2.095 4.188-3.926 11.607-5.497 22.252-1.57 10.645-3.057 23.562-4.448 38.743-1.397 15.186-2.445 32.028-3.144 50.53a1518.64 1518.64 0 0 0-1.048 57.065c0 6.636 1.57 11.87 4.711 15.708 3.141 3.84 7.679 5.761 13.61 5.761a29.666 29.666 0 0 0 8.902-1.31 82.105 82.105 0 0 0 7.852-2.878 58.46 58.46 0 0 0 7.853-4.712l8.374 10.998c-5.58 9.072-11.515 17.1-17.797 24.084a130.262 130.262 0 0 1-17.798 17.54c-6.63 5.41-13.088 8.987-19.368 10.732-31.758 0-49.558-13.437-53.397-40.314l-4.188-2.095c-13.26 12.566-25.297 22.692-36.117 30.367-10.82 7.68-18.148 11.52-21.987 11.52-26.873 0-47.29-5.585-61.248-16.752-13.958-11.172-20.938-27.579-20.938-49.22l3.663-115.716zM454.964 529.38c8.375-2.093 14.398-5.32 18.061-9.686 3.665-4.365 5.67-10.911 6.021-19.635l1.573-89.533c0-30.372-11.167-45.553-33.503-45.553-8.722 0-17.27 2.44-25.65 7.327-8.374 4.889-14.83 8.903-19.368 12.044-.696 9.425-1.31 20.157-1.831 32.2a13152.25 13152.25 0 0 1-1.57 35.076 3708.92 3708.92 0 0 0-1.31 30.894c-.348 9.246-.522 15.619-.522 19.108 0 9.08 1.133 15.276 3.404 18.591 2.262 3.316 6.367 4.971 12.301 4.971h3.663c1.391 0 2.964-.174 4.711-.522 1.392 0 3.141-.174 5.234-.522l1.57 2.617-5.757 32.987c-6.983 0-13.613-.174-19.895-.522a578.58 578.58 0 0 0-18.322-.788 627.539 627.539 0 0 0-17.27-.26c-6.984 0-14.14.173-21.466.521-7.331.348-13.961.696-19.893 1.05a424.04 424.04 0 0 1-20.938 1.565l4.19-33.504c10.12-1.049 17.186-3.666 21.201-7.854 4.014-4.19 6.019-11.172 6.019-20.944V389.062c0-12.219-1.744-20.505-5.233-24.872-3.492-4.362-10.296-6.544-20.417-6.544h-6.81l-2.086-2.617 3.138-27.75a1146.811 1146.811 0 0 0 35.337-5.759 2527.842 2527.842 0 0 0 31.147-5.761A614.717 614.717 0 0 0 401.57 310l4.185 5.237a136.73 136.73 0 0 0-2.617 11.517c-1.396 6.636-2.442 14.838-3.14 24.611l2.097 2.095c5.2-4.317 10.435-8.592 15.705-12.825a364.794 364.794 0 0 1 19.11-14.403c6.453-4.536 12.648-8.376 18.58-11.517 5.934-3.144 10.646-4.715 14.135-4.715 25.123 0 44.58 5.933 58.365 17.8 13.787 11.869 20.675 28.623 20.675 50.266 0 5.235-.522 13.352-1.566 24.345a2971.248 2971.248 0 0 0-3.14 35.343 6110.814 6110.814 0 0 1-3.142 36.392c-1.05 11.691-1.573 20.679-1.573 26.967 0 9.072 1.218 15.442 3.663 19.108 2.445 3.663 6.635 5.498 12.567 5.498h9.947c1.745 0 3.663-.174 5.758-.522l1.044 2.092-4.71 32.46c-7.33 0-14.308-.174-20.938-.522a582.533 582.533 0 0 0-18.846-.785 668.146 668.146 0 0 0-17.276-.261c-5.233 0-11.257.174-18.058.522-6.81.348-13.176.87-19.11 1.57-6.978.696-14.132 1.397-21.46 2.096l3.138-32.987v-.002zm331.37-31.416l8.374 27.228c-9.423 7.332-18.67 13.968-27.745 19.898a221.867 221.867 0 0 1-25.65 13.352c-9.07 4.014-17.619 6.02-25.645 6.02-17.803 0-33.856-2.792-48.164-8.376-14.309-5.585-26.436-13.613-36.38-24.084-9.948-10.474-17.627-23.127-23.037-37.96-5.41-14.838-8.113-31.677-8.113-50.53 0-19.545 3.14-37.52 9.423-53.926 6.282-16.404 15.094-30.454 26.435-42.148 11.344-11.694 24.776-20.853 40.307-27.489 15.531-6.63 32.718-9.949 51.564-9.949 9.773 0 18.762.611 26.962 1.832 8.2 1.223 15.268 2.53 21.202 3.927 6.63 1.397 12.738 3.141 18.322 5.237l2.092 4.712c-1.744 7.332-3.315 15.36-4.711 24.084-1.392 7.332-2.704 15.882-3.927 25.655a510.944 510.944 0 0 0-2.877 31.415l-34.027 2.096v-17.28c0-24.779-10.82-37.174-32.454-37.174-16.053 0-28.18 5.846-36.386 17.54-8.2 11.694-12.3 28.88-12.3 51.573 0 28.622 4.888 50.44 14.661 65.449 9.771 15.007 23.906 22.513 42.402 22.513 6.977 0 13.87-.786 20.675-2.356 6.809-1.571 12.827-3.231 18.06-4.971 6.288-2.098 11.87-4.715 16.757-7.854l4.187 1.566h-.007zm143.956 66.495c-16.749 0-31.932-2.878-45.54-8.637-13.61-5.761-25.302-13.876-35.073-24.347-9.774-10.474-17.276-23.04-22.515-37.704-5.23-14.657-7.852-31.063-7.852-49.212 0-19.898 3.056-38.136 9.165-54.714 6.108-16.578 14.743-30.805 25.913-42.675 11.168-11.866 24.515-21.027 40.046-27.49C909.968 313.232 927.149 310 946 310c17.097 0 32.454 2.794 46.065 8.376 13.61 5.587 25.215 13.528 34.814 23.825 9.593 10.297 16.923 22.861 21.985 37.697 5.06 14.838 7.59 31.503 7.59 50.002 0 19.898-3.057 38.137-9.16 54.717-6.108 16.578-14.662 30.804-25.653 42.675-10.996 11.865-24.254 21.027-39.785 27.484-15.531 6.457-32.72 9.686-51.564 9.686l-.002-.003zm10.472-40.314c30.014 0 45.02-23.388 45.02-70.164 0-33.503-4.453-58.375-13.351-74.607-8.897-16.23-21.724-24.345-38.476-24.345-30.014 0-45.02 23.388-45.02 70.159 0 33.508 4.448 58.382 13.349 74.612 8.896 16.23 21.719 24.345 38.473 24.345h.005zm295.248 5.235c8.374-2.093 14.395-5.32 18.06-9.686 3.666-4.365 5.671-10.911 6.022-19.635l1.57-89.533c0-30.372-11.167-45.553-33.505-45.553-8.722 0-17.27 2.44-25.65 7.327-8.375 4.889-14.836 9.077-19.368 12.566-.696 9.425-1.31 20.157-1.834 32.202a9167.72 9167.72 0 0 1-1.57 34.82c-.523 11.168-.96 21.375-1.308 30.626-.348 9.251-.522 15.621-.522 19.113 0 9.072 1.13 15.27 3.4 18.586 2.269 3.316 6.369 4.971 12.3 4.971h3.666c1.396 0 2.967-.174 4.711-.522 1.4 0 3.144-.174 5.239-.522l1.57 2.617-5.757 32.987c-6.983 0-13.61-.174-19.893-.522a578.9 578.9 0 0 0-18.322-.788 628.026 628.026 0 0 0-17.275-.26c-6.983 0-14.135.086-21.463.26-7.331.174-13.961.435-19.893.786-6.978.348-13.958.522-20.938.522l4.19-32.982c10.118-.701 17.186-3.057 21.196-7.071 4.016-4.017 6.024-10.911 6.024-20.684V389.062c0-12.219-1.745-20.505-5.236-24.872-3.489-4.362-10.295-6.544-20.414-6.544h-6.81l-2.091-2.617 3.14-27.75a1146.809 1146.809 0 0 0 35.337-5.759 2510.888 2510.888 0 0 0 31.147-5.761 614.716 614.716 0 0 0 30.884-5.759l4.185 5.237c-1.038 3.8-1.911 7.642-2.617 11.517-1.4 6.636-2.445 14.838-3.144 24.611l1.57 1.57a2357.56 2357.56 0 0 0 16.491-12.824 339.95 339.95 0 0 1 19.368-14.142c6.456-4.36 12.65-8.113 18.588-11.254 5.93-3.144 10.467-4.715 13.608-4.715 40.48 0 65.261 14.66 74.334 43.98 3.84-3.49 8.988-7.68 15.444-12.564a580.991 580.991 0 0 1 19.895-14.4c6.804-4.713 13.263-8.725 19.368-12.043 6.108-3.313 10.91-4.97 14.396-4.97 25.128 0 44.58 5.932 58.372 17.8 13.782 11.868 20.676 28.622 20.676 50.266 0 5.234-.522 13.351-1.57 24.345a3081.825 3081.825 0 0 0-3.14 35.342 5721.054 5721.054 0 0 1-3.14 36.392c-1.044 11.692-1.571 20.679-1.571 26.967 0 9.072 1.312 15.442 3.926 19.108 2.62 3.664 6.896 5.498 12.828 5.498h9.947c1.745 0 3.663-.174 5.758-.522l1.044 2.093-5.231 32.46c-6.983 0-13.96-.174-20.941-.522a579.276 579.276 0 0 0-19.11-.786c-6.801-.174-12.649-.26-17.534-.26-5.233 0-11.083.173-17.537.521-6.456.348-12.648.696-18.583 1.05-6.635.347-13.438.695-20.419 1.043l3.141-33.504c8.027-1.051 13.698-3.579 17.013-7.595 3.315-4.017 5.148-10.563 5.496-19.635l1.57-89.533c0-30.372-11.167-45.553-33.502-45.553-8.374 0-16.664 2.267-24.865 6.805-8.205 4.538-14.574 8.55-19.11 12.042l-6.808 117.283c0 9.077 1.135 15.447 3.404 19.113 2.269 3.663 6.37 5.498 12.3 5.498h9.426c1.745 0 3.49-.174 5.234-.522l1.044 2.092-5.234 32.46c-6.983 0-13.784-.174-20.417-.522a593.6 593.6 0 0 0-18.322-.785c-6.282-.174-11.865-.261-16.748-.261-5.236 0-11.257.174-18.066.522-6.802.348-13.17.87-19.105 1.57-6.978.696-14.132 1.397-21.463 2.096l3.141-32.987.003-.002zm439.206 0c8.374-2.093 14.398-5.32 18.06-9.686 3.666-4.365 5.672-10.911 6.022-19.635l1.57-89.533c0-30.372-11.167-45.553-33.502-45.553-8.723 0-17.276 2.44-25.653 7.327-8.374 4.889-14.83 9.077-19.368 12.566a1069.796 1069.796 0 0 0-1.829 32.202c-.522 12.042-1.049 23.649-1.57 34.82a3399.457 3399.457 0 0 0-1.31 30.626c-.348 9.251-.522 15.621-.522 19.113 0 9.072 1.133 15.27 3.405 18.586 2.26 3.316 6.366 4.971 12.3 4.971h3.663c1.392 0 2.962-.174 4.71-.522 1.39 0 3.14-.174 5.233-.522l1.573 2.617-5.758 32.987c-6.983 0-13.61-.174-19.892-.522a578.096 578.096 0 0 0-18.32-.788 627.882 627.882 0 0 0-17.276-.26c-6.982 0-14.134.086-21.463.26-7.33.174-13.965.435-19.894.786-6.983.348-13.961.522-20.94.522l4.188-32.982c10.122-.701 17.186-3.057 21.202-7.071 4.013-4.017 6.019-10.911 6.019-20.684V389.062c0-12.219-1.745-20.505-5.234-24.872-3.489-4.362-10.292-6.544-20.414-6.544h-6.809l-2.087-2.617 3.138-27.75a1146.811 1146.811 0 0 0 35.337-5.759 2535.46 2535.46 0 0 0 31.145-5.761 614.718 614.718 0 0 0 30.88-5.759l4.188 5.237c-1.038 3.8-1.91 7.642-2.617 11.517-1.396 6.636-2.443 14.838-3.14 24.611l1.57 1.57a2357.56 2357.56 0 0 0 16.49-12.824 339.95 339.95 0 0 1 19.368-14.142c6.456-4.36 12.649-8.113 18.588-11.254 5.927-3.144 10.462-4.715 13.605-4.715 40.481 0 65.261 14.66 74.337 43.98 3.837-3.49 8.985-7.68 15.442-12.564a580.975 580.975 0 0 1 19.892-14.4c6.804-4.713 13.26-8.725 19.366-12.043 6.108-3.313 10.909-4.97 14.398-4.97 25.123 0 44.58 5.932 58.367 17.8 13.785 11.868 20.676 28.622 20.676 50.266 0 5.234-.522 13.351-1.566 24.345a3021.967 3021.967 0 0 0-3.144 35.342 5544.766 5544.766 0 0 1-3.14 36.392c-1.044 11.692-1.571 20.679-1.571 26.967 0 9.072 1.31 15.442 3.926 19.108 2.62 3.664 6.894 5.498 12.823 5.498h9.95c1.744 0 3.663-.174 5.757-.522l1.044 2.093-5.23 32.46c-6.984 0-13.962-.174-20.942-.522a579.276 579.276 0 0 0-19.11-.786c-6.801-.174-12.648-.26-17.534-.26-5.233 0-11.083.173-17.536.521-6.456.348-12.649.696-18.583 1.05-6.635.347-13.437.695-20.417 1.043l3.141-33.504c8.027-1.051 13.697-3.579 17.015-7.595 3.315-4.017 5.144-10.563 5.492-19.635l1.573-89.533c0-30.372-11.168-45.553-33.503-45.553-8.374 0-16.664 2.267-24.865 6.805-8.2 4.538-14.57 8.55-19.11 12.042l-6.803 117.283c0 9.077 1.135 15.447 3.404 19.113 2.266 3.663 6.369 5.498 12.3 5.498h9.424c1.744 0 3.489-.174 5.233-.522l1.049 2.092-5.236 32.46a389.52 389.52 0 0 1-20.414-.522 594.105 594.105 0 0 0-18.325-.785c-6.28-.174-11.866-.261-16.749-.261-5.235 0-11.257.174-18.06.522-6.81.348-13.176.87-19.11 1.57-6.978.696-14.132 1.397-21.463 2.096l3.14-32.987.006-.002zm396.805 35.079c-16.75 0-31.933-2.878-45.543-8.637-13.61-5.761-25.302-13.876-35.073-24.347-9.774-10.474-17.276-23.04-22.514-37.704-5.231-14.657-7.853-31.063-7.853-49.212 0-19.898 3.057-38.136 9.165-54.714 6.108-16.578 14.746-30.805 25.913-42.675 11.168-11.866 24.515-21.027 40.046-27.49 15.531-6.449 32.718-9.68 51.564-9.68 17.102 0 32.454 2.794 46.067 8.376 13.61 5.587 25.215 13.528 34.815 23.825 9.592 10.297 16.923 22.861 21.984 37.697 5.06 14.838 7.59 31.503 7.59 50.002 0 19.898-3.057 38.137-9.16 54.717-6.108 16.578-14.662 30.804-25.653 42.675-10.993 11.865-24.253 21.027-39.785 27.484-15.53 6.457-32.717 9.686-51.563 9.686v-.003zm10.469-40.314c30.014 0 45.02-23.388 45.02-70.164 0-33.503-4.447-58.375-13.349-74.607-8.896-16.23-21.724-24.345-38.475-24.345-30.014 0-45.02 23.388-45.02 70.159 0 33.508 4.447 58.382 13.349 74.612 8.896 16.23 21.724 24.345 38.475 24.345zm295.248 5.235c8.374-2.093 14.395-5.32 18.06-9.686 3.666-4.365 5.672-10.911 6.022-19.635l1.57-89.533c0-30.372-11.167-45.553-33.505-45.553-8.722 0-17.27 2.44-25.65 7.327-8.374 4.889-14.835 8.903-19.368 12.044a1069.839 1069.839 0 0 0-1.834 32.2c-.522 12.039-1.044 23.735-1.57 35.076-.522 11.346-.96 21.643-1.308 30.894-.348 9.246-.521 15.619-.521 19.108 0 9.08 1.133 15.276 3.399 18.591 2.269 3.316 6.37 4.971 12.3 4.971h3.669c1.391 0 2.964-.174 4.709-.522 1.391 0 3.138-.174 5.233-.522l1.57 2.617-5.757 32.987c-6.978 0-13.608-.174-19.89-.522a578.58 578.58 0 0 0-18.322-.788 628.026 628.026 0 0 0-17.276-.26c-6.978 0-14.132.173-21.46.521-7.33.348-13.96.696-19.893 1.05a424.24 424.24 0 0 1-20.943 1.565l4.19-33.504c10.119-1.049 17.186-3.666 21.197-7.854 4.015-4.19 6.023-11.172 6.023-20.944V389.062c0-12.219-1.744-20.505-5.236-24.872-3.489-4.362-10.295-6.544-20.414-6.544h-6.809l-2.092-2.617 3.14-27.75a1146.811 1146.811 0 0 0 35.338-5.759 2527.807 2527.807 0 0 0 31.147-5.761 614.717 614.717 0 0 0 30.888-5.759l4.185 5.237c-1.038 3.8-1.91 7.642-2.617 11.517-1.396 6.636-2.443 14.838-3.14 24.611l2.094 2.095c5.2-4.317 10.436-8.592 15.705-12.825a364.79 364.79 0 0 1 19.11-14.403c6.453-4.536 12.648-8.376 18.58-11.517 5.932-3.144 10.643-4.715 14.132-4.715 25.129 0 44.586 5.933 58.373 17.8 13.784 11.869 20.675 28.623 20.675 50.266 0 5.235-.522 13.352-1.57 24.345a3136.311 3136.311 0 0 0-3.141 35.343 5544.778 5544.778 0 0 1-3.141 36.392c-1.044 11.691-1.57 20.679-1.57 26.967 0 9.072 1.222 15.442 3.664 19.108 2.443 3.663 6.63 5.498 12.565 5.498h9.94c1.75 0 3.667-.174 5.765-.522l1.044 2.092-4.712 32.46c-7.33 0-14.309-.174-20.939-.522a582.535 582.535 0 0 0-18.846-.785 668.147 668.147 0 0 0-17.276-.261c-5.233 0-11.257.174-18.06.522-6.805.348-13.171.87-19.11 1.57-6.976.696-14.13 1.397-21.46 2.096l3.14-32.987.003-.002z" fill="#000" fill-rule="evenodd"/></svg>