<svg width="2074" height="780" viewBox="0 0 2074 780" xmlns="http://www.w3.org/2000/svg"><title>logo-fluentapps</title><g fill="#000" fill-rule="evenodd"><path d="M661.038 384.679c-27.01-21.32-78.305-29.14-115.76 14.808-30.65 35.963-20.15 84.051-1.204 104.761L661.038 384.68m-98.372 138.395c34.76 26.818 75.505 18.85 102.398-2.875 11.734-9.48 20.155-21.55 28.365-33.884 1.394-2.094 2.793-4.185 4.678-7.01.122 1.756.246 2.72.247 3.685.012 13.742.064 27.485-.065 41.226-.015 1.688-.551 3.797-1.64 4.986-15.375 16.791-33.475 29.499-56.034 34.314-39.13 8.352-74.643 1.43-104.799-26.392-17.682-16.314-30.583-35.575-35.637-59.334-7.229-33.987-.883-65.136 20.948-92.603 14.635-18.414 32.83-32.2 55.59-38.631 43.029-12.158 81.762-4.552 114.678 26.982a161.212 161.212 0 0 1 5.915 5.971c1.642 1.745 3.173 3.593 5.015 5.694l-139.659 137.87zm194.028 38.17H728.39V345.753h28.114v22.974l.954.51c1.479-1.588 2.886-3.25 4.445-4.755 14.401-13.904 31.942-20.886 51.568-23.05 15.946-1.76 31.793-1.09 46.906 4.703 33.447 12.82 54.04 36.891 61.33 72.01 1.21 5.824 1.604 11.906 1.624 17.872.137 40.157.072 80.314.072 120.47v4.664H895.24v-4.683c0-38.956-.042-77.913.017-116.869.03-19.034-5.677-35.81-18.533-50.121-24.526-27.304-65.958-29.808-93.832-5.683-13.798 11.943-23.377 26.178-25.64 44.64-.454 3.69-.532 7.447-.536 11.173-.037 38.823-.022 77.646-.022 116.469v5.169zm-286 0h-27.74V536.97c-1.818 1.743-2.827 2.652-3.771 3.623-15.13 15.567-33.913 23.031-55.206 25.068-19.66 1.882-38.762-.12-56.314-9.621-28.07-15.195-45.625-38.36-50.518-70.263-1.187-7.732-1.412-15.668-1.442-23.513-.142-37.095-.063-74.192-.063-111.289v-5.115h28.568v4.627c.044 41.232-.26 82.468.241 123.694.387 31.726 28.148 63.6 62.78 65.445 35.583 1.896 68.933-24.404 74.557-59.605.733-4.585.92-9.298.928-13.951.071-38.431.04-76.862.04-115.293v-4.997h27.94v215.463zm488.08-296.579h28.431v81.242h61.684v26.644h-61.548V480.906c.002 33.006 22.786 56.1 55.89 56.645 1.965.033 3.932.005 6.103.005v26.183c-11.076.87-21.913.01-32.374-3.314-23.422-7.443-40.756-22.132-51.196-44.544-5.04-10.82-6.938-22.402-6.95-34.228-.081-71.125-.04-142.251-.04-213.377v-3.61zM258.337 538.76v26.54c-13.649.599-26.865-.59-39.3-5.923-26.178-11.228-43.602-30.195-49.447-58.553-1.468-7.124-1.972-14.56-1.983-21.855-.13-87.806-.084-175.613-.084-263.42V211.3h28.568v5.17c0 87.94.032 175.88-.035 263.82-.01 13.141 2.443 25.465 10.545 36.138 11.12 14.647 25.877 22.216 44.35 22.33 2.374.014 4.748.001 7.386.001zM38.68 432.99v128.13H10V211.357h133.221v26.664H38.81v167.991h87.103v26.977H38.68zM1064.916 554.373L1232.65 210l168.173 344.365c-5.154 0-9.669.197-14.143-.14-1.105-.084-2.44-1.725-3.056-2.957-12.511-25.025-24.933-50.095-37.37-75.157-7.7-15.518-15.454-31.009-23.03-46.585-1.212-2.492-2.54-3.475-5.398-3.47-57.527.09-115.054.091-172.58-.004-2.854-.004-4.2.983-5.395 3.437-19.727 40.478-39.566 80.901-59.272 121.39-1.29 2.649-2.728 3.83-5.718 3.555-3.04-.28-6.125-.061-9.945-.061zm376.552-201.676h13.968v48.078c22.376-35.933 54.107-53.24 95.124-52.881 28.877.253 53.078 11.858 73.384 32.303 41.524 41.808 40.628 113.52-8.965 155.064-46.968 39.347-124.437 29.872-159.229-28.674v137.23h-14.282v-291.12zm269.216 153.24v137.811h-14.103V352.903h13.869v48.648c19.759-33.807 48.957-50.958 86.25-53.56 31.569-2.204 58.744 8.804 81.418 31.157 42.641 42.037 41.827 114.45-7.776 155.915-49.214 41.14-126.118 28.18-159.658-29.126zm228.27 4.925c4.486 6.312 8.084 12.247 12.528 17.46 11.212 13.154 25.94 18.4 42.983 18.237 17.697-.17 32.299-6.735 44.032-20.011 13.342-15.096 13.028-36.459 3.242-51.656-8.619-13.386-21.69-21.712-35.09-29.646-11.101-6.574-22.295-13.12-32.701-20.703-10-7.285-17.939-16.536-21.156-29.186-3.705-14.572 1.572-29.746 13.633-38.7 16.583-12.312 45.699-14.174 63.726 4.656.77.806 1.61 1.968 1.643 2.988.166 5.166.077 10.34.077 16.2-3.292-3.575-5.926-6.819-8.947-9.65-10.046-9.413-21.998-13.167-35.394-9.884-10.266 2.516-18.106 8.735-20.747 19.511-2.707 11.04 1.984 19.708 10.033 26.967 10.682 9.636 23.254 16.399 35.53 23.652 11.683 6.903 23.245 13.834 33.12 23.537 25.424 24.987 22.448 64.003-3.125 86.972-23.918 21.484-60.827 23.17-87.236 5.905-4.499-2.942-8.273-7.094-12.046-11.012-3.123-3.241-4.702-7.173-4.2-11.987.45-4.298.095-8.679.095-13.65zm-707.65-269.924l-83.685 171.827h168.262l-84.577-171.827zm663.382 212.301c-.044-51.832-45.471-96.38-98.124-92.99-44.853 2.889-87.792 45.147-86.86 95.539.91 49.126 45.54 93.594 98.016 90.95 45.647-2.3 87.5-43.077 86.968-93.499zm-440.12.641c-.008 50.515 42.936 92.92 93.252 92.97 51.018.051 92.111-44.465 91.65-93.306-.484-50.983-41.365-92.942-91.784-93.339-49.934-.392-93.11 43.042-93.118 93.675z"/></g></svg>